<?xml version="1.0" encoding="UTF-8"?>
<!DOCTYPE svg PUBLIC "-//W3C//DTD SVG 1.1//EN" "http://www.w3.org/Graphics/SVG/1.1/DTD/svg11.dtd">
<!-- Creator: CorelDRAW -->
<svg xmlns="http://www.w3.org/2000/svg" xml:space="preserve" width="100px" height="100px" version="1.1" style="shape-rendering:geometricPrecision; text-rendering:geometricPrecision; image-rendering:optimizeQuality; fill-rule:evenodd; clip-rule:evenodd"
viewBox="0 0 100 100"
 xmlns:xlink="http://www.w3.org/1999/xlink"
 xmlns:xodm="http://www.corel.com/coreldraw/odm/2003">
 <defs>
  <style type="text/css">
   <![CDATA[
    .fil1 {fill:#151615}
    .fil2 {fill:#DBDBDB}
    .fil0 {fill:white}
   ]]>
  </style>
 </defs>
 <g id="Layer_x0020_1">
  <metadata id="CorelCorpID_0Corel-Layer"/>
  <path class="fil0" d="M-461.48 31.93c0,3 2.09,2.54 5.03,2.55l141.45 -0.3c2.44,-23.69 -2.77,-46.83 -18.57,-62.72 -8.33,-8.37 -10.05,-7.45 -15.08,-11.24 -4.67,3.12 -7.64,10.43 -18.81,15.82 -3.43,1.65 -4.89,1.16 -6.88,4.64 -4.26,7.47 -9.39,29.55 -13.93,31.91 -3.57,-2.35 -10.51,-26.28 -13.28,-31.5 -3.47,-6.53 -9.34,-2.94 -20.1,-14.69 -1.06,-1.15 -1.44,-1.75 -2.59,-3.14l-2.44 -2.69c-9.5,2.24 -20.73,15.58 -25.24,23.04 -9.65,15.95 -9.55,30.21 -9.56,48.32z"/>
  <path class="fil0" d="M-388.27 -29.19c-2.97,-2 -14.66,-18.64 -17.88,-22.79l-11.63 -15.3c-2.99,-3.86 -3.36,-4.64 -0.86,-9.81 2.87,-5.94 5.7,-13.04 8.7,-18.28l43.75 0.09c2.82,3.94 6.55,13.58 8.98,18.53 2.48,5.04 2.02,5.15 -1.01,9.07l-23.41 31.25c-2.77,3.49 -3.51,5.77 -6.64,7.24zm-6.1 -79.66c-58.81,11.42 -41.13,94.48 12.57,86.26 20.76,-3.18 39.65,-22.99 36.59,-49.17 -2.48,-21.31 -23.73,-42.03 -49.16,-37.09z"/>
  <path class="fil1" d="M-461.48 31.93c0.01,-18.11 -0.09,-32.37 9.56,-48.32 4.51,-7.46 15.74,-20.8 25.24,-23.04l2.44 2.69c1.15,1.39 1.53,1.99 2.59,3.14 10.76,11.75 16.63,8.16 20.1,14.69 2.77,5.22 9.71,29.15 13.28,31.5 4.54,-2.36 9.67,-24.44 13.93,-31.91 1.99,-3.48 3.45,-2.99 6.88,-4.64 11.17,-5.39 14.14,-12.7 18.81,-15.82 5.03,3.79 6.75,2.87 15.08,11.24 15.8,15.89 21.01,39.03 18.57,62.72l-141.45 0.3c-2.94,-0.01 -5.03,0.45 -5.03,-2.55zm74.31 -26.57c-4.58,-3.01 -9.36,-21.49 -10.99,-25.5 5.05,1.84 15.07,1.28 19.94,-0.04 -1,7.72 -6.88,17.64 -8.95,25.54zm-7.2 -114.21c25.43,-4.94 46.68,15.78 49.16,37.09 3.06,26.18 -15.83,45.99 -36.59,49.17 -53.7,8.22 -71.38,-74.84 -12.57,-86.26zm-34.47 65.88c-5.06,4.36 -10.58,6.44 -16.25,12.32 -17.63,18.3 -19.38,36.55 -19.46,60.69 0,0.82 0,3.09 0.11,3.8 1.08,6.88 -1.42,-4.91 0.41,1.71l0.64 1.56c2.33,1.9 118.95,0.36 142.35,0.61 1.27,0.01 3.66,0.11 4.82,0 3.65,-0.33 1.44,0.47 3.82,-1.01 2.25,-4.38 1.02,-20.99 0.26,-26.91 -2.02,-15.55 -7.86,-28.71 -18.12,-39.74 -5.89,-6.34 -10.55,-8.1 -16.93,-13.03 2.6,-9.84 5.84,-11.19 5.41,-24.98 -0.31,-9.94 -2.98,-16.21 -7.08,-23.12 -6.82,-11.49 -21.29,-21.81 -39.41,-21.73 -26.84,0.11 -45.41,21.73 -46.13,44.82 -0.46,14.83 3.44,16.69 5.56,25.01z"/>
  <path class="fil1" d="M-381.1 -41.66c-1.26,-1.81 -1.35,1.05 -0.7,-3.57l8.26 -25.19 12.46 -0.14c-1.82,5.87 -17.51,22.56 -20.02,28.9zm-17.83 -28.56l21.66 -0.23c-0.32,2.43 -8.37,30.07 -11.29,32.69l-10.37 -32.46zm-16.27 -0.22l12.5 -0.09 9.62 29.4c-2.66,-2.12 -19.91,-24.52 -22.12,-29.31zm19.65 -21.98l15.15 0.34 3.55 18.37 -4.7 0.08 -13.45 0.08 -4.29 -0.46 3.74 -18.41zm-11.93 0.14l8.51 -0.11 -3.53 18.8 -13.88 -0.35 8.9 -18.34zm30.54 -0.1l8.87 0.02 8.31 18.68 -13.75 -0.15 -3.43 -18.55zm-11.33 63.19c3.13,-1.47 3.87,-3.75 6.64,-7.24l23.41 -31.25c3.03,-3.92 3.49,-4.03 1.01,-9.07 -2.43,-4.95 -6.16,-14.59 -8.98,-18.53l-43.75 -0.09c-3,5.24 -5.83,12.34 -8.7,18.28 -2.5,5.17 -2.13,5.95 0.86,9.81l11.63 15.3c3.22,4.15 14.91,20.79 17.88,22.79z"/>
  <path class="fil2" d="M43.51 -66.59l0.08 3.91 25.18 -0.07c3.26,0 18.61,0.77 19.34,-0.08l-0.27 -2.44c-0.27,-1.71 0.09,-2.46 -0.04,-4.16 -0.51,-6.78 -5.39,-13.84 -10.07,-15.21 -2.21,1.55 -8.92,9.95 -19.23,4.27 -2.88,-1.59 -3.18,-2.67 -4.82,-4.19 -2.64,0.48 -5.96,4.29 -7.27,6.45 -1.98,3.28 -2.91,6.59 -2.9,11.52z"/>
  <path class="fil2" d="M63.44 -106c-17.79,3.75 -11.64,28.86 4.8,25.58 6.13,-1.23 11.47,-7.62 10.06,-15.16 -1.19,-6.41 -7.44,-11.99 -14.86,-10.42z"/>
  <path class="fil2" d="M68.92 -113.64c0.59,-2.5 -0.14,-4.98 1.26,-6.73 1.27,-1.6 2.57,-2.39 2.89,-5.2 1.27,-11.07 -16.12,-11.41 -15.02,-0.05 0.21,2.21 1.57,4.06 2.84,5.12 4.16,3.44 3.9,-0.42 4.62,3.32l-3.71 -0.6 0.63 4.26c2.17,0.43 4.75,0.39 6.49,-0.12z"/>
  <path class="fil0" d="M-377.27 -70.45l-21.66 0.23 10.37 32.46c2.92,-2.62 10.97,-30.26 11.29,-32.69z"/>
  <polygon class="fil0" points="-399.29,-74.01 -395,-73.55 -381.55,-73.63 -376.85,-73.71 -380.4,-92.08 -395.55,-92.42 "/>
  <path class="fil0" d="M-387.17 5.36c2.07,-7.9 7.95,-17.82 8.95,-25.54 -4.87,1.32 -14.89,1.88 -19.94,0.04 1.63,4.01 6.41,22.49 10.99,25.5z"/>
  <path class="fil2" d="M146.08 -126.29l-4.89 -0.07c-0.46,-3.23 -0.35,-4.71 -0.05,-7.94 7.98,-0.48 7.89,-0.52 7.88,3.5 -0.01,3.69 0.79,4.52 -2.94,4.51zm-12.75 -33.18l1.84 0c-0.39,2.69 -0.03,5.39 -0.13,7.89 -0.02,0.46 -0.03,0.75 -0.11,1.2 -0.41,2.32 -3.49,1.45 -7.02,1.42 -7.42,-0.07 2.26,5.6 -8.1,5.58 -6.04,-0.01 -6.29,-0.41 -5.88,-7.83 0.11,-2.13 0.81,-3.15 2.72,-3.4 0.8,-0.11 5.47,-0.08 6.19,0.07 2.35,0.51 1.72,1.92 2.4,4l8.28 -0.06 -0.19 -8.87zm9.46 0l2.24 0 0.11 23.52 4.2 0.2c1.8,3.45 1.86,7.4 -0.06,10.8 -10.56,1.12 -10.09,-0.22 -9.93,-7.22 0.08,-4.06 1.09,-2.91 3.99,-4.05 0.3,-3.67 0.1,-8.03 0.1,-11.78 0,-7.6 0.49,-10.47 -0.65,-11.47zm10.41 0l1.64 0 0.03 11.32c2.41,0.17 3.45,-0.42 4.74,1.09 1.39,1.8 0.96,7.59 0.1,9.52 -0.74,0.73 -8.06,0.95 -9.35,0.1 -1.44,-1.27 -1.11,-1.57 -1.11,-4.2 0,-8.4 1.34,-5.33 4.09,-6.81l-0.14 -11.02zm9.41 0l2.48 0c-0.35,0.84 -0.36,4.82 -0.36,5.13 0,0.87 -0.05,1.91 -0.02,2.75 0.11,3.1 0.25,2.61 4.93,2.6 1.65,0 3.43,0.17 4.56,-0.29 1.18,-1 -0.81,-4.87 3.18,-5.34 8.13,-0.95 9.18,0.61 8.42,8.42 -0.3,3.15 -2.26,2.82 -5.28,2.82 -4.53,0 -4.55,0.71 -5.84,-2.87 -0.59,-1.64 -0.06,-1.28 -2.73,-1.28 -9.54,-0.01 -8.84,1.4 -8.74,-4.08 0.1,-5.59 0.48,-7.27 -0.6,-7.86zm-11.8 13.18l7.7 -0.23c0.58,2.27 0.48,5.7 0.08,7.87 -2.07,0.38 -5.69,0.53 -7.65,-0.15l-0.13 -7.49zm25.76 -6.62c1.4,-0.17 7.15,-0.72 7.29,0.67 0.18,1.82 1.18,5.7 -0.34,6.92 -0.85,0.55 -5.66,0.99 -6.72,0.09 -0.47,-0.4 -0.62,0.42 -0.57,-3.66 0.02,-1.64 -0.05,-2.41 0.34,-4.02zm-60.99 0.26c1.35,-0.48 7.2,-1.46 7.68,0.66l0.18 0.82c0.19,1.39 0.31,5.27 -0.63,5.98 -1.65,0.68 -5.59,0.48 -7.08,-0.14 -0.69,-1.84 -0.42,-5.42 -0.15,-7.32z"/>
  <path class="fil2" d="M158.46 -178.05c-1.28,2.26 -4.84,3.99 -8.31,4.08 -7.13,0.17 -6.47,-4.41 -11.31,-4.06 -6.82,0.5 -7.37,8.86 -7.43,14.27l36.92 0.04c-0.11,-8.27 -0.94,-14.32 -9.87,-14.33z"/>
  <path class="fil2" d="M139.43 -185.14c1.43,13.57 22.13,12.12 20.77,-2.29 -0.49,-5.22 -5.79,-10.05 -11.72,-9.22 -4.9,0.68 -9.68,5.54 -9.05,11.51z"/>
  <path class="fil2" d="M174.89 -162.04c-1.35,-0.52 -48.47,-0.55 -50.05,0 0.8,0.61 -0.76,0.82 2.62,0.81l42.18 -0.04c5.03,0.01 4.71,0.58 5.25,-0.77z"/>
  <polygon class="fil0" points="-373.51,-73.83 -359.76,-73.68 -368.07,-92.36 -376.94,-92.38 "/>
  <polygon class="fil0" points="-416.38,-73.94 -402.5,-73.59 -398.97,-92.39 -407.48,-92.28 "/>
  <path class="fil0" d="M-381.1 -41.66c2.51,-6.34 18.2,-23.03 20.02,-28.9l-12.46 0.14 -8.26 25.19c-0.65,4.62 -0.56,1.76 0.7,3.57z"/>
  <path class="fil0" d="M-415.2 -70.44c2.21,4.79 19.46,27.19 22.12,29.31l-9.62 -29.4 -12.5 0.09z"/>
  <path class="fil2" d="M164.37 -73.28c-6.69,0.94 -6.82,8.16 -6.48,13.19l27.16 -0.14c0.14,-3.02 0.24,-6.19 -0.87,-8.63 -0.93,-2.06 -3.16,-3.93 -5.51,-4.43 -2.52,1.27 -2.81,3.31 -7.33,3.26 -3.45,-0.04 -5.07,-1.78 -6.97,-3.25z"/>
  <path class="fil2" d="M198.1 -70.79c-2.79,2.98 -6.96,3.76 -10.63,0.86 -3.87,-3.06 -1.54,2.37 -1.42,2.93 0.42,1.99 -0.15,5.03 0.52,6.89l16.74 0.05c0.26,-4.03 0.24,-10.02 -5.21,-10.73z"/>
  <path class="fil2" d="M156.54 -60.2c0.3,-4.56 -0.43,-6.3 1.42,-9.98l-1.29 -0.65c-0.72,0.3 -1.85,1.41 -2.46,1.77 -4.43,2.59 -7.68,-0.3 -9.63,-1.77 -4.5,1.31 -5.51,5.2 -5.09,10.74l17.05 -0.11z"/>
  <path class="fil2" d="M190.09 -81.55c-7.85,3.12 -3.2,15.15 4.72,11.69 7.2,-3.14 3.25,-14.87 -4.72,-11.69z"/>
  <path class="fil2" d="M148.31 -81.55c-7.94,3.16 -3.1,15.04 4.72,11.7 2.39,-1.02 4.8,-4.35 3.51,-7.91 -1.1,-3.06 -4.25,-5.37 -8.23,-3.79z"/>
  <path class="fil2" d="M168.79 -86.05c-9.55,3.8 -3.89,18.45 5.75,14.24 8.76,-3.82 3.96,-18.11 -5.75,-14.24z"/>
  <path class="fil2" d="M63.02 49.54c1.87,-8.01 -3.66,-14.66 -10.06,-16.07 -7.83,-1.72 -14.66,3.78 -16.01,9.9 -3.96,17.95 21.92,23.92 26.07,6.17z"/>
  <path class="fil2" d="M67.53 47.49c2.43,0.16 12.99,0.37 14.89,-0.08 3.87,-0.93 4.65,-7.74 2.1,-10.45 -1.75,-1.86 -10.11,-1.93 -13.4,-1.26 -4.84,0.98 -3.69,7.31 -3.59,11.79z"/>
  <path class="fil2" d="M32.43 47.54c0.1,-4.64 0.95,-10.52 -3.05,-11.72 -2.91,-0.88 -12.12,-0.7 -13.89,1.07 -2.41,2.4 -1.96,9.51 1.81,10.5 1.9,0.49 12.46,0.23 15.13,0.15z"/>
  <path class="fil2" d="M59.21 29.5c9.48,-0.26 14.4,1.77 14.26,-4.98 -0.09,-4.94 -3.21,-4.79 -10.22,-4.43 -1.74,0.09 -3.07,0.82 -3.38,0.82 -0.88,2.26 -0.81,5.62 -0.66,8.59z"/>
  <path class="fil2" d="M26.58 24.52c0,6.21 3.41,5.19 14.35,4.84 0.16,-7.73 0.66,-9.3 -6.51,-9.27 -4.62,0.02 -7.84,-0.76 -7.84,4.43z"/>
  <path class="fil2" d="M37.83 57.44c-11.48,1.62 -11.71,13.99 -11.13,22.63l9.01 -0.05c-0.31,-0.46 -0.09,-1.22 -0.09,-4.05 0,-2.71 -0.45,-2.01 1.09,-2.93 0.69,1.22 0.89,5.06 0.24,6.97l25.71 -0.13c-0.68,-1.74 -0.5,-4.68 -0.36,-5.37 0.59,-2.85 -0.09,-0.48 0.89,-1.49 1.09,1.34 0.7,1.77 0.71,3.92 0.01,1.72 0.01,2.53 -0.05,2.94l9.46 -0.05c0.25,-5.17 0.41,-10.62 -1.48,-14.8 -1.6,-3.54 -5.43,-6.75 -9.46,-7.61 -4.33,2.18 -4.83,5.68 -12.59,5.59 -5.92,-0.07 -8.7,-3.05 -11.95,-5.57z"/>
 </g>
</svg>
