<?xml version="1.0" encoding="UTF-8"?>
<!DOCTYPE svg PUBLIC "-//W3C//DTD SVG 1.1//EN" "http://www.w3.org/Graphics/SVG/1.1/DTD/svg11.dtd">
<!-- Creator: CorelDRAW -->
<svg xmlns="http://www.w3.org/2000/svg" xml:space="preserve" width="472px" height="236px" version="1.1" style="shape-rendering:geometricPrecision; text-rendering:geometricPrecision; image-rendering:optimizeQuality; fill-rule:evenodd; clip-rule:evenodd"
viewBox="0 0 472 236"
 xmlns:xlink="http://www.w3.org/1999/xlink"
 xmlns:xodm="http://www.corel.com/coreldraw/odm/2003">
 <defs>
  <style type="text/css">
   <![CDATA[
    .fil0 {fill:#EBECEC;fill-rule:nonzero}
   ]]>
  </style>
 </defs>
 <g id="Layer_x0020_1">
  <metadata id="CorelCorpID_0Corel-Layer"/>
  <path class="fil0" d="M57.37 136.16l2 4.5c-0.45,0.37 -1.45,0.67 -3,0.93 -1.55,0.27 -3.54,0.5 -6.03,0.68 -2.84,2.84 -5.71,5.17 -8.54,7.03 -2.84,1.87 -5.68,3.23 -8.46,4.12 -0.66,0.19 -1.4,0.39 -2.24,0.63 -0.52,0 -1.1,-0.1 -1.72,-0.32 -0.62,-0.22 -1.3,-0.52 -2.05,-0.9 -0.76,-0.48 -1.38,-0.96 -1.8,-1.41 -0.41,-0.45 -0.63,-0.94 -0.63,-1.42 0,-0.98 0.47,-1.91 1.42,-2.83 0.95,-0.91 2.33,-1.78 4.14,-2.58 3.65,-1.7 7.25,-3.41 10.81,-5.13 0.52,0 0.88,0.1 1.12,0.32 0.23,0.21 0.34,0.48 0.34,0.8 0,0.88 -0.63,1.63 -1.88,2.23 -1.26,0.6 -1.88,1.03 -1.88,1.28 0.22,0.33 0.42,0.5 0.58,0.5 0.42,0 1.37,-0.65 2.82,-1.92 1.45,-1.26 2.15,-2.06 2.11,-2.38l-0.23 -1.13 0.08 -0.18c0.85,-0.75 1.49,-1.42 1.88,-2.02 0.42,-0.58 0.62,-1.05 0.62,-1.41 0,-0.82 -0.4,-1.9 -1.21,-3.26 -0.82,-1.37 -2.04,-3.02 -3.67,-4.93 -1.23,-1.5 -2.48,-2.85 -3.71,-4.03 -1.23,-1.19 -2.43,-2.23 -3.56,-3.15 -0.45,-0.4 -0.85,-0.77 -1.17,-1.15 -0.33,-0.37 -0.6,-0.72 -0.78,-1.05 -0.37,-0.65 -0.65,-1.18 -0.87,-1.61 -0.2,-0.42 -0.4,-0.7 -0.55,-0.84 -0.16,-0.18 -0.38,-0.41 -0.66,-0.7 -0.29,-0.28 -0.62,-0.6 -1,-0.94 -0.69,-0.72 -1.22,-1.72 -1.58,-2.99 -0.39,-1.26 -0.57,-2.84 -0.57,-4.72 0,-1.25 0.17,-2.44 0.52,-3.6 0.33,-1.15 0.83,-2.18 1.48,-3.1 0.1,-0.2 0.2,-0.41 0.3,-0.68 0.08,-0.27 0.2,-0.55 0.33,-0.88 0.75,-1.54 2.01,-3.18 3.8,-4.95 1.79,-1.78 4.13,-3.66 7.02,-5.64 0.39,-0.2 0.87,-0.45 1.42,-0.79 0.55,-0.31 1.16,-0.75 1.85,-1.26 0.4,-0.33 0.81,-0.62 1.3,-0.88 0.46,-0.25 1.03,-0.5 1.68,-0.74 0.88,-0.35 1.86,-0.75 2.96,-1.16 1.63,-0.85 2.98,-1.47 4.05,-1.85 1.08,-0.4 1.9,-0.58 2.45,-0.58 1.06,0 1.86,0.31 2.41,0.96 0.53,0.65 0.8,1.6 0.8,2.83 0,1.37 -0.1,2.48 -0.32,3.35 -0.21,0.87 -0.5,1.43 -0.85,1.73 -3.83,3.07 -6.92,5.36 -9.25,6.91 -2.35,1.55 -3.98,2.32 -4.93,2.32 -0.45,0 -0.82,-0.14 -1.07,-0.4 -0.27,-0.25 -0.4,-0.65 -0.4,-1.17 0,-0.88 0.73,-1.85 2.2,-2.9 1.47,-1.06 2.18,-1.86 2.15,-2.41l-0.45 -0.3c-0.15,0 -0.35,0.05 -0.55,0.15 -0.22,0.1 -0.43,0.22 -0.67,0.38 -2.85,2.32 -5.01,4.4 -6.46,6.23 -1.43,1.83 -2.16,3.45 -2.16,4.81 0,1.07 0.18,2.17 0.56,3.27 0.37,1.11 0.92,2.24 1.63,3.41 0.52,0.82 1.29,1.85 2.27,3.1 1,1.26 2.26,2.76 3.8,4.53 2.11,2.43 3.73,4.31 4.87,5.66 1.14,1.33 1.77,2.03 1.9,2.1 0.65,0.84 1.22,1.68 1.67,2.53 0.45,0.85 0.76,1.66 0.93,2.44 0.15,0.62 0.27,1.39 0.33,2.29 0.07,0.91 0.1,2.03 0.1,3.33 0,0.69 0.12,1.09 0.34,1.21 0.21,0.12 0.56,0.17 1.06,0.17 0.19,0 0.34,-0.04 0.45,-0.12 0.1,-0.08 0.23,-0.18 0.35,-0.32z"/>
  <path id="_1" class="fil0" d="M57.34 136.16l0.3 -0.33 0.13 -0.5c0.88,-1.2 2.43,-2.76 4.65,-4.69 2.21,-1.94 3.73,-3.5 4.58,-4.7 0.33,-0.52 0.7,-0.9 1.13,-1.13 0.42,-0.22 0.83,-0.33 1.26,-0.33 1.14,0 2.1,0.28 2.89,0.84 0.78,0.57 1.29,1.44 1.54,2.57 0.24,1.01 0.45,2.03 0.64,3.05 0.2,1.03 0.36,2.06 0.5,3.09 0.21,0.65 0.5,1.63 0.81,2.95 0.33,1.32 0.57,2.07 0.73,2.26 0.15,0.32 0.4,0.55 0.72,0.7 0.33,0.15 0.73,0.22 1.22,0.22 0.58,0 1.18,-0.1 1.79,-0.32 0.6,-0.2 1.24,-0.56 1.89,-1.09 0.48,-0.42 0.99,-0.85 1.53,-1.29 0.53,-0.45 1.05,-0.88 1.56,-1.3l2 4.5c-0.52,0.52 -1.22,1.12 -2.06,1.78 -0.87,0.67 -1.9,1.45 -3.1,2.33 -1.33,0.97 -2.46,1.7 -3.4,2.17 -0.95,0.48 -1.65,0.71 -2.15,0.71 -2.94,0 -4.86,-0.35 -5.74,-1.03 -0.87,-0.68 -1.85,-2.58 -2.91,-5.69 -0.14,-0.29 -0.32,-0.59 -0.59,-0.95 -0.25,-0.35 -0.55,-0.78 -0.86,-1.27 -0.4,-0.75 -0.74,-1.31 -1.04,-1.68 -0.28,-0.38 -0.53,-0.57 -0.73,-0.57 -0.51,0 -1.21,0.35 -2.08,1.05 -0.88,0.7 -1.95,1.75 -3.21,3.15 -0.17,-0.42 -0.37,-0.93 -0.62,-1.51 -0.25,-0.59 -0.52,-1.27 -0.78,-2.05 -0.07,-0.2 -0.15,-0.39 -0.25,-0.55 -0.1,-0.15 -0.22,-0.29 -0.35,-0.39zm20.33 -38.46c0.82,0 1.41,0.17 1.78,0.48 0.38,0.34 0.57,0.8 0.57,1.42 -0.2,0.91 -0.37,1.68 -0.49,2.3 -0.33,1.16 -0.61,2.13 -0.86,2.88 -0.23,0.75 -0.42,1.28 -0.55,1.61 -0.3,0.7 -0.7,1.33 -1.2,1.87 -0.5,0.53 -1.12,1.01 -1.83,1.45 -0.75,0.51 -1.37,0.88 -1.88,1.09 -0.5,0.2 -0.85,0.3 -1.05,0.27 -0.55,-0.07 -1.08,-0.13 -1.58,-0.18 -0.5,-0.03 -1,-0.07 -1.49,-0.07 -0.43,-0.23 -0.76,-0.66 -0.99,-1.31 -0.25,-0.65 -0.37,-1.54 -0.37,-2.64 0,-0.98 0.58,-2.21 1.78,-3.67 1.18,-1.49 2.23,-2.29 3.15,-2.39 0.55,-0.68 1.2,-1.44 1.95,-2.33 0.31,-0.23 0.74,-0.41 1.26,-0.56 0.52,-0.15 1.12,-0.22 1.8,-0.22z"/>
  <path id="_2" class="fil0" d="M85.25 136.16c0.13,-0.23 0.3,-0.48 0.51,-0.74 0.22,-0.29 0.47,-0.62 0.75,-1 0.33,-0.25 0.75,-0.64 1.28,-1.12 0.52,-0.48 1.1,-1.05 1.75,-1.7 0.58,-0.65 1.32,-1.45 2.15,-2.4 0.85,-0.96 1.88,-2.11 3.08,-3.48 0.53,-0.55 1.18,-1.24 1.97,-2.09 0.78,-0.87 1.69,-1.9 2.78,-3.1 0.91,-1.07 1.88,-1.85 2.93,-2.37 1.05,-0.51 2.14,-0.78 3.33,-0.78 1.16,0 2.03,0.37 2.58,1.1 0.55,0.73 0.83,1.78 0.83,3.18 0,0.75 -0.28,2.18 -0.83,4.28 -0.55,2.11 -1.42,4.9 -2.58,8.38 -0.3,0.65 -0.59,1.26 -0.84,1.84 -0.2,0.42 -0.33,0.8 -0.4,1.12 -0.06,0.33 -0.08,0.58 -0.08,0.73 0,0.2 0.1,0.45 0.33,0.74 0.17,-0.1 0.32,-0.22 0.47,-0.39 0.15,-0.16 0.32,-0.36 0.52,-0.58 0.25,-0.5 0.65,-1 1.18,-1.55 0.55,-0.53 1.18,-1.13 1.93,-1.78 0.3,-0.55 0.67,-1.1 1.15,-1.63 0.47,-0.53 1,-1.04 1.58,-1.48 0.13,-0.14 0.3,-0.35 0.52,-0.64 0.2,-0.3 0.45,-0.6 0.75,-0.93 0.41,-0.42 0.93,-0.87 1.51,-1.32 0.59,-0.44 1.27,-0.93 2.05,-1.41 0.87,-0.45 1.66,-0.82 2.36,-1.08 0.7,-0.25 1.3,-0.39 1.84,-0.39 1,0 1.89,0.25 2.68,0.74 0.76,0.48 1.43,1.25 2,2.28 0.64,2.01 1.26,3.88 1.84,5.59 0.35,1.02 0.75,1.77 1.2,2.25 0.44,0.48 0.93,0.73 1.48,0.73 0.42,0 0.79,-0.08 1.12,-0.25 0.33,-0.16 0.65,-0.41 0.93,-0.75l2 4.5c-0.55,0.45 -1.12,0.93 -1.7,1.42 -0.6,0.49 -1.16,0.96 -1.71,1.41 -0.75,0.68 -1.45,1.17 -2.1,1.45 -0.65,0.28 -1.3,0.42 -1.95,0.42 -0.75,0 -1.47,-0.17 -2.15,-0.49 -0.68,-0.33 -1.26,-0.81 -1.75,-1.46 -0.26,-0.25 -0.58,-0.74 -0.98,-1.43 -0.38,-0.7 -0.83,-1.57 -1.36,-2.62 -0.42,-0.41 -0.9,-0.96 -1.44,-1.66 -0.53,-0.7 -1.16,-1.52 -1.88,-2.47l-0.43 -0.15c-0.62,0.2 -1.23,0.5 -1.83,0.88 -0.6,0.39 -1.25,0.9 -1.92,1.52 -1.46,1.3 -2.53,2.1 -3.18,2.43 -0.65,0.32 -1.08,0.7 -1.31,1.12 -0.45,0.78 -1.23,1.79 -2.33,3.03 -1.1,1.23 -2.48,2.69 -4.15,4.38 -0.42,0.43 -0.83,0.83 -1.26,1.25 -0.42,0.4 -0.85,0.79 -1.27,1.19 -0.42,0.35 -0.9,0.6 -1.43,0.75 -0.54,0.15 -1.14,0.22 -1.78,0.22 -1.3,0 -2.02,-0.45 -2.12,-1.35 -0.12,-0.9 -0.23,-1.8 -0.33,-2.71 0.5,-1.37 1.05,-3.07 1.66,-5.13 0.62,-2.05 1.33,-4.43 2.13,-7.18 0,-0.15 0.07,-0.36 0.19,-0.65 0.1,-0.28 0.25,-0.65 0.4,-1.1 0.16,-0.41 0.28,-0.78 0.35,-1.1 0.06,-0.3 0.1,-0.58 0.1,-0.79 0,-0.24 -0.09,-0.42 -0.25,-0.55 -0.17,-0.12 -0.42,-0.19 -0.79,-0.19 -0.31,0 -0.74,0.19 -1.28,0.59 -0.55,0.38 -1.18,0.99 -1.93,1.84 -0.92,0.99 -1.65,1.75 -2.2,2.3 -0.55,0.55 -0.93,0.88 -1.11,0.98 -0.34,0.22 -0.72,0.55 -1.15,0.97 -0.43,0.43 -0.93,0.9 -1.48,1.42 -0.07,0.13 -0.17,0.33 -0.3,0.58 -0.14,0.26 -0.34,0.55 -0.64,0.88 -0.13,-0.48 -0.36,-1.1 -0.7,-1.81 -0.33,-0.72 -0.76,-1.6 -1.29,-2.69z"/>
  <path id="_3" class="fil0" d="M133.5 134.05l4.43 -2.9c0.17,-0.16 0.35,-0.38 0.58,-0.66 0.24,-0.27 0.48,-0.67 0.78,-1.19 0.24,-0.43 0.54,-0.78 0.9,-1.08 0.37,-0.28 0.8,-0.55 1.3,-0.78 0.25,-0.32 0.64,-0.73 1.12,-1.22 0.48,-0.48 1.1,-1.05 1.85,-1.69 0.36,-0.2 0.81,-0.49 1.36,-0.87 0.55,-0.37 1.15,-0.87 1.8,-1.48 2.96,-2.8 5.55,-4.9 7.78,-6.3 2.23,-1.4 4.09,-2.09 5.63,-2.09 0.84,0 1.46,0.18 1.86,0.53 0.42,0.36 0.62,0.86 0.62,1.51 0,0.69 -0.12,1.29 -0.37,1.8 -0.25,0.53 -0.62,0.97 -1.15,1.32 -0.8,0.6 -1.68,1.25 -2.63,1.96 -0.52,0.68 -1.15,1.4 -1.9,2.17 -0.75,0.76 -1.61,1.51 -2.63,2.26 -0.32,0.43 -0.6,0.8 -0.82,1.13 -0.16,0.15 -0.48,0.45 -0.93,0.87 -0.45,0.43 -1.05,0.92 -1.8,1.46 -0.33,0.72 -1.03,1.65 -2.13,2.79 -1.08,1.14 -2.53,2.51 -4.34,4.09 -0.24,0.23 -0.64,0.75 -1.24,1.57 -0.58,0.81 -1.34,1.88 -2.28,3.23l0.34 0.43c0.71,-0.23 1.46,-0.62 2.24,-1.16 0.79,-0.57 1.65,-1.3 2.6,-2.2 1.1,-1.02 2,-1.83 2.7,-2.47 0.7,-0.63 1.2,-1.05 1.5,-1.25 0.21,-0.13 0.45,-0.26 0.66,-0.38 0.24,-0.13 0.5,-0.3 0.79,-0.5 1.49,-1.78 2.89,-3.11 4.18,-3.96 1.29,-0.87 2.49,-1.3 3.61,-1.3 0.68,0 1.2,0.27 1.55,0.8 0.36,0.53 0.56,1.35 0.63,2.41 -0.07,1.63 -0.1,3.2 -0.1,4.68 -0.03,1.05 0.25,1.98 0.85,2.82 0.6,0.83 1.38,1.24 2.35,1.24 0.3,0 0.58,-0.08 0.85,-0.25 0.28,-0.16 0.56,-0.38 0.85,-0.64 0.23,-0.3 0.45,-0.59 0.65,-0.85 0.21,-0.27 0.43,-0.52 0.64,-0.79 0.14,-0.06 0.32,-0.18 0.57,-0.35 0.23,-0.16 0.47,-0.36 0.7,-0.6 0.47,0.99 0.87,1.84 1.18,2.57 0.32,0.73 0.55,1.38 0.72,1.93 -0.75,0.68 -1.48,1.4 -2.22,2.13 -0.73,0.75 -1.49,1.45 -2.31,2.1 -0.98,0.75 -1.92,1.32 -2.83,1.7 -0.9,0.38 -1.82,0.56 -2.73,0.56 -2.1,0 -3.73,-0.6 -4.86,-1.79 -1.14,-1.22 -1.8,-3.03 -2,-5.48 0,-0.28 -0.05,-0.58 -0.12,-0.9 -0.08,-0.3 -0.27,-0.62 -0.52,-0.95 -0.16,0.17 -0.34,0.33 -0.53,0.52 -0.2,0.18 -0.43,0.41 -0.68,0.69 -0.43,0.34 -0.97,0.74 -1.6,1.24 -0.63,0.48 -1.36,1.06 -2.21,1.75 -1.15,1.16 -2.1,2.13 -2.88,2.88 -0.79,0.75 -1.35,1.28 -1.67,1.61 -0.65,0.55 -1.41,1.1 -2.28,1.65 -0.85,0.55 -1.83,1.12 -2.9,1.72 -0.68,0.34 -1.26,0.63 -1.76,0.84 -0.49,0.22 -0.85,0.32 -1.07,0.32 -1.56,0 -2.73,-0.38 -3.48,-1.15 -0.75,-0.76 -1.11,-1.95 -1.11,-3.56 0,-0.88 0.19,-1.72 0.58,-2.52 0.38,-0.8 0.95,-1.58 1.71,-2.33 0.07,-0.43 0.1,-0.76 0.1,-1.03 0,-0.17 -0.03,-0.33 -0.11,-0.5 -0.09,-0.18 -0.2,-0.38 -0.32,-0.6 -0.2,-0.47 -0.42,-0.98 -0.67,-1.55 -0.23,-0.58 -0.5,-1.2 -0.8,-1.85 0.14,-0.13 0.32,-0.38 0.57,-0.74 0.23,-0.37 0.52,-0.84 0.85,-1.37z"/>
  <path id="_4" class="fil0" d="M220.14 82.51c0.54,0 0.94,0.3 1.16,0.9 0.23,0.6 0.35,1.49 0.35,2.62 0,0.75 -0.13,2.1 -0.38,4.03 -0.27,1.93 -0.63,4.46 -1.13,7.59l0.6 3.16c-0.27,0.75 -0.54,1.64 -0.79,2.65 -0.26,1 -0.48,2.12 -0.68,3.31 -0.27,1.37 -0.5,2.52 -0.7,3.47 -0.22,0.95 -0.42,1.71 -0.62,2.3 -0.26,1.01 -0.49,1.94 -0.7,2.81 -0.21,0.85 -0.36,1.72 -0.46,2.55 -0.23,2.06 -0.53,3.99 -0.9,5.84 -0.38,1.83 -0.87,3.6 -1.48,5.3 -0.43,1.23 -1.07,3.59 -1.93,7.07 -0.85,3.49 -1.95,8.06 -3.28,13.73 -0.59,2.53 -1.24,4.42 -1.95,5.71 -0.72,1.26 -1.48,1.9 -2.33,1.9 -0.42,0 -0.74,-0.11 -0.94,-0.3 -0.2,-0.19 -0.31,-0.54 -0.38,-1.02 -0.03,-0.17 -0.05,-0.35 -0.03,-0.53 0.01,-0.2 0.03,-0.77 0.03,-1.72 -0.03,-0.35 -0.13,-0.71 -0.3,-1.06l0.98 -3.82c-0.03,-0.41 -0.11,-0.86 -0.25,-1.36 0,-1.13 0.29,-3.43 0.85,-6.9 0.59,-3.46 1.4,-8.09 2.47,-13.92 0.4,-1.91 0.76,-4.01 1.13,-6.29 0,-0.38 -0.03,-0.67 -0.1,-0.82 -0.07,-0.16 -0.2,-0.25 -0.38,-0.25 -0.37,0.17 -0.74,0.34 -1.14,0.49l-1.21 -0.59c-0.2,0.07 -0.6,0.37 -1.2,0.9 -0.6,0.54 -1.05,0.8 -1.35,0.8 -0.61,0 -1.51,-0.1 -2.71,-0.31 -1.18,-0.2 -2.08,-0.32 -2.67,-0.32 -0.71,0 -1.48,0.2 -2.29,0.56 -0.82,0.37 -1.67,0.94 -2.55,1.69 -1.53,0.21 -2.88,0.58 -4.08,1.08 -1.18,0.52 -2.25,1.15 -3.15,1.93 -0.47,0.35 -0.95,0.73 -1.46,1.17 -0.27,0.21 -0.45,1.03 -0.57,2.41 -0.12,1.38 -0.18,3.26 -0.18,5.68 0,2.2 0.11,3.83 0.35,4.86 0.23,1.05 0.56,1.57 1.03,1.57 0.28,0 0.55,-0.07 0.78,-0.22 0.22,-0.15 0.5,-0.38 0.83,-0.7 0.19,-0.23 0.42,-0.47 0.69,-0.71 0.25,-0.26 0.46,-0.51 0.63,-0.75l0.38 -0.05c0.24,-0.04 0.4,0.03 0.52,0.18 0.11,0.17 0.18,0.41 0.18,0.73 -0.33,0.72 -0.65,1.37 -0.96,1.95 -0.3,0.6 -0.57,1.08 -0.8,1.46 -1.02,1.54 -2.02,3.05 -2.98,4.55 -0.6,0.77 -1.3,1.38 -2.12,1.8 -0.82,0.41 -1.75,0.63 -2.83,0.63 -0.88,0 -1.55,-1.18 -1.98,-3.56 -0.45,-2.37 -0.67,-5.91 -0.67,-10.63 0,-1.81 -0.11,-3.39 -0.35,-4.74 -0.21,-1.35 -0.6,-2.52 -1.11,-3.5 -0.5,-0.85 -0.85,-1.58 -1.03,-2.23 -0.2,-0.66 -0.3,-1.21 -0.3,-1.66 0,-0.37 0.08,-0.77 0.26,-1.22 0.19,-0.47 0.45,-0.92 0.8,-1.36 0.43,-0.52 0.77,-0.95 1,-1.3 0.25,-0.34 0.38,-0.62 0.42,-0.85 0.2,-0.52 0.38,-1.2 0.56,-2.05 0.19,-0.85 0.39,-1.82 0.6,-2.93 0.2,-0.75 0.39,-1.8 0.55,-3.17 0.15,-1.36 0.27,-2.99 0.33,-4.92 0.17,-3.63 0.5,-6.4 1.04,-8.28 0.51,-1.9 0.73,-3.01 0.63,-3.36l-0.3 -1.24c0.07,-0.68 0.17,-1.54 0.3,-2.63 0.13,-1.06 0.3,-2.29 0.53,-3.69 0.29,-0.2 0.62,-0.49 0.97,-0.85 0.36,-0.38 0.73,-0.85 1.13,-1.4 2.23,-0.85 3.46,-1.27 3.65,-1.27 1.18,0 2.05,0.32 2.63,0.94 0.58,0.61 0.88,1.48 0.88,2.63 0,0.31 -0.08,0.78 -0.27,1.36 -0.18,0.58 -0.4,1.32 -0.66,2.2 -0.29,0.75 -0.6,2.13 -0.95,4.15 -0.33,2.01 -0.72,4.59 -1.15,7.74 -0.28,2.28 -0.6,4.43 -0.95,6.43 -0.33,2 -0.73,3.84 -1.18,5.58 -0.07,0.23 -0.12,0.49 -0.15,0.83 0,0.48 0.08,0.83 0.23,1.05 0.17,0.2 0.42,0.31 0.73,0.31 1.22,-0.1 2.3,-0.2 3.28,-0.3 0.32,0 1.45,-0.35 3.37,-1.06l3.76 0c0.52,0 1.28,-0.05 2.28,-0.17 0.99,-0.12 1.74,-0.17 2.22,-0.17 0.46,0 1.15,0.1 2.08,0.32 0.93,0.2 1.65,0.32 2.18,0.32 0.38,0 0.88,-0.07 1.52,-0.2 0.61,-0.14 1.36,-0.37 2.24,-0.69 0.42,0 0.79,-0.05 1.07,-0.15 0.3,-0.09 0.45,-0.24 0.45,-0.43 0.15,-0.43 0.35,-0.95 0.55,-1.56 0.22,-0.62 0.43,-1.34 0.66,-2.15 0.07,-0.75 0.15,-1.65 0.27,-2.7 0.12,-1.05 0.27,-2.26 0.47,-3.66 0.45,-2.62 0.78,-4.75 1,-6.41 0.21,-1.67 0.31,-2.83 0.31,-3.52 0,-0.26 -0.03,-0.5 -0.1,-0.73 -0.05,-0.23 -0.16,-0.42 -0.33,-0.55 -0.27,-0.28 -0.55,-0.65 -0.88,-1.06 0.23,-0.65 0.46,-1.17 0.73,-1.52 0.75,-1.15 1.38,-2.1 1.91,-2.86 0.52,-0.77 0.94,-1.32 1.27,-1.64 0.52,-0.55 1.15,-1.09 1.88,-1.64 0.73,-0.54 1.6,-1.07 2.62,-1.59z"/>
  <path id="_5" class="fil0" d="M220.24 136.16c0.23,-0.23 0.46,-0.51 0.71,-0.89 0.23,-0.37 0.52,-0.79 0.85,-1.24l3.76 -2.56c0.47,-0.55 1.17,-1.25 2.12,-2.1 0.95,-0.85 2.11,-1.9 3.51,-3.11 0.17,-0.37 0.43,-0.79 0.82,-1.25 0.36,-0.47 0.81,-0.93 1.33,-1.4 0.45,-0.42 0.92,-0.82 1.37,-1.18 0.45,-0.39 0.88,-0.75 1.26,-1.1 0.48,-0.5 0.95,-0.98 1.38,-1.47 0.45,-0.48 0.88,-0.96 1.35,-1.41 0.52,-0.45 1.05,-0.82 1.6,-1.08 0.55,-0.25 1.17,-0.39 1.81,-0.39 0.72,0 1.25,0.09 1.64,0.27 0.36,0.18 0.56,0.43 0.6,0.75 -0.32,0.75 -0.67,1.5 -1.02,2.25l0.28 0.45c1.44,-0.57 2.55,-0.97 3.37,-1.24 0.81,-0.25 1.33,-0.38 1.56,-0.38 2.37,0 4.15,0.72 5.33,2.17 1.18,1.44 1.78,3.64 1.78,6.56 0,0.56 -0.06,1.21 -0.2,1.96 -0.13,0.73 -0.33,1.55 -0.63,2.43 -0.32,0.98 -0.67,1.78 -1.05,2.43 -0.37,0.67 -0.72,1.13 -1.05,1.42 0.14,0.36 0.28,0.65 0.45,0.83 0.15,0.17 0.37,0.27 0.63,0.27 0.25,0 0.52,-0.09 0.8,-0.25 0.29,-0.17 0.62,-0.4 1,-0.74 0.33,0.72 0.65,1.47 0.95,2.24 0.32,0.76 0.63,1.51 0.95,2.26 -0.58,0.52 -1.15,1.03 -1.7,1.53 -0.56,0.48 -1.15,0.97 -1.76,1.42 -0.75,0.63 -1.45,1.08 -2.12,1.35 -0.66,0.28 -1.31,0.41 -1.96,0.41 -0.75,0 -1.37,-0.16 -1.87,-0.53 -0.48,-0.37 -0.86,-0.87 -1.16,-1.53 -0.82,1.08 -1.8,2.08 -2.95,2.98 -1.15,0.9 -2.43,1.65 -3.81,2.23 -0.82,0.4 -1.57,0.7 -2.23,0.92 -0.67,0.21 -1.27,0.31 -1.82,0.31 -0.17,0 -0.48,0.07 -0.95,0.2 -0.48,0.14 -0.86,0.2 -1.15,0.2 -1.85,0 -3.53,-0.78 -5.01,-2.36 -1.5,-1.57 -2.25,-3.33 -2.25,-5.26 0,-0.79 0.19,-1.82 0.54,-3.12 0.36,-1.28 0.55,-2.03 0.55,-2.26 0,-0.24 -0.09,-0.42 -0.24,-0.57 -0.13,-0.13 -0.35,-0.22 -0.6,-0.22 -0.16,0 -0.55,0.25 -1.18,0.74 -0.62,0.48 -1.48,1.18 -2.61,2.1 -0.1,0.13 -0.22,0.33 -0.35,0.58 -0.14,0.26 -0.34,0.55 -0.64,0.88 -0.26,-0.75 -0.56,-1.5 -0.9,-2.26 -0.33,-0.77 -0.69,-1.52 -1.09,-2.24zm23.47 -8.84c-0.16,0.04 -0.4,0.2 -0.7,0.52 -0.31,0.3 -0.61,0.68 -0.9,1.15 -0.46,0.73 -0.98,1.55 -1.56,2.43 -0.37,0.4 -0.73,0.7 -1.15,0.9 -0.4,0.21 -0.87,0.36 -1.38,0.46 -0.33,0.04 -0.67,0.35 -1.03,0.95 -0.35,0.6 -0.7,1.49 -1.07,2.62 -0.35,1.01 -0.62,1.86 -0.78,2.58 -0.17,0.71 -0.24,1.31 -0.24,1.81 0,0.9 0.22,1.59 0.69,2.05 0.45,0.45 1.15,0.68 2.08,0.68 1.5,0 2.86,-0.41 4.13,-1.24 1.25,-0.84 2.41,-2.09 3.53,-3.73 0.51,-0.62 1,-1.2 1.45,-1.77 0.26,-0.18 0.48,-0.5 0.63,-0.95 0.17,-0.43 0.33,-0.98 0.5,-1.63l0.87 -2.78c-0.29,-0.97 -0.57,-1.75 -0.82,-2.32 -0.27,-0.56 -0.53,-0.91 -0.78,-1.04 -0.17,-0.11 -0.52,-0.2 -1.09,-0.32 -0.54,-0.12 -1.34,-0.23 -2.38,-0.37z"/>
  <path id="_6" class="fil0" d="M255.5 136.16l0.3 -0.33c0.13,-0.47 0.42,-0.95 0.85,-1.46 0.45,-0.52 1.07,-1.05 1.9,-1.57 1.06,-0.68 1.91,-1.23 2.51,-1.65 0.6,-0.43 0.99,-0.73 1.1,-0.93 0.3,-0.35 0.5,-0.63 0.6,-0.83 0.35,-0.25 0.8,-0.6 1.32,-1.07 0.53,-0.45 1.11,-1 1.76,-1.65 0.24,-0.16 0.48,-0.43 0.73,-0.78 0.27,-0.35 0.54,-0.77 0.79,-1.21 0.43,-0.3 0.91,-0.67 1.45,-1.12 0.53,-0.47 1.16,-1.05 1.88,-1.77 0.81,-0.86 1.73,-1.83 2.76,-2.89 1.02,-1.05 2.17,-2.15 3.43,-3.28 0.44,-0.2 0.83,-0.35 1.2,-0.47 0.38,-0.12 0.75,-0.17 1.1,-0.17 1.47,0 2.56,0.35 3.3,1.05 0.73,0.7 1.1,1.7 1.1,3 0,0.33 -0.05,0.87 -0.17,1.62 -0.12,0.74 -0.23,1.68 -0.37,2.83 -0.45,3.28 -0.78,5.27 -0.98,5.99 -0.18,0.72 -0.88,2.95 -2.05,6.73 -0.26,0.61 -0.53,1.38 -0.8,2.28 -0.28,0.91 -0.61,2.01 -1,3.31 0.05,0.14 0.22,0.27 0.49,0.4 0.23,0 0.63,-0.21 1.21,-0.66 0.59,-0.44 1.37,-1.1 2.35,-1.99 1.15,-1.04 2.03,-1.84 2.7,-2.39 0.65,-0.57 1.05,-0.89 1.21,-0.99 0.39,0.89 0.75,1.69 1.07,2.42 0.33,0.73 0.6,1.43 0.83,2.08 -0.41,0.27 -0.8,0.55 -1.15,0.88 -0.33,0.32 -0.66,0.69 -0.95,1.07 -0.68,0.46 -1.48,0.98 -2.36,1.56 -0.9,0.59 -1.88,1.22 -2.96,1.9 -0.49,0.5 -1.15,1.08 -1.99,1.8 -0.81,0.7 -1.76,1.48 -2.79,2.37l-0.94 0.18c-0.45,0.63 -0.88,1.1 -1.3,1.41 -0.4,0.34 -0.76,0.57 -1.09,0.7 -0.52,0.19 -1.04,0.37 -1.57,0.55 -0.52,0.19 -1.07,0.37 -1.65,0.57 -0.36,-0.1 -0.61,-0.32 -0.78,-0.63 -0.17,-0.34 -0.23,-0.75 -0.2,-1.27 -0.48,-0.88 -0.88,-1.88 -1.17,-3.03 -0.3,-1.13 -0.45,-2.4 -0.45,-3.8 0,-0.26 0.02,-0.53 0.05,-0.83 0.04,-0.3 0.07,-0.55 0.1,-0.78 -0.23,-0.85 -0.33,-1.35 -0.33,-1.52 0,-0.96 0.37,-1.76 1.12,-2.41 0.75,-0.63 1.6,-0.95 2.54,-0.95 0.49,0 0.84,0.27 1.05,0.77 0.2,0.49 0.44,0.74 0.65,0.74 0.24,0 0.47,-0.45 0.72,-1.33 0.23,-0.9 0.47,-2.21 0.7,-3.93 0.23,-1.5 0.38,-2.79 0.45,-3.89 0.05,-1.12 0.08,-1.95 0.08,-2.55 0,-0.42 -0.08,-0.73 -0.26,-0.95 -0.17,-0.2 -0.49,-0.32 -0.9,-0.32 -0.42,0 -1.79,0.99 -4.1,2.93 -2.31,1.95 -5.55,4.85 -9.67,8.71 -0.14,0.24 -0.32,0.5 -0.57,0.84 -0.23,0.31 -0.52,0.73 -0.85,1.21 -0.13,-0.48 -0.37,-1.1 -0.7,-1.81 -0.33,-0.72 -0.76,-1.6 -1.3,-2.69z"/>
  <path id="_7" class="fil0" d="M286.04 136.16l0.3 -0.33c0.13,-0.47 0.42,-0.95 0.85,-1.46 0.45,-0.52 1.07,-1.05 1.9,-1.57 1.06,-0.68 1.91,-1.23 2.51,-1.65 0.6,-0.43 0.98,-0.73 1.1,-0.93 0.3,-0.35 0.5,-0.63 0.6,-0.83 0.35,-0.25 0.8,-0.6 1.32,-1.07 0.53,-0.45 1.11,-1 1.76,-1.65 0.23,-0.16 0.48,-0.43 0.73,-0.78 0.27,-0.35 0.54,-0.77 0.79,-1.21 0.43,-0.3 0.91,-0.67 1.44,-1.12 0.54,-0.47 1.17,-1.05 1.89,-1.77 0.81,-0.86 1.73,-1.83 2.76,-2.89 1.02,-1.05 2.16,-2.15 3.43,-3.28 0.43,-0.2 0.83,-0.35 1.2,-0.47 0.38,-0.12 0.75,-0.17 1.1,-0.17 1.46,0 2.56,0.35 3.3,1.05 0.73,0.7 1.09,1.7 1.09,3 0,0.33 -0.05,0.87 -0.16,1.62 -0.12,0.74 -0.24,1.68 -0.37,2.83 -0.45,3.28 -0.78,5.27 -0.98,5.99 -0.18,0.72 -0.88,2.95 -2.05,6.73 -0.27,0.61 -0.53,1.38 -0.8,2.28 -0.28,0.91 -0.61,2.01 -1,3.31 0.05,0.14 0.22,0.27 0.49,0.4 0.23,0 0.63,-0.21 1.21,-0.66 0.58,-0.44 1.37,-1.1 2.35,-1.99 1.15,-1.04 2.03,-1.84 2.7,-2.39 0.65,-0.57 1.05,-0.89 1.21,-0.99 0.38,0.89 0.75,1.69 1.07,2.42 0.33,0.73 0.6,1.43 0.83,2.08 -0.42,0.27 -0.8,0.55 -1.15,0.88 -0.33,0.32 -0.67,0.69 -0.95,1.07 -0.68,0.46 -1.48,0.98 -2.36,1.56 -0.9,0.59 -1.88,1.22 -2.97,1.9 -0.48,0.5 -1.15,1.08 -1.98,1.8 -0.81,0.7 -1.76,1.48 -2.8,2.37l-0.93 0.18c-0.45,0.63 -0.88,1.1 -1.3,1.41 -0.4,0.34 -0.76,0.57 -1.1,0.7 -0.51,0.19 -1.03,0.37 -1.56,0.55 -0.52,0.19 -1.07,0.37 -1.65,0.57 -0.37,-0.1 -0.62,-0.32 -0.78,-0.63 -0.17,-0.34 -0.24,-0.75 -0.2,-1.27 -0.49,-0.88 -0.88,-1.88 -1.17,-3.03 -0.3,-1.13 -0.45,-2.4 -0.45,-3.8 0,-0.26 0.02,-0.53 0.05,-0.83 0.04,-0.3 0.07,-0.55 0.1,-0.78 -0.23,-0.85 -0.33,-1.35 -0.33,-1.52 0,-0.96 0.37,-1.76 1.12,-2.41 0.74,-0.63 1.59,-0.95 2.54,-0.95 0.49,0 0.84,0.27 1.05,0.77 0.2,0.49 0.44,0.74 0.65,0.74 0.23,0 0.47,-0.45 0.72,-1.33 0.23,-0.9 0.46,-2.21 0.7,-3.93 0.23,-1.5 0.38,-2.79 0.45,-3.89 0.05,-1.12 0.08,-1.95 0.08,-2.55 0,-0.42 -0.08,-0.73 -0.27,-0.95 -0.16,-0.2 -0.48,-0.32 -0.9,-0.32 -0.41,0 -1.78,0.99 -4.09,2.93 -2.32,1.95 -5.55,4.85 -9.68,8.71 -0.13,0.24 -0.31,0.5 -0.56,0.84 -0.24,0.31 -0.52,0.73 -0.85,1.21 -0.14,-0.48 -0.37,-1.1 -0.7,-1.81 -0.33,-0.72 -0.77,-1.6 -1.3,-2.69z"/>
  <path id="_8" class="fil0" d="M316.58 136.16c0.4,-0.66 0.9,-1.34 1.53,-2.03 0.62,-0.7 1.42,-1.4 2.37,-2.13 0.1,-0.65 0.19,-1.3 0.29,-1.93 0.09,-0.63 0.15,-1.28 0.19,-1.93 0.1,-0.45 0.25,-0.98 0.46,-1.6 0.22,-0.62 0.45,-1.28 0.7,-2 0.3,-0.71 0.7,-1.61 1.2,-2.68 0.5,-1.08 1.17,-2.28 1.98,-3.61 0.69,-0.75 1.39,-1.57 2.13,-2.47 0.75,-0.88 1.5,-1.79 2.25,-2.69 0.35,-0.3 0.75,-0.57 1.17,-0.84 0.41,-0.26 0.85,-0.55 1.26,-0.88 0.39,-0.13 0.84,-0.23 1.32,-0.33 0.48,-0.1 1.02,-0.15 1.61,-0.15 0.8,0 1.47,0.08 1.97,0.25 0.5,0.15 0.92,0.43 1.25,0.81 0.21,0.27 0.43,0.65 0.65,1.19 0.21,0.51 0.41,1.15 0.61,1.89 0.09,0.65 0.2,1.37 0.34,2.15 0,-0.2 -0.05,-0.11 -0.17,0.23 -0.12,0.37 -0.28,0.94 -0.52,1.72l-0.43 1.55c-0.46,1.56 -1.48,3.36 -3.06,5.41 -1.6,2.05 -3.75,4.4 -6.45,7.03 -0.21,0.23 -0.41,0.51 -0.58,0.85 -0.15,0.35 -0.23,0.71 -0.23,1.1 0,0.68 0.11,1.28 0.36,1.79 0.25,0.54 0.6,0.92 1.05,1.19 0.27,0.18 0.69,0.38 1.25,0.58 0.58,0.18 1.25,0.37 2.03,0.53 1.29,-0.1 2.45,-0.31 3.48,-0.63 1.05,-0.33 1.99,-0.73 2.8,-1.2 0.17,-0.1 0.43,-0.25 0.78,-0.43 0.37,-0.19 0.72,-0.44 1.09,-0.74 0.41,0.95 0.79,1.8 1.11,2.55 0.33,0.75 0.58,1.4 0.78,1.95 -1.84,1.83 -3.54,3.23 -5.06,4.16 -1.51,0.94 -2.9,1.4 -4.18,1.4 -0.51,0.33 -1.11,0.57 -1.78,0.72 -0.67,0.15 -1.45,0.21 -2.36,0.21 -1.2,0 -2.27,-0.18 -3.2,-0.53 -0.93,-0.36 -1.7,-0.9 -2.33,-1.58 -0.32,-0.33 -0.65,-0.82 -0.97,-1.45 -0.33,-0.65 -0.66,-1.4 -1.03,-2.3 -0.28,-0.71 -0.57,-1.25 -0.83,-1.58 -0.25,-0.35 -0.55,-0.51 -0.89,-0.51 -0.24,0 -0.54,0.11 -0.86,0.36 -0.33,0.25 -0.68,0.62 -1.08,1.1 -0.14,-0.48 -0.37,-1.1 -0.7,-1.81 -0.34,-0.72 -0.77,-1.6 -1.3,-2.69zm15.6 -15.78c-0.72,0 -1.68,0.93 -2.9,2.81 -1.21,1.89 -1.81,3.27 -1.81,4.15 0,0.18 0.03,0.33 0.11,0.42 0.09,0.08 0.27,0.11 0.52,0.11 0.37,0 0.67,-0.18 0.88,-0.56 0.24,-0.37 0.45,-0.72 0.65,-1.05 0.35,-0.34 0.7,-0.69 1.05,-1.05 0.35,-0.38 0.69,-0.75 1,-1.12 0.4,-0.45 0.7,-0.9 0.88,-1.36 0.2,-0.45 0.3,-0.92 0.3,-1.37 0,-0.3 -0.05,-0.53 -0.16,-0.71 -0.12,-0.19 -0.29,-0.27 -0.52,-0.27z"/>
  <path id="_9" class="fil0" d="M341.12 136.16l0.3 -0.33 0.14 -0.5c0.88,-1.2 2.43,-2.76 4.64,-4.69 2.22,-1.94 3.73,-3.5 4.58,-4.7 0.33,-0.52 0.7,-0.9 1.13,-1.13 0.42,-0.22 0.84,-0.33 1.27,-0.33 1.13,0 2.1,0.28 2.88,0.84 0.78,0.57 1.3,1.44 1.55,2.57 0.23,1.01 0.45,2.03 0.63,3.05 0.2,1.03 0.37,2.06 0.5,3.09 0.22,0.65 0.5,1.63 0.82,2.95 0.33,1.32 0.56,2.07 0.73,2.26 0.15,0.32 0.4,0.55 0.71,0.7 0.34,0.15 0.74,0.22 1.22,0.22 0.58,0 1.18,-0.1 1.8,-0.32 0.6,-0.2 1.23,-0.56 1.88,-1.09 0.48,-0.42 1,-0.85 1.53,-1.29 0.53,-0.45 1.05,-0.88 1.57,-1.3l1.99 4.5c-0.51,0.52 -1.21,1.12 -2.06,1.78 -0.87,0.67 -1.9,1.45 -3.1,2.33 -1.33,0.97 -2.46,1.7 -3.39,2.17 -0.95,0.48 -1.65,0.71 -2.15,0.71 -2.95,0 -4.86,-0.35 -5.75,-1.03 -0.86,-0.68 -1.85,-2.58 -2.91,-5.69 -0.13,-0.29 -0.32,-0.59 -0.58,-0.95 -0.25,-0.35 -0.55,-0.78 -0.87,-1.27 -0.4,-0.75 -0.73,-1.31 -1.03,-1.68 -0.28,-0.38 -0.53,-0.57 -0.73,-0.57 -0.52,0 -1.22,0.35 -2.09,1.05 -0.88,0.7 -1.94,1.75 -3.21,3.15 -0.17,-0.42 -0.37,-0.93 -0.62,-1.51 -0.24,-0.59 -0.51,-1.27 -0.78,-2.05 -0.06,-0.2 -0.15,-0.39 -0.25,-0.55 -0.1,-0.15 -0.21,-0.29 -0.35,-0.39zm20.33 -38.46c0.82,0 1.42,0.17 1.79,0.48 0.38,0.34 0.56,0.8 0.56,1.42 -0.2,0.91 -0.36,1.68 -0.48,2.3 -0.33,1.16 -0.62,2.13 -0.87,2.88 -0.23,0.75 -0.41,1.28 -0.55,1.61 -0.3,0.7 -0.7,1.33 -1.2,1.87 -0.5,0.53 -1.11,1.01 -1.83,1.45 -0.75,0.51 -1.36,0.88 -1.88,1.09 -0.5,0.2 -0.85,0.3 -1.05,0.27 -0.55,-0.07 -1.08,-0.13 -1.58,-0.18 -0.5,-0.03 -1,-0.07 -1.48,-0.07 -0.43,-0.23 -0.77,-0.66 -1,-1.31 -0.25,-0.65 -0.37,-1.54 -0.37,-2.64 0,-0.98 0.59,-2.21 1.78,-3.67 1.19,-1.49 2.24,-2.29 3.15,-2.39 0.55,-0.68 1.2,-1.44 1.95,-2.33 0.32,-0.23 0.75,-0.41 1.27,-0.56 0.51,-0.15 1.11,-0.22 1.79,-0.22z"/>
  <path id="_10" class="fil0" d="M369.03 136.16c0.13,-0.23 0.3,-0.48 0.52,-0.74 0.21,-0.29 0.46,-0.62 0.74,-1 0.34,-0.25 0.75,-0.64 1.29,-1.12 0.51,-0.48 1.1,-1.05 1.75,-1.7 0.58,-0.65 1.31,-1.45 2.14,-2.4 0.85,-0.96 1.89,-2.11 3.08,-3.48 0.54,-0.55 1.19,-1.24 1.97,-2.09 0.78,-0.87 1.7,-1.9 2.78,-3.1 0.92,-1.07 1.88,-1.85 2.93,-2.37 1.05,-0.51 2.15,-0.78 3.33,-0.78 1.17,0 2.03,0.37 2.58,1.1 0.55,0.73 0.83,1.78 0.83,3.18 0,0.75 -0.28,2.18 -0.83,4.28 -0.55,2.11 -1.41,4.9 -2.58,8.38 -0.3,0.65 -0.58,1.26 -0.83,1.84 -0.2,0.42 -0.34,0.8 -0.4,1.12 -0.07,0.33 -0.09,0.58 -0.09,0.73 0,0.2 0.11,0.45 0.34,0.74 0.17,-0.1 0.31,-0.22 0.46,-0.39 0.15,-0.16 0.32,-0.36 0.52,-0.58 0.25,-0.5 0.65,-1 1.18,-1.55 0.55,-0.53 1.19,-1.13 1.93,-1.78 0.3,-0.55 0.67,-1.1 1.15,-1.63 0.47,-0.53 1,-1.04 1.59,-1.48 0.13,-0.14 0.29,-0.35 0.51,-0.64 0.2,-0.3 0.45,-0.6 0.75,-0.93 0.42,-0.42 0.93,-0.87 1.52,-1.32 0.58,-0.44 1.26,-0.93 2.04,-1.41 0.87,-0.45 1.67,-0.82 2.37,-1.08 0.7,-0.25 1.3,-0.39 1.83,-0.39 1,0 1.9,0.25 2.68,0.74 0.77,0.48 1.43,1.25 2,2.28 0.65,2.01 1.26,3.88 1.85,5.59 0.35,1.02 0.75,1.77 1.2,2.25 0.43,0.48 0.93,0.73 1.48,0.73 0.41,0 0.78,-0.08 1.11,-0.25 0.34,-0.16 0.65,-0.41 0.94,-0.75l1.99 4.5c-0.55,0.45 -1.11,0.93 -1.69,1.42 -0.6,0.49 -1.17,0.96 -1.72,1.41 -0.75,0.68 -1.45,1.17 -2.1,1.45 -0.65,0.28 -1.3,0.42 -1.95,0.42 -0.74,0 -1.46,-0.17 -2.14,-0.49 -0.69,-0.33 -1.27,-0.81 -1.75,-1.46 -0.27,-0.25 -0.58,-0.74 -0.98,-1.43 -0.39,-0.7 -0.84,-1.57 -1.37,-2.62 -0.42,-0.41 -0.9,-0.96 -1.43,-1.66 -0.53,-0.7 -1.17,-1.52 -1.88,-2.47l-0.44 -0.15c-0.61,0.2 -1.23,0.5 -1.83,0.88 -0.6,0.39 -1.25,0.9 -1.91,1.52 -1.47,1.3 -2.53,2.1 -3.18,2.43 -0.65,0.32 -1.09,0.7 -1.32,1.12 -0.45,0.78 -1.23,1.79 -2.33,3.03 -1.1,1.23 -2.48,2.69 -4.15,4.38 -0.41,0.43 -0.83,0.83 -1.26,1.25 -0.42,0.4 -0.85,0.79 -1.27,1.19 -0.41,0.35 -0.9,0.6 -1.43,0.75 -0.53,0.15 -1.13,0.22 -1.78,0.22 -1.3,0 -2.02,-0.45 -2.11,-1.35 -0.12,-0.9 -0.24,-1.8 -0.34,-2.71 0.5,-1.37 1.05,-3.07 1.67,-5.13 0.61,-2.05 1.33,-4.43 2.13,-7.18 0,-0.15 0.06,-0.36 0.18,-0.65 0.1,-0.28 0.25,-0.65 0.4,-1.1 0.17,-0.41 0.28,-0.78 0.35,-1.1 0.07,-0.3 0.1,-0.58 0.1,-0.79 0,-0.24 -0.08,-0.42 -0.25,-0.55 -0.17,-0.12 -0.42,-0.19 -0.78,-0.19 -0.32,0 -0.75,0.19 -1.28,0.59 -0.55,0.38 -1.19,0.99 -1.94,1.84 -0.91,0.99 -1.64,1.75 -2.19,2.3 -0.55,0.55 -0.94,0.88 -1.12,0.98 -0.33,0.22 -0.72,0.55 -1.15,0.97 -0.43,0.43 -0.93,0.9 -1.48,1.42 -0.07,0.13 -0.17,0.33 -0.3,0.58 -0.13,0.26 -0.33,0.55 -0.63,0.88 -0.14,-0.48 -0.37,-1.1 -0.7,-1.81 -0.34,-0.72 -0.77,-1.6 -1.3,-2.69z"/>
  <path id="_11" class="fil0" d="M415.67 136.16l0.3 -0.33 0.13 -0.5c0.88,-1.2 2.43,-2.76 4.65,-4.69 2.21,-1.94 3.73,-3.5 4.58,-4.7 0.33,-0.52 0.7,-0.9 1.13,-1.13 0.42,-0.22 0.83,-0.33 1.26,-0.33 1.14,0 2.1,0.28 2.89,0.84 0.78,0.57 1.29,1.44 1.54,2.57 0.24,1.01 0.45,2.03 0.64,3.05 0.2,1.03 0.36,2.06 0.5,3.09 0.21,0.65 0.5,1.63 0.81,2.95 0.33,1.32 0.57,2.07 0.73,2.26 0.15,0.32 0.4,0.55 0.72,0.7 0.33,0.15 0.73,0.22 1.22,0.22 0.58,0 1.18,-0.1 1.79,-0.32 0.6,-0.2 1.24,-0.56 1.89,-1.09 0.48,-0.42 1,-0.85 1.53,-1.29 0.53,-0.45 1.05,-0.88 1.56,-1.3l2 4.5c-0.51,0.52 -1.21,1.12 -2.06,1.78 -0.87,0.67 -1.9,1.45 -3.1,2.33 -1.33,0.97 -2.46,1.7 -3.4,2.17 -0.95,0.48 -1.65,0.71 -2.15,0.71 -2.94,0 -4.86,-0.35 -5.74,-1.03 -0.87,-0.68 -1.85,-2.58 -2.91,-5.69 -0.14,-0.29 -0.32,-0.59 -0.59,-0.95 -0.25,-0.35 -0.55,-0.78 -0.86,-1.27 -0.4,-0.75 -0.73,-1.31 -1.03,-1.68 -0.29,-0.38 -0.54,-0.57 -0.74,-0.57 -0.51,0 -1.21,0.35 -2.08,1.05 -0.88,0.7 -1.95,1.75 -3.21,3.15 -0.17,-0.42 -0.37,-0.93 -0.62,-1.51 -0.25,-0.59 -0.51,-1.27 -0.78,-2.05 -0.07,-0.2 -0.15,-0.39 -0.25,-0.55 -0.1,-0.15 -0.22,-0.29 -0.35,-0.39zm20.33 -38.46c0.82,0 1.42,0.17 1.78,0.48 0.38,0.34 0.57,0.8 0.57,1.42 -0.2,0.91 -0.37,1.68 -0.49,2.3 -0.33,1.16 -0.61,2.13 -0.86,2.88 -0.23,0.75 -0.42,1.28 -0.55,1.61 -0.3,0.7 -0.7,1.33 -1.2,1.87 -0.5,0.53 -1.12,1.01 -1.83,1.45 -0.75,0.51 -1.37,0.88 -1.88,1.09 -0.5,0.2 -0.85,0.3 -1.05,0.27 -0.55,-0.07 -1.08,-0.13 -1.58,-0.18 -0.5,-0.03 -1,-0.07 -1.49,-0.07 -0.43,-0.23 -0.76,-0.66 -0.99,-1.31 -0.25,-0.65 -0.37,-1.54 -0.37,-2.64 0,-0.98 0.58,-2.21 1.78,-3.67 1.18,-1.49 2.23,-2.29 3.15,-2.39 0.55,-0.68 1.2,-1.44 1.95,-2.33 0.31,-0.23 0.75,-0.41 1.26,-0.56 0.52,-0.15 1.12,-0.22 1.8,-0.22z"/>
 </g>
</svg>
