<?xml version="1.0" encoding="UTF-8"?>
<!DOCTYPE svg PUBLIC "-//W3C//DTD SVG 1.1//EN" "http://www.w3.org/Graphics/SVG/1.1/DTD/svg11.dtd">
<!-- Creator: CorelDRAW -->
<svg xmlns="http://www.w3.org/2000/svg" xml:space="preserve" width="4724px" height="1181px" version="1.1" style="shape-rendering:geometricPrecision; text-rendering:geometricPrecision; image-rendering:optimizeQuality; fill-rule:evenodd; clip-rule:evenodd"
viewBox="0 0 4724 1181"
 xmlns:xlink="http://www.w3.org/1999/xlink"
 xmlns:xodm="http://www.corel.com/coreldraw/odm/2003">
 <defs>
  <style type="text/css">
   <![CDATA[
    .fil0 {fill:black}
   ]]>
  </style>
 </defs>
 <g id="Layer_x0020_1">
  <metadata id="CorelCorpID_0Corel-Layer"/>
  <g id="_2080727966688">
   <path class="fil0" d="M94.32 452.39c0.64,-1.31 2.46,-2.06 1.87,-3.96 -0.59,-1.86 1.31,-3.12 1.5,-4.02l3.4 -22.25c0.23,-1.19 0.83,-3.28 1.32,-4.89l43.11 132.59c-31.02,-29.67 -37.59,-63.19 -51.2,-97.47zm1085.21 729.06l-1180.32 0 0 -477.26c15.66,5.17 -0.76,3.61 6.17,-20.47 7.73,-1.1 8.85,5.82 20.25,1.14l-26.42 -93.22 0 -46.42c7.07,9.99 9.78,27.47 16.6,42.05 7.21,-9.13 12.42,-18.81 16.11,-30.54 24.12,66.03 -1.15,58.98 60,123.45 11.46,-28.89 -2.54,-29.93 -25.1,-39.37 18.1,-28.13 8.87,-13.33 7.37,-44.38 -1.51,-31.02 2.35,-59.56 -10.06,-93.18 -8.26,-22.41 -4.02,-35.94 -19.12,-53.46l-4.3 34.72c-2.07,-7.46 -3.18,-22.72 -5.11,-30.94 -10.23,-43.59 -23.79,-14.42 0.72,-52.14l58 50.96c-14.73,-42.26 0.09,-67.75 -20.62,-122.23l-8.78 -61.15c1.41,-18.15 -2.05,-39.75 2.36,-57.42 5.16,-20.73 11.95,3.3 -6.24,-60.14 -8.86,-30.91 -29.14,-98.65 -11.82,-122.46l26.22 138.88c8.18,27.36 28.02,54.89 16.71,95.58 -3.49,12.55 -9.87,16.56 -12.27,30.1 -5.19,29.15 56.32,176.04 77.02,213.83 17.03,31.09 9.56,38.79 22.96,69.68 3.03,-21.29 -6.35,-60.44 -10.8,-82.77 -5.28,-26.5 -9.45,-7.42 1.54,-27.2 17.81,9.96 10.01,28.13 20.48,50.77 -1.22,-19.63 -6.22,-55.3 2.37,-71.45l11.27 64.29c24.58,-30.96 14.9,-4.32 10.96,-33.51 -2.81,-20.93 -8.44,-22.52 2.14,-42.35 3.58,14.11 2.84,10.16 4.18,27.19 3.61,45.98 28.84,50.69 -14.27,71.19 3.91,34.13 -6.53,53.06 24.19,67.09 10.43,-16.42 5.22,-23.18 17.41,-43.66 5.62,-9.43 5.21,-9.68 10.85,-20.57 8.01,44.32 1.7,26.96 29.72,70.35 13.19,-8.82 36.06,-49.24 38.03,-63.89 2.61,-19.4 -17.35,-58.09 -16.11,-83.94l41.61 102.5 17.41 -36.49c2.09,34.28 -16.32,53.72 -1.73,79.45l15.47 -27.38 0.98 39.28c1.76,-0.2 4.06,-0.38 3.78,-1.48l5.61 -2.2c16.94,-1.73 -7.15,-11.98 4.9,1.15 12.21,13.3 -20.47,-5.74 8.08,17.62 19.07,-22.17 25.02,-36.51 41.17,-46.12 0.82,0.3 2.49,2.05 2.22,1.37 -0.26,-0.64 1.96,1.06 2.17,1.11 5.72,1.29 -4.35,16.4 5.66,-0.69l0.7 -3.84c3.25,-19.87 17.09,-50 33,-64.33 48.67,-18.28 -30.99,5.21 10.84,-1.06l27.71 -9.84c-22.63,28.62 -40.45,73.79 -61.04,92.39 57.45,-5.24 52.1,-39.77 95.06,-66.12 23.88,-14.65 8.29,-2.39 22.75,-7.82 14.13,-5.32 9.59,-2.72 24.08,-13.51 -7.89,14.26 -25.32,35.34 -40.56,46.97 -4.68,3.58 -8.84,5.7 -10.61,7.03l-15.77 14.07c-20.14,2.76 8.67,4.12 -3.6,-1.21 -0.32,-0.14 -1.91,-1.44 -2.19,-1.6 -0.31,-0.18 -1.42,-1.48 -2.3,-1.98 -14.53,13.97 -33.21,31.08 -35.92,50.7 22.95,-2.68 39.31,-23.18 64.53,-40.92 29.98,-21.08 41.83,-35.55 53.39,-62.11l8.42 13.92c11.2,-13.05 61.88,-63.4 79.25,-72.57 -12.75,13.67 -22.02,25.49 -33.65,41.58 -37.57,51.97 -58.76,26.68 -95.97,132.89 28.81,-17.08 3.31,-18.09 41.75,-31.86 -1.37,22.31 -11.21,32.17 -5.36,52.3 9.02,-8.61 26.79,-32.93 33.46,-37.38 11.81,-7.89 15.04,-0.77 35.96,-25.64 21.73,-25.83 45.48,-61.49 70.99,-84 -11.69,34.25 -104.33,140.68 -125.36,162.63 19.75,15.61 2.73,3.17 16.5,9.01 1.59,0.67 6.8,2.46 8.25,2.99l-4.08 13.84c22.19,3.79 58.75,5.96 54.43,-29.71 3.49,3.44 14.93,32.16 24.37,-13.47 4.96,-23.95 4.55,-29.12 17.1,-50.1l-7.32 51.88c-1.15,-0.44 1.79,0.01 1.62,-1.39l-9.34 27.94 39.34 0.79c15.67,-3.8 27.49,-8.19 43.76,-8.64 -0.47,1.45 -1.38,4.42 -2.7,3.67l-6.17 6.94c-11.6,11.08 -10.87,-2.22 -20.26,18.78 -9.91,-3.94 -9.73,-9.78 -11.12,-11.08l-57.18 19.63 -1.72 75.1c5.23,0.41 14.57,5.97 29.62,-9.7 6.16,-6.42 12.98,-20.83 17.84,-30.39 -7.73,17.02 -8.29,10.45 -2.96,31 48.87,-28.03 61,-64.46 115.8,-31.06 65.8,40.1 19.77,79.22 -6.16,114.48l16.88 21.72c21.86,-26.34 33.82,-59.16 63.46,-81l-43.42 77.97c26.81,-3.57 7.32,-12.28 31.78,0.29 16.78,8.63 10.98,14.2 32.51,17.29 20.87,-17.84 13.58,-43.51 31.91,-44.27 12.31,-0.51 -5.97,30.62 38.69,-27.59 34.25,-44.63 68.93,-48.77 82.09,-104.81 10.5,-44.69 2.96,-82.78 9.73,-122.59 23.38,-137.53 223.52,-13.43 136.08,42.64 -59.1,37.91 -59.89,7.33 -118.07,78.53 -51.74,63.33 -112.58,145.15 -146.33,211.67l39.75 -19.41c-15.07,37.31 -31.34,44.34 -9.21,62.02 -23.63,14.47 -29.4,6.18 -33.55,37.8 -3.58,27.2 -1.81,40.34 25.96,45.3 30.51,-33.78 -14.1,-74.88 27.6,-91.63 14.92,-5.99 36.89,3.03 53.74,1.83 53.48,-3.81 115.83,-87.25 152.36,21.4 20.59,61.23 -16.03,64.82 -62.6,92.66 13.53,31.25 34.85,30.15 28.74,56.8l-4.84 23.37c-17.51,-0.13 -25.76,-1.86 -42.06,15.46l0 0.08zm-842.14 -630.33c7.46,19.32 10.18,23.2 3.22,42.35 -11.78,3.17 -4.01,3.55 -17.54,0.48 -2.08,-18.29 0.4,-25.84 14.32,-42.83zm291.1 207.67c18.76,-15.63 48.09,-35.8 74.98,-27.17 2.17,22.13 -45.44,44.73 -74.98,27.17zm71.04 -5.82c1.29,23.6 -0.79,29.71 -4.17,51.27l-41.31 10.75c0.55,-27.76 19.62,-43.21 45.48,-62.02z"/>
   <path class="fil0" d="M1282.6 758.53c-14.59,-25.88 -20.43,-32.06 -46.2,-20.36 -11.52,5.23 -41.41,24.18 -50.15,32.47 -14.33,13.58 -59.35,61.97 -63.05,81.56 24.41,0.13 30.35,-9.83 51.33,-27.07 48.46,-39.85 79.44,8.96 108.07,-66.6z"/>
   <path class="fil0" d="M1512.67 964.32c-38.37,-46.45 -103.81,7.87 -67.89,60.36 40.99,59.91 108.69,-10.97 67.89,-60.36z"/>
   <path class="fil0" d="M510.36 266.12c20.37,-58.07 -27.91,-90.79 -61.33,-52.64 -33.04,37.71 10.29,87.79 61.33,52.64z"/>
   <path class="fil0" d="M1398.84 1136.28c24.99,-35.82 -25.54,-91.35 -58.29,-45.04 -21.89,30.97 30.32,85.14 58.29,45.04z"/>
   <path class="fil0" d="M633.26 173.08c-52.26,-3.73 -61.96,47.25 -16.73,67.82 39,-15.1 46.41,-36.73 16.73,-67.82z"/>
   <path class="fil0" d="M292.34 379.18c-6.43,15.41 -1.25,17.9 -12.27,30.17 -36.2,40.35 -26.77,-9.04 -11.44,86.89 15.22,-14.4 31.69,-46.93 32.07,-56.42 1.22,-29.89 -16.97,-8.98 -8.36,-60.64z"/>
   <path class="fil0" d="M1657.56 900.92c-15.2,2.36 -38.43,10.35 -51.93,22.51 -21.51,19.36 -9.44,12.28 -11.27,18.24 23.48,7.05 102.25,6.94 63.2,-40.75z"/>
   <path class="fil0" d="M491.66 359.14c18.78,-22.25 8.28,-25.58 30.11,-38.23 65.25,-37.79 -9.41,-91.85 -18.99,-14.61 -1.37,11.05 -0.98,17.95 -4.3,28.02 -6.73,20.42 -6.34,2.04 -6.82,24.82z"/>
   <path class="fil0" d="M767.18 512.46c-14.3,19.34 -18.01,46.79 -16.71,69.46 9.88,-21.08 17.2,-45.07 16.71,-69.46z"/>
   <path class="fil0" d="M473.87 507.21c-2.17,3.17 -0.66,11.3 -0.16,15.62 17.11,0.78 27.48,-4.11 14,-20.06 -7.91,-0.42 1.8,-18.46 -13.84,4.44z"/>
   <path class="fil0" d="M140.81 395.72c0.55,1.46 -1.93,3.22 -2.1,4.18 -5.6,31.63 9.14,20.43 11.72,21.26 5.97,-16.9 9.85,-13.5 -9.62,-25.44z"/>
  </g>
  <g id="_2080727962896">
   <path class="fil0" d="M2160.22 1181.45l-1023.38 0c0.29,-0.67 0.59,-1.38 0.9,-2.14 -12.27,-28.22 -23.24,-33.09 -32.88,-74.33 29.55,-7.6 36.93,-9.94 56.2,6.01 12.37,10.23 24.33,23.73 44.1,13.85 21.19,-16.13 0.43,-48.87 1.97,-72.4 1,-15.24 4.09,-6.29 4.37,-26.17 -22.28,-23.92 -51.09,-24.81 -45.5,-69.3 33.2,-7.72 36.72,5.73 66.34,-3.4 29.24,-9.02 44.09,-41.08 63.52,-18.08 6.47,7.66 14.68,23.53 22.12,26.25 33.19,-0.73 31.51,-15.03 53.24,-17.52 14.25,-1.64 31.83,10.32 45.75,14.39 19.08,5.59 82.92,10.73 103.26,10.97 6.56,-12.39 9.33,-31.59 8.07,-44.69l5.04 49.56c117.27,-2.44 64.57,61.56 107.35,93.3 8.41,6.23 -1.05,1.4 9.5,5.06 10.92,-40.56 -1.15,-55.02 -8.89,-100.62 13.41,22.2 0.91,31.99 23.19,48.36 12.41,-29.34 -0.88,-35.96 5.3,-62.65l9.52 59.28c6.14,-14.09 6.16,-6.28 13.57,-16.97 4.3,-6.2 1.94,-3.62 5.17,-8.67l18.59 -25.95c14.59,-18.36 11.56,8.04 27.41,-45.16 3.33,34.17 -12.12,64.84 -6.49,99.04 42.9,-4.23 24.3,-66.6 63.97,-71.1 2.04,7.62 -0.38,38.53 -1.64,51.19l-9.26 22.87c-4.09,10.62 -1.23,18.47 0.86,30.11l44.66 -28.37c-0.1,-39.27 4.09,-23.19 21.67,-44.75 14.45,-17.73 17.67,-29.83 50.71,-29.44 42.57,0.51 28.38,53.12 104.82,13.74 -15.19,-66.87 1.78,-87.66 30.4,-123.44 -7.62,-4.39 1.35,1.8 -6.09,-3.57 -8.59,-6.2 -3,-2.15 -9.12,-7.2l21.19 -15.16c-22.59,-14.02 -45.23,-23.15 -33.54,-65.1 5.54,-19.87 32.74,-48.39 65.44,-36.26 52.21,19.38 11.63,70.78 33.42,104.68l4.13 6.07c34.88,54.16 44.9,29.69 91.88,14.1 19.43,-6.45 5,4.54 26.83,-6.75 15.08,-7.8 4.92,-8.86 23.06,-14.72 33.23,31.47 7.92,33.64 -7.83,65.37 -23.03,46.38 -0.82,43.95 15.52,66.17 -6.2,22.33 -17.6,48.2 -24.5,75.58l27.7 -29.46c-8.79,23.85 -36.48,43.59 -32.91,67.66 0.39,2.63 3.08,10.53 4.08,18.3 6.29,48.67 -10.11,55.35 -52.1,81.01 -11.03,6.74 -22.66,12.87 -30.69,20.45zm-1104.97 0l-16.24 0c0.11,-1.76 0.27,-3.56 0.5,-5.42 6.04,0.19 11.11,2.22 15.74,5.42zm-141.7 0l-17.22 0c-2.95,-7.72 -5.14,-15.89 -5.08,-25.42 0.09,-15.45 11.49,-39.58 15.18,-56.82 9.21,32.41 -1.43,34.54 2.05,61.76 0.89,6.91 2.76,13.67 5.07,20.48zm-54.28 0l-9.63 0 0 -0.06c-0.02,-0.8 0.03,-2.37 0.04,-3.09l0.64 -6.12c3.24,3.27 6.2,6.35 8.95,9.27z"/>
   <path class="fil0" d="M1334.06 752.23c-18.33,-18.86 -30.21,-121.59 -52.3,-147.55 1.61,45.94 49.13,291.66 146.59,216.22 50.86,-39.37 14.98,-58.16 10.4,-86.73 -10.05,-62.63 46.09,-159.16 -58.21,-160.89 -92.34,-1.53 -26.98,139.01 -46.48,178.95z"/>
   <path class="fil0" d="M1339.93 929.14c-4.87,-23.87 -14.35,-17.3 -16.98,-42.85 -2.56,-24.92 4.98,-23.74 -11.76,-50.14 -12.9,-20.35 -53.75,-64.19 -73.91,-28.64 -22.75,40.13 44.46,92.23 64.57,113.55 15.18,16.1 15.84,18.83 38.08,8.08z"/>
   <path class="fil0" d="M2459.69 1003.6c44.39,3.49 143.07,-38.76 119.95,-83.1 -45.39,-9 -83.67,32.35 -104.35,47.51 -17.41,12.77 -20.94,11.56 -15.6,35.59z"/>
   <path class="fil0" d="M1976.71 679.22c-0.65,-53.88 -47.83,-50.61 -60.46,-21.64 -16.09,36.9 28.45,53.04 60.46,21.64z"/>
   <path class="fil0" d="M1093.45 1023.19l-45.86 -82.59c-18.4,-29.98 -33.96,-66.41 -67.71,-66.89 21.04,52.71 81.79,105.86 113.57,149.48z"/>
   <path class="fil0" d="M2343.22 1181.45c5.44,-3.74 8.24,-8.08 11.31,-17.4 -20.42,0.9 -39.67,6.44 -59.84,15.13 -1.83,0.79 -3.58,1.54 -5.27,2.27l53.8 0z"/>
   <path class="fil0" d="M1060.44 1064.8c3.22,-11.74 5.7,-9.09 9.26,-11.32 -8.33,-13.67 -16.29,-27.5 -27.28,-40.25 -13.48,-15.65 -19.69,-21.87 -41.23,-22.49 15.37,41.01 38.28,50.8 59.25,74.06z"/>
   <path class="fil0" d="M2326.77 914.64c15.36,-2.75 29.3,-10.3 40.21,-20.08 6.77,-6.07 26.45,-27.14 13.98,-36.19 -29.17,-21.16 -44.94,48.8 -54.19,56.27z"/>
   <path class="fil0" d="M1830.09 805.11c26.55,-16.83 35.01,-56.49 33.36,-67.58 -4.54,-30.61 1.21,-4.2 -7.48,-14.86 -13.44,8.05 -8.88,-0.6 -13.76,17.18 -3.45,12.55 -4.28,45.39 -12.12,65.26z"/>
   <path class="fil0" d="M1869.02 854.73c-54.99,-9.3 -36.93,64.57 -1.19,31.2 13.2,-12.33 6.25,-23.86 1.19,-31.2z"/>
   <path class="fil0" d="M2315.5 1039.58c-4.71,4.87 -16.61,13.24 -3.65,26.75 6.49,6.77 19.08,6.17 27.26,-1.55 16.18,-15.24 -1.76,-47.85 -23.61,-25.2z"/>
  </g>
  <g id="_2080727956992">
   <path class="fil0" d="M3180.42 1181.45l-1015.37 0c-4.33,-14.74 -15.25,-30.52 -17.38,-44.71 -2.27,-15.11 2.66,-7.01 -1.3,-26.51 -26.85,-18.63 -55.19,-13.38 -59.19,-58.04 30.8,-14.6 37.1,-2.21 64.1,-17.42 26.66,-15.03 34.36,-49.52 58.23,-31.17 7.95,6.11 19.35,19.87 27.19,20.94 32.28,-7.76 27.6,-21.37 48.3,-28.43 13.58,-4.63 33.29,3.32 47.76,4.34 19.84,1.4 83.31,-7.14 103.23,-11.23 3.78,-13.5 2.41,-32.85 -1.61,-45.38l15.47 47.36c114.07,-27.32 76.17,46.42 124.73,68.34 9.53,4.31 -0.73,1.59 10.35,2.92 2.05,-41.95 -12.82,-53.51 -30.07,-96.43 17.81,18.84 7.68,31.07 32.93,42.33 5.9,-31.3 -8.5,-34.95 -8.13,-62.34l21.9 55.89c3,-15.06 4.68,-7.43 9.65,-19.46 2.89,-6.97 1.13,-3.95 3.22,-9.57l12.64 -29.3c10.35,-21.05 13.01,5.39 17.19,-49.97 10.51,32.69 1.94,65.95 14.71,98.17 41.02,-13.26 9.59,-70.25 47.39,-83.08 3.62,7.01 7.82,37.74 9.28,50.37l-4.19 24.32c-1.74,11.24 2.73,18.3 7.24,29.23l37.61 -37.21c-8.44,-38.35 -0.93,-23.52 11.66,-48.33 10.35,-20.4 10.93,-32.9 43.31,-39.55 41.69,-8.55 39.01,45.87 105.33,-8.85 -29.05,-62.12 -16.89,-86.04 3.47,-127.09 -8.38,-2.66 1.71,1.48 -6.71,-2.19 -9.71,-4.24 -3.39,-1.46 -10.44,-5.09l17.48 -19.32c-25.05,-8.9 -49.12,-13.01 -46.61,-56.48 1.19,-20.6 21.71,-54.25 56.24,-49.34 55.14,7.83 26.41,66.68 54.9,95.18l5.33 5.05c45.59,45.51 50.19,19.47 92.78,-5.75 17.62,-10.44 5.85,3.37 24.79,-12.3 13.07,-10.83 2.91,-9.71 19.4,-19.29 39.16,23.69 14.88,31.19 6.24,65.54 -12.64,50.22 8.54,43.13 29.23,61.37 -1.32,23.14 -6.95,50.84 -7.88,79.06l20.81 -34.68c-3.52,25.17 -26.38,50.35 -17.78,73.1 0.95,2.49 5.25,9.64 7.88,17.03 16.49,46.22 1.89,56.22 -33.69,90.23 -18.19,17.39 -39.11,32.97 -29.2,55.15l59.07 -28.63c13.22,8.17 2.29,-12.09 0.03,3.9 -1.64,11.67 -7.29,-2.33 -0.97,5.82 39.77,-0.75 18.63,17.84 90.54,8.06 42.08,-5.73 58.43,6.61 91.74,2.75 44.86,-5.2 168.59,-37.51 199.8,-25.13 -19.24,31.79 -151,57.53 -192.2,68.81 -26.18,7.17 -134.66,33.35 -170.43,57.01z"/>
   <path class="fil0" d="M2207.88 816.41c-21.91,-14.53 -55.36,-112.4 -82.46,-133.06 11.33,44.54 110,274.55 189.2,180.12 41.32,-49.28 2.27,-60.02 -8.28,-86.96 -23.13,-59.07 11.21,-165.32 -91.08,-144.84 -90.55,18.13 3.19,141.56 -7.38,184.74z"/>
   <path class="fil0" d="M2251.22 988.03c-9.82,-22.3 -17.7,-13.86 -25.7,-38.27 -7.8,-23.8 -0.18,-24.26 -22.14,-46.49 -16.94,-17.14 -66.17,-51.3 -78.31,-12.27 -13.71,44.04 63.04,80.67 87.22,97.22 18.26,12.51 19.49,15.04 38.93,-0.19z"/>
   <path class="fil0" d="M3361.22 822.77c44.12,-6.03 131.56,-68.28 99.54,-106.7 -46.25,0.86 -74.87,49.4 -91.86,68.61 -14.3,16.18 -18.01,15.75 -7.68,38.09z"/>
   <path class="fil0" d="M3644.74 987.94c-13.65,-26.94 -114.24,6.7 -139.73,26.66 7.52,6.6 -1.14,14.43 32.9,10.19 45.5,-5.67 86.3,-20.78 100.98,-31.15l5.85 -5.7z"/>
   <path class="fil0" d="M2820.33 608.47c-12.09,-52.52 -57.5,-39.29 -63.68,-8.3 -7.87,39.47 39.08,45.78 63.68,8.3z"/>
   <path class="fil0" d="M2030.37 1132.31l-62.37 -70.95c-24.35,-25.38 -47.3,-57.67 -80.38,-50.97 31.76,47.04 102.42,86.06 142.75,121.92z"/>
   <path class="fil0" d="M3209.23 1070.39c20.47,6.66 25.43,-7.03 44.88,-23.62 30.19,-25.73 36.21,-23.45 38.46,-44.86 -19.76,5.22 -37.4,14.72 -55.26,27.5 -19.42,13.89 -29.95,20.9 -28.08,40.98z"/>
   <path class="fil0" d="M2006.95 1179.99c0.65,-12.15 3.64,-10.09 6.65,-13.03 -11.05,-11.59 -21.77,-23.41 -35.21,-33.53 -16.5,-12.42 -23.89,-17.18 -45.08,-13.21 23.74,36.81 48.22,41.5 73.64,59.77z"/>
   <path class="fil0" d="M3212.43 764.1c14.43,-5.95 26.44,-16.3 35.02,-28.17 5.33,-7.37 20.08,-32.14 5.97,-38.33 -33,-14.48 -33.54,57.23 -40.99,66.5z"/>
   <path class="fil0" d="M2703.82 762.64c22.37,-22.09 22.2,-62.63 18.24,-73.12 -10.95,-28.95 0.28,-4.36 -10.47,-12.94 -11.43,10.73 -8.81,1.31 -9.8,19.72 -0.7,12.99 5.46,45.26 2.03,66.34z"/>
   <path class="fil0" d="M2752.4 802.86c-55.7,2.6 -22.35,70.94 5.47,30.73 10.28,-14.85 1.04,-24.64 -5.47,-30.73z"/>
   <path class="fil0" d="M3227.97 888.58c-3.56,5.76 -13.41,16.47 2.12,26.92 7.78,5.23 19.96,1.96 26.32,-7.31 12.56,-18.34 -11.9,-46.38 -28.44,-19.61z"/>
  </g>
  <g id="_2080727954784">
   <path class="fil0" d="M4442.73 1122.71c1.08,0.51 1.71,2 3.27,1.49 1.53,-0.5 2.58,1.05 3.32,1.2l18.33 2.56c0.97,0.18 2.7,0.65 4.03,1.04l-108.56 36.79c24.07,-25.8 51.56,-31.54 79.61,-43.08zm280.48 -39.88l0 12.02 -46.78 9.43c-22.4,7.01 -44.84,23.6 -78.4,14.72 -10.36,-2.74 -13.72,-7.95 -24.87,-9.79 -24.02,-3.96 -144.14,48.1 -175,65.51 -5.4,3.04 -9.94,5.16 -13.98,6.73l-1495.35 0c-6.59,-10.27 -19.92,-19.89 -34.29,-37.41 -12.99,-15.82 2.44,-6.3 -15.92,-22.63 -12.69,-11.28 -10.04,-1.41 -22.01,-16.25 17.47,-42.3 28.57,-19.45 63.83,-16.12 51.55,4.87 41.32,-14.99 56.21,-38.21 23.07,-2.22 51.31,-0.86 79.34,-4.23l-37.43 -15.3c25.41,-0.34 53.76,18.43 74.95,6.47 2.32,-1.31 8.73,-6.65 15.63,-10.37 43.18,-23.32 55.29,-10.41 94.3,19.59 19.95,15.34 38.53,33.65 58.95,20.49l-37.27 -54.03c6.06,-14.31 -12.3,-0.44 3.85,-0.64 11.79,-0.14 -1.2,7.57 5.9,0.09 -6.78,-39.2 14.8,-21.13 -5.79,-90.72 -12.05,-40.72 -2.34,-58.75 -11.22,-91.09 -11.95,-43.55 -62.68,-160.94 -55.18,-193.67 34.34,14.19 79.8,140.51 97.21,179.52 12.31,27.58 63.38,152.35 91.41,167.63 10.05,5.47 7.92,3.35 13.47,4.61 11.48,-20.92 -8.6,-69.51 30.05,-64.21 10.04,29.77 -7.05,6.99 -10.21,33.76 -1.45,12.18 6.84,33.17 15.64,45.33 4.03,-8.58 0.66,-17.13 -0.27,-27.58 -0.95,-10.76 -1.72,-2.96 0.18,-10.55 14.29,10.51 11.52,16.97 23.05,29.18 14.33,15.17 11.75,5.4 27.68,15.63 24.29,15.63 25.15,32.67 54.32,26.15 -2.15,-14.13 -11.69,-20.65 -23.75,-26.89 -2.34,-1.21 -10.93,-5.12 -13.69,-5.78 -8.78,-2.1 -1.01,0.5 -8.98,2.37 -11.11,-9.09 -28.28,-24.92 -35.73,-38.77 -13.28,-24.71 1.83,-19.09 -7.93,-46.14 -13.28,-36.75 -11,-55.79 40.76,-78.67 31,-13.7 66.53,-15.07 90.67,-7.93 27.21,8.05 36.79,30.77 55.87,48.06 13.21,11.96 0.89,1.91 21.73,9.55l-10.79 10.47c-9.92,19.2 7.05,36.65 -13.45,57.88 -21.78,22.56 -78.3,35.33 -19.34,63.47 8.75,-10.45 27.32,-58.45 42.3,-11.53 3.83,12 -1.08,10.68 6.04,27.29l19.33 2.55 -10.83 -28.51 25.3 24.98c34.63,-26.58 1.18,-2.07 30.86,-8.9 -10.61,-21.86 -26.85,-29.86 -41.65,-48.9 -13.84,-17.79 -33.02,-39.52 -32.92,-49.3 17.02,15.7 21.98,14.17 39.24,24.71 -14.33,-20.53 -4.35,-9.44 -2.78,-16.4l19.48 8.33c-6.99,-19.36 -19.52,-30.71 -16.79,-42.67 4.53,-19.8 11.56,4.05 14.4,-26.95 -7.71,-1.08 -7.35,3.47 -15.23,-1.61l5.85 -9.17c-6.87,-8.23 -15.14,-15.62 -20.78,-22.41l32.56 9.61c15.22,-8.85 6.46,-7.32 20.82,-2.9 -1.07,-20.49 3.89,22.57 -2.33,-9.68 -0.18,-0.91 -0.54,-2.5 -0.71,-3.48 -0.18,-1.01 -0.43,-2.64 -0.58,-3.61 -0.16,-0.98 -0.33,-2.87 -0.45,-3.7 -0.12,-0.83 -0.48,-2.5 -0.38,-3.75 15.44,-1.96 34.39,10.53 50.09,17.97 20.28,-29.25 16.57,-9.4 28.48,-23.58 13.1,-15.59 -5.91,-15.05 -6.96,-39.55 39.77,-13.54 18.47,42.07 49.63,36.79 1.17,-0.2 5.08,-1.23 6.31,-1.76 0.87,-0.37 1.97,-1.21 2.81,-1.69 14.14,-8.09 7.31,-9.43 26.87,-15.69l22.4 24.91 -27.38 21.61c24.49,-7.93 45.63,-4.81 69.05,-0.18 59.2,11.7 45.39,-139.75 93.73,-232.7 19.46,47.56 -26.13,124.72 -38.88,172.65 -6.81,25.59 -7.44,33.7 -18.38,55.83 23.37,18.18 4.43,-6.04 55.62,21.37l9.13 3.95c16.41,8.89 12.48,37.03 40.6,7.68 14.04,-14.65 37.2,-46.6 54.37,-54.3 3.88,2.47 4.66,-12.57 7.95,10.22 1.55,10.74 -17.89,21.52 -27.95,30.87 -14.9,13.85 -38.68,32.42 -36.79,51.74 24.31,-4.89 41.3,-48.25 67.95,-55.09 8.08,21.09 7.58,14.09 -22.53,40.2 -23.91,20.74 -15.72,20.12 -19.34,43.09 -20.51,2.41 -6.02,-5.4 -22.36,5.37l4.49 3.12c13.06,10.72 14.27,26.12 15.15,42.93 16.88,1.66 20.85,4.18 27.1,21.92 1.15,0.09 1.94,0.25 3.43,-0.39l35.33 3.66c11.58,-0.63 3.42,-1.6 16.66,-5.56 11.61,-3.48 2.64,2.81 21.92,-5.43l2.4 -41.17c4.77,-13.31 18.13,-28.91 21.5,-43.15 3.8,-16.06 -1.41,-18.27 17.29,-23.44 14.2,15.08 4.02,36.99 -2.63,57.63 -5.33,16.52 -18.77,40.52 -18.52,60.2 30.59,-25.51 28.96,-51.13 53.94,-69.77 4.51,14.92 0.36,20.32 -8.25,33.09 -12.64,18.75 -16.01,18.62 -9.73,35.66 36.68,4.64 6.4,-7.66 33.34,-14.07 9.57,-2.28 14.1,2.23 20.53,10.1 0.34,0.41 1.15,1.56 1.44,1.96 0.44,0.59 2.45,2.14 3.58,5.87 -7.05,6.65 -16.74,14.39 -18.95,22.31 -5.17,18.48 -5.49,2.4 15.87,8.26 0.99,6.35 -4.68,7.34 -0.73,16.66l90.13 -26.76c21.92,-8.64 15.85,-10.33 28.66,-0.68 -6.22,9.34 -24.22,11.4 -38.66,18.38 7.58,5.83 15.59,10.01 25.28,12.92 -54.04,20.51 -48.51,-0.33 -100.88,50.59 23.86,9.13 24.58,-2.4 32.11,-21.04 23.31,14.6 11.05,7.16 36.56,5.61 25.48,-1.56 48.98,1.32 76.5,-9.22 18.33,-7.02 29.5,-3.67 43.75,-16.26l-28.59 -3.18c6.11,-1.78 18.65,-2.85 25.39,-4.52 35.73,-8.85 11.6,-19.7 42.87,0.06l-41.3 48.2c34.59,-12.54 55.69,-0.62 100.27,-18.2l50.18 -7.84c14.93,0.98 32.65,-2.09 47.23,1.35 17.09,4.03 -2.6,9.86 49.37,-5.74 8.55,-2.57 20.54,-6.25 33.43,-9.45zm-298.57 98.62l-5.02 0c3.66,-1.67 1.96,-2.19 5.02,0z"/>
   <path class="fil0" d="M2920.14 852.51c-12.66,-42.69 -87.47,-119.66 -120.58,-82.18 7.88,45.59 60.2,66.51 81.77,80.38 18.16,11.67 18.3,15.4 38.81,1.8z"/>
   <path class="fil0" d="M3539.74 719.74c32,-30.64 12.96,-78.79 -20.02,-114.49 -19.69,23.58 -25.27,93.78 20.02,114.49z"/>
   <path class="fil0" d="M3040.33 547.2c-24.55,17.58 23.97,111.89 47.58,134.05 5.37,-8.43 14.43,-1.06 5.07,-34.07 -12.52,-44.1 -33.65,-82.14 -46.12,-95.07l-6.53 -4.91z"/>
   <path class="fil0" d="M4101.92 1005.92c51.84,-30.94 9.63,-69.7 -24.61,-53.47 -24.47,31.53 0.76,45.4 24.61,53.47z"/>
   <path class="fil0" d="M3187.98 965.13c3.46,-21.25 -10.82,-24.07 -30.17,-40.78 -30.01,-25.93 -28.67,-32.22 -50.18,-31.2 8.16,18.74 20.23,34.74 35.58,50.45 16.68,17.08 25.2,26.43 44.77,21.53z"/>
   <path class="fil0" d="M2884.75 1008.49c-8.07,-13.36 -20.12,-23.66 -33.16,-30.34 -8.1,-4.14 -34.82,-14.96 -38.8,-0.07 -9.29,34.81 61.67,24.45 71.96,30.41z"/>
   <path class="fil0" d="M3889.59 757.81c7.79,-21.98 6.97,-38.95 7.05,-66.62 0.06,-20.84 2.77,-45.87 -1.41,-64.54 -21.35,21.73 -12.41,97.85 -5.64,131.16z"/>
   <path class="fil0" d="M3005.42 974.22c6.24,2.64 18.32,10.76 26.29,-6.19 3.99,-8.48 -1.09,-20.02 -11.22,-24.89 -20.04,-9.64 -44.04,18.8 -15.07,31.08z"/>
   <path class="fil0" d="M4264.74 930.87c19.59,32.3 44.76,-2.12 44.32,-23.68 -16.38,-12.05 -4.72,-13.24 -44.32,23.68z"/>
   <path class="fil0" d="M4024.2 768.46c9.36,-23.73 25.58,-65.43 17.59,-91.26 -10.82,18.19 -24.58,71.93 -17.59,91.26z"/>
   <path class="fil0" d="M4367.99 904.45c-25.19,-19.99 -36.83,6.13 -36.66,8.23 2.06,25.34 29.76,2.18 36.66,-8.23z"/>
   <path class="fil0" d="M4319.82 960.2c-10.13,-7.32 -19.23,-8.07 -29.16,-5.67 -0.56,12.42 -1.45,4.35 4.99,19.36l24.17 -13.69z"/>
   <path class="fil0" d="M4015.55 804.59c9.35,-17.32 13.97,-1.88 6.74,-32.66 -13.02,14.98 -11.83,11.24 -6.74,32.66z"/>
   <path class="fil0" d="M4008.46 833.83c-14.15,11.02 -12.59,12.48 -8.88,29.35 6.3,-6.99 8.56,-9.58 10.18,-15.71 2.34,-8.83 1.42,-3.66 -1.3,-13.64z"/>
   <path class="fil0" d="M4489.79 1160.35c-1.2,0.47 -2.67,-1.55 -3.46,-1.68 -26.06,-4.29 -16.71,7.72 -17.36,9.85 13.96,4.74 11.2,7.96 20.82,-8.17z"/>
   <path class="fil0" d="M4264.67 1001.25c-13.59,-6.75 2.37,-8.55 -21.07,-0.16 14.91,16 1.18,9.57 14.31,8.99 16.61,-0.73 5.97,-7.38 6.76,-8.83z"/>
  </g>
  <g id="_2080727954688">
   <path class="fil0" d="M4184.06 517.08c-1.2,-0.11 -2.51,0.84 -3.58,-0.39 -1.06,-1.21 -2.76,-0.42 -3.47,-0.67l-17.07 -7.15c-0.93,-0.35 -2.65,-0.82 -3.99,-1.17l74.55 87.07c-7.52,-34.48 -28.22,-53.45 -46.44,-77.69zm539.15 21.59l0 642.78 -663.13 0c4.3,-40.67 33.39,-36.21 70.87,-56.77 -12.13,-12.55 -7.76,-9.33 -23.02,-11.21 8.79,0.69 21.83,2.08 28.97,0.51 17.45,-3.84 17.54,-12.78 19.5,-16.62l-53.43 -30.98 -38.28 31.71c0.32,1.53 4.49,3.9 3.01,12.55 -18.76,-2.42 -9.11,2.77 -21.86,6.16l-7.5 1.36c-0.05,1.24 -2.53,0.6 -3.74,0.32 7.28,-11.23 15.43,-17.63 24.81,-27l16.31 -27.94 -23.61 -5.42c0.91,0.71 1.85,-1.54 1.67,-0.54l-39.53 -17.1c20.1,0.18 23.54,2.69 42.47,9.47 36.06,12.93 20.81,-7.4 19.9,-11.32 23.17,18.32 37.32,-8.26 44.17,-25.46l-11.46 -3.07c0.25,-1.24 1.23,-5.66 1.43,-7.07 1.81,-12.16 3.25,5.11 0.76,-15.44 -24.41,5.35 -138.79,24.74 -167.83,18.27 26.72,-8.26 61.92,-9.64 89.36,-13.82 26.41,-4.02 22.8,-9.34 33.4,-14.24 5.98,-2.77 30.66,-4.82 40.56,-7.46 -11.61,-12.72 -22.74,-10.05 -38.99,-18.65 26.13,-21.07 15.92,-2.75 40.25,-15.64 -90.47,-19.4 -81.8,6.3 -134.37,10.39 -16.27,1.26 -28.54,2.7 -43.59,5.78 13.87,-8.25 70.92,-22.23 84.88,-24.5l-6.16 -11.87c23.59,3.27 38.82,1.16 66.46,-10.84 23.25,-10.09 44.64,-12.79 56.36,-27.74 -14.93,-6.5 -34.93,-0.73 -50.96,3.47 -0.03,0.83 0.4,2.17 0.4,2.47 -0.01,0.26 0.22,1.93 0.18,2.22 -1.52,10.89 9.88,-9.91 -0.69,3.04l-16.63 5.03c-1.69,0.68 -4.96,2.69 -9.48,4.44 -14.69,5.71 -36.95,8.91 -50.33,8.33 13.77,-5.55 10.01,-3.47 19.79,-11.11 10.01,-7.82 -5.28,-2.14 15.24,-12.61 36.9,-18.84 58.83,-0.29 87.13,-38.36 -21.88,6.47 -61.21,-0.38 -90.99,3.23l18.78 -15.22c22.33,-26.66 -28.29,19.16 5.4,-7.15 16.86,-5.02 43.94,-1.82 59.27,4.41l3 1.16c16.27,0.3 1.36,0.89 2.9,-3.68 0.06,-0.17 -0.19,-2.45 0.15,-2 0.37,0.49 -0.15,-1.44 0,-2.14 13.66,-7.21 26.27,-5.24 50,-9.13 -4.16,-30.03 -4.8,1.05 -8.9,-13.21 -4.05,-14.08 -7.18,7.21 1.3,-3.93l3.94 -3c0.65,0.67 1.76,-0.87 2.66,-2.02l-27.14 -17.51 25.83 0.88c-11.79,-21.27 -33.33,-16.68 -56.48,-32.84l33.07 3.42 -54.09 -73.12c18.67,10.21 37.26,40.8 51.99,47.28 11.12,4.9 49.28,6.17 61.13,0.7 -18.43,-38.26 -8.96,-26.39 -36.62,-51 10.05,0.7 10.05,1.1 19.08,1.2 19.59,0.22 22.1,6.78 38.09,6.49 3.32,-27.57 -14.43,-28.35 -36.71,-45.72 -32.86,21.46 -25.35,1.74 -56.06,-20.5 -11.37,-8.23 -8.92,-6.02 -17.28,-14.58 18.44,1.07 17.15,5.71 30.62,16.65 18.8,15.27 -4.04,10.65 28.22,6.67l-40.29 -35.47c15.02,0.91 37.91,19.69 51.15,28.96 -11.39,-17.04 -27.49,-19.36 -26.84,-36.13 18.59,0.77 3.41,-4.48 19.74,10.58 13.76,12.7 37.21,36.06 53.45,43.05 -15.93,-22.64 -24.54,-20.7 -39.05,-45.97 -17.65,-30.72 -94.35,-136.82 -117.02,-145.68 -10.53,-4.11 -16.08,-1.35 -26.38,-4.28 -33.39,-9.5 -44.21,-35.23 -59.9,-52.69l-86.21 -77.91c24.14,-1.95 62.97,41.3 80.86,60.77 36.72,39.95 22.77,24.89 39.52,30.15 14.29,4.48 27.96,16.17 41.3,22.95l39.14 32.37c29.36,37.87 53.59,38.41 76.93,66.85l-10.91 -62.53c36.98,-1.03 10.7,-4.02 36.9,21.83 4.94,4.88 15.17,12.2 19.51,16.85l-26.2 -11.86c5.83,18.1 17.14,20.92 29.32,36.33 18.27,23.11 39.94,32.63 61.07,46.98 21.13,14.36 6.8,14.5 34.29,13.85 -3.04,19.87 -8.31,30.15 16.87,34.49 -19.03,-70.53 -24.91,-49.79 -60.91,-95.01 9.82,2.44 18.84,2.93 28.33,1.79 -8.85,-13.38 -23.27,-24.33 -23.86,-35.54 15.95,-1.76 9.87,-3.4 24.3,15.22l63.83 69.03c8.16,-5.99 3.79,-9.75 7.88,-14.7 21.36,5.87 12.87,19.53 17.87,1.01 2.14,-7.95 -2.24,-19.54 -4.91,-28.87 2.88,-2.62 5.4,-2.93 6.08,-3.22 0.45,-0.19 1.74,-0.76 2.24,-0.94 9.54,-3.49 15.74,-5.05 22.81,1.8 19.89,19.26 -12.43,14.38 21.48,29.12 14.1,-11.44 11.13,-13.06 9.84,-35.63 -0.88,-15.38 -1.69,-22.14 9.8,-32.66 11.97,28.78 -2.52,49.98 10.76,87.53 10.26,-16.79 10.96,-44.3 14.82,-61.21 4.82,-21.15 7.25,-45.19 27.16,-50.91 13.44,14.01 7.83,13.24 2.9,28.99 -4.38,13.96 -0.86,34.2 -3.56,48.08l-18.95 36.62c12.37,16.93 7.87,6.94 16.08,15.86 9.36,10.17 1.84,6.84 11.48,13.29l32.24 14.89c0.96,1.32 1.72,1.58 2.75,2.1 14.43,-12.07 19.14,-12.21 34.5,-5.01 9.33,-14.01 18.25,-26.63 34.95,-29.19l5.45 -0.38c-8.55,-17.61 -0.08,-3.49 -16.48,-16.04 8.61,-21.59 15.33,-16.88 5.37,-46.92 -12.55,-37.82 -16.56,-32.06 1.15,-46.06 19.43,19.48 11.9,65.43 30.3,82.05 11.49,-15.64 0.53,-43.75 -5.22,-63.27 -3.87,-13.17 -15.08,-32.37 -8.26,-40.81 14.46,-17.91 7.45,-4.59 12.05,-4.73 10.84,15.39 14.43,54.69 19.02,74.45 9.19,39.59 20.18,13.39 38.83,14.12l6.18 0.8zm-574.05 191.27c10.35,13.51 11.91,17.08 28.33,20.4 7.28,-6.91 4.21,-1.29 7.85,-12.1 -11.93,-9.3 -18.3,-10.79 -36.18,-8.3zm20.95 293.23c-19,6.46 -45.72,18.4 -51.19,40.97 14.59,11 50.85,-12.72 51.19,-40.97zm-34.53 47.35c16,11.02 21.19,12.18 37.76,19.04l25.24 -24.37c-19.71,-11.51 -38.71,-4.75 -63,5.33z"/>
   <path class="fil0" d="M3875.07 729.16c-49.47,-10.6 -51.74,-58.49 -10.65,-65.59 40.62,-7.02 57.18,44.83 10.65,65.59z"/>
   <path class="fil0" d="M4536.72 590.69c-28.78,-53.07 27.31,-64.85 48.46,-33.41 4.93,39.6 -23.84,38.64 -48.46,33.41z"/>
   <path class="fil0" d="M3757.12 775.51c19.78,-38.26 59.71,-23.22 54.76,17.33 -27.31,20.89 -45.67,16.82 -54.76,-17.33z"/>
   <path class="fil0" d="M4047.83 624.64c13.57,2.09 13.09,6.79 26.42,4.32 43.83,-8.11 5.13,-22.66 65.87,29.21 -16.63,4.51 -46.5,2.12 -53.33,-1.68 -21.49,-11.95 0.97,-15.75 -38.96,-31.85z"/>
   <path class="fil0" d="M3948.35 755.9c-23.66,3.64 -21.5,-5.16 -39.73,4.74 -54.47,29.59 -60.41,-45.96 -2.11,-19.58 8.34,3.77 13.01,7 21.5,8.98 17.21,4.03 4.15,-3.56 20.34,5.86z"/>
   <path class="fil0" d="M4435.05 443.01c-33.34,17.78 -37.41,-24.66 -26.02,-42.98 20.24,-2 10.82,-8.98 26.02,42.98z"/>
   <path class="fil0" d="M4359.76 367.58c31.87,-4.32 28.54,24.08 27.32,25.8 -14.71,20.73 -26.7,-13.32 -27.32,-25.8z"/>
   <path class="fil0" d="M4372.71 440.11c12.45,-1.12 20.66,2.88 27.97,10.02 -5.87,10.96 -0.98,4.48 -14.18,14.1l-13.79 -24.12z"/>
   <path class="fil0" d="M3937.85 1014.91c19.7,-1.74 40.55,7.42 55.89,18.05 -19.02,-2.11 -38.99,-7.25 -55.89,-18.05z"/>
   <path class="fil0" d="M4713.79 461.69c0.78,-19.21 -10.52,-9.24 9.42,-30.02l0 20.32c-2.05,2.31 -5.09,5.22 -9.42,9.7z"/>
   <path class="fil0" d="M4059.86 806.87c3.15,-0.16 8.21,4.38 11.03,6.58 -6.79,12.35 -14.66,17.52 -20.07,1.23 3.09,-5.73 -13.73,-6.65 9.04,-7.81z"/>
   <path class="fil0" d="M4704.95 490.45c6.54,16.7 4.45,17.15 -7.36,29.76 -1.85,-9.22 -2.46,-12.6 -0.73,-18.7 2.5,-8.79 0.65,-3.87 8.09,-11.06z"/>
   <path class="fil0" d="M4124.37 525.41c0.79,1.01 3.09,0.03 3.83,0.32 24.6,9.62 10.42,15.17 9.89,17.34 -14.41,-3.06 -13.69,1.12 -13.72,-17.66z"/>
   <path class="fil0" d="M4399.17 503.57c15.13,1.13 2.33,-8.56 18.2,10.62 -20.99,6.15 -5.91,7.63 -16.9,0.42 -13.91,-9.11 -1.36,-9.39 -1.3,-11.04z"/>
  </g>
 </g>
</svg>
