<?xml version="1.0" encoding="UTF-8"?>
<!DOCTYPE svg PUBLIC "-//W3C//DTD SVG 1.1//EN" "http://www.w3.org/Graphics/SVG/1.1/DTD/svg11.dtd">
<!-- Creator: CorelDRAW -->
<svg xmlns="http://www.w3.org/2000/svg" xml:space="preserve" width="1920px" height="1080px" version="1.1" style="shape-rendering:geometricPrecision; text-rendering:geometricPrecision; image-rendering:optimizeQuality; fill-rule:evenodd; clip-rule:evenodd"
viewBox="0 0 1920 1080"
 xmlns:xlink="http://www.w3.org/1999/xlink"
 xmlns:xodm="http://www.corel.com/coreldraw/odm/2003">
 <defs>
  <style type="text/css">
   <![CDATA[
    .fil1 {fill:#373435}
    .fil0 {fill:#373435;fill-rule:nonzero}
   ]]>
  </style>
 </defs>
 <g id="Layer_x0020_1">
  <metadata id="CorelCorpID_0Corel-Layer"/>
  <path class="fil0" d="M960 88.04c91.85,0 175.32,37.55 235.81,98.04 60.49,60.49 98.04,143.96 98.04,235.81l0 236.22c0,91.84 -37.55,175.31 -98.04,235.81 -60.49,60.49 -143.96,98.04 -235.81,98.04 -91.85,0 -175.32,-37.55 -235.81,-98.04 -60.49,-60.5 -98.04,-143.97 -98.04,-235.81l0 -236.22c0,-91.85 37.55,-175.32 98.04,-235.81 60.49,-60.49 143.96,-98.04 235.81,-98.04zm186.32 147.53c-47.84,-47.83 -113.8,-77.53 -186.32,-77.53 -72.52,0 -138.48,29.7 -186.32,77.53 -47.83,47.84 -77.53,113.8 -77.53,186.32l0 236.22c0,72.52 29.7,138.48 77.53,186.31 47.84,47.84 113.8,77.54 186.32,77.54 72.52,0 138.48,-29.7 186.32,-77.54 47.83,-47.83 77.53,-113.79 77.53,-186.31l0 -236.22c0,-72.52 -29.7,-138.48 -77.53,-186.32z"/>
  <path class="fil1" d="M923.69 272.49c0,-19.33 15.67,-35 35,-35 19.33,0 35,15.67 35,35l0 261.44 61.6 -58.21c14.04,-13.22 36.14,-12.54 49.35,1.5 13.22,14.05 12.54,36.14 -1.5,49.36l-118.95 112.41 -0.02 0.02 -0.24 0.23 -0.07 0.06c-0.18,0.17 -0.37,0.35 -0.57,0.52l-0.08 0.07 -0.61 0.54 -0.03 0.02c-0.21,0.18 -0.43,0.36 -0.64,0.53l-0.07 0.06 -0.64 0.5 -0.04 0.03c-0.45,0.35 -0.91,0.68 -1.38,1.01l-0.05 0.03c-0.46,0.32 -0.93,0.62 -1.41,0.92l-0.06 0.04 -0.66 0.39 -0.11 0.07 -0.64 0.36 -0.13 0.07 -0.55 0.3 -0.29 0.14 -0.45 0.23 -0.34 0.17 -0.45 0.21 -0.31 0.14 -0.42 0.19 -0.43 0.18 -0.31 0.13 -0.5 0.2 -0.27 0.1 -0.54 0.2 -0.26 0.09 -0.56 0.19 -0.2 0.07 -0.65 0.2 -0.13 0.04 -0.65 0.19 -0.17 0.05 -0.72 0.19 -0.02 0c-0.27,0.07 -0.54,0.14 -0.81,0.2l0 0c-0.52,0.11 -1.04,0.22 -1.56,0.31l-0.21 0.04 -0.62 0.1 -0.17 0.02 -0.65 0.09 -0.23 0.03 -0.62 0.07 -0.16 0.02 -0.66 0.06 -0.23 0.02 -0.55 0.03 -0.31 0.02 -0.55 0.02 -0.27 0.01 -0.56 0.01 -0.36 0 -0.36 0 -0.56 -0.01 -0.27 -0.01 -0.55 -0.02 -0.31 -0.02 -0.55 -0.03 -0.23 -0.02 -0.66 -0.06 -0.16 -0.02 -0.62 -0.07 -0.23 -0.03 -0.65 -0.09 -0.17 -0.02 -0.62 -0.1 -0.21 -0.04c-0.52,-0.09 -1.04,-0.2 -1.56,-0.31l0 0c-0.27,-0.06 -0.54,-0.13 -0.81,-0.2l-0.02 0 -0.72 -0.19 -0.17 -0.05 -0.65 -0.19 -0.13 -0.04 -0.65 -0.2 -0.2 -0.07 -0.56 -0.19 -0.26 -0.09 -0.54 -0.2 -0.27 -0.1 -0.5 -0.2 -0.31 -0.13 -0.43 -0.18 -0.42 -0.19 -0.31 -0.14 -0.45 -0.21 -0.34 -0.17 -0.45 -0.23 -0.29 -0.14 -0.55 -0.3 -0.13 -0.07 -0.64 -0.36 -0.11 -0.07 -0.66 -0.39 -0.06 -0.04c-0.48,-0.3 -0.95,-0.6 -1.41,-0.92l-0.05 -0.03c-0.47,-0.33 -0.93,-0.66 -1.38,-1.01l-0.04 -0.03 -0.64 -0.5 -0.07 -0.06c-0.21,-0.17 -0.43,-0.35 -0.64,-0.53l-0.03 -0.02c-0.2,-0.18 -0.41,-0.36 -0.61,-0.54l-0.08 -0.07 -0.57 -0.52 -0.07 -0.06 -0.24 -0.23 -0.02 -0.02 -118.95 -112.41c-14.04,-13.22 -14.72,-35.31 -1.5,-49.36 13.21,-14.04 35.31,-14.72 49.35,-1.5l58.98 55.73 0 -258.96z"/>
 </g>
</svg>
