<?xml version="1.0" encoding="UTF-8"?>
<!DOCTYPE svg PUBLIC "-//W3C//DTD SVG 1.1//EN" "http://www.w3.org/Graphics/SVG/1.1/DTD/svg11.dtd">
<!-- Creator: CorelDRAW -->
<svg xmlns="http://www.w3.org/2000/svg" xml:space="preserve" width="4724px" height="4724px" version="1.1" style="shape-rendering:geometricPrecision; text-rendering:geometricPrecision; image-rendering:optimizeQuality; fill-rule:evenodd; clip-rule:evenodd"
viewBox="0 0 4724 4724"
 xmlns:xlink="http://www.w3.org/1999/xlink"
 xmlns:xodm="http://www.corel.com/coreldraw/odm/2003">
 <defs>
  <style type="text/css">
   <![CDATA[
    .fil2 {fill:black}
    .fil4 {fill:black;fill-opacity:0.400000}
    .fil3 {fill:black;fill-opacity:0.600000}
    .fil1 {fill:black;fill-opacity:0.701961}
    .fil0 {fill:black;fill-opacity:0.901961}
   ]]>
  </style>
 </defs>
 <g id="Layer_x0020_1">
  <metadata id="CorelCorpID_0Corel-Layer"/>
  <g id="_2044665369312">
   <path class="fil0" d="M1458.61 2543.26c-1.28,-0.72 -1.93,-2.59 -3.87,-2.1 -1.91,0.48 -3.06,-1.5 -3.96,-1.74l-22.14 -4.69c-1.18,-0.29 -3.25,-1.01 -4.84,-1.6l135.61 -35.73c-31.56,29.46 -65.59,34.14 -100.8,45.86zm113.03 -238.47c19.82,-6.4 23.88,-8.9 42.71,-0.82 2.51,12.01 3.34,4.24 -0.52,17.64 -18.48,1.05 -25.93,-1.88 -42.19,-16.82zm225.17 -280.49c-14.62,-19.73 -33.2,-50.34 -23,-76.85 22.34,-0.92 42.32,48.19 23,76.85zm-1.79 -71.67c23.77,0.04 29.79,2.48 51.25,7.11l8.43 42.1c-27.84,-2.13 -42.26,-22.17 -59.68,-49.21zm-336.41 590.63l-54.49 55.33c36.49,26.77 7.96,11.48 52.32,3.71 8.37,-1.47 23.75,-1.72 31.37,-3.37l-34.63 -6.3c18.46,-14.16 31.81,-9.13 54.78,-16.16 34.47,-10.53 62.91,-5.03 94.16,-4.77 31.26,0.26 16.93,-9.85 44.14,9.94 10.77,-22.12 12.62,-36.13 40.98,-22.97 -68.24,57.73 -59.72,32.76 -127.41,53.21 11.57,4.38 21,10.16 29.75,17.92 -18.22,7.3 -40.35,8.28 -48.74,19.16 14.83,12.86 7.55,10.28 35.04,1.59l112.27 -25.03c4.04,11.7 -2.97,12.44 -2.3,20.27 25.57,8.96 26.55,-10.7 18.68,11.42 -3.38,9.49 -15.85,18.11 -25.03,25.63 1.07,4.65 3.39,6.7 3.88,7.47 0.32,0.51 1.21,1.98 1.59,2.51 7.18,10.15 12.33,16.04 24.21,14.07 33.42,-5.54 -2.5,-23.13 41.88,-14.36 6.22,21.33 2.12,20.89 -14.89,42.71 -11.59,14.86 -17.11,21.09 -12.87,39.68 32.07,-20.63 32.25,-52.04 71.74,-80.59 -1.36,24.05 -19.8,52.2 -27.69,71.91 -9.87,24.63 -24.15,50.52 -8.1,70.12 23.27,-4.73 17.09,-7.87 23.09,-27.15 5.32,-17.09 22.95,-35 29.89,-50.85l6.41 -50.04c24.24,-8.43 12.75,-1.51 27.22,-4.77 16.5,-3.72 6.61,-5.6 20.81,-5.38l42.8 7.45c1.88,-0.66 2.83,-0.39 4.23,-0.19 6.12,22.19 10.76,25.6 31.22,29.05 -0.35,20.59 -0.17,39.5 14.86,53.69l5.21 4.18c-20.85,11.77 -2.5,3.46 -27.74,4.67 -6.36,27.72 3.68,27.66 -27.26,50.95 -38.95,29.32 -38.96,20.73 -30.89,47.16 33.11,-6.09 57.51,-57.57 87.6,-61.49 0.67,23.74 -29.92,44.39 -49.29,60.04 -13.06,10.56 -37.71,22.07 -36.72,35.31 2.09,28.09 4.31,9.81 8.84,13.15 21.61,-7.94 52.58,-44.98 70.95,-61.68 36.8,-33.44 29.62,0.57 48.9,12.82l10.82 5.58c60.16,37.8 39.09,6.62 66.07,30.8 -15.22,26.08 -16.67,35.92 -27.15,66.59 -19.62,57.42 -81.79,147.74 -62.07,207.43 66.88,-109.36 62.83,-295.38 134.1,-276.09 28.19,7.63 53.73,13.23 84.29,5.63l-35.24 24.05 25.23 32.3c24.4,-5.99 16.18,-8.2 34.12,-16.87 1.07,-0.52 2.49,-1.45 3.57,-1.83 1.55,-0.55 6.41,-1.48 7.86,-1.62 38.47,-3.81 7.77,62.27 57.46,49.1 0.8,-29.99 -22.46,-30.93 -5.15,-48.85 15.74,-16.3 9.53,7.6 36.76,-26.37 18.53,10.4 40.6,27.25 59.62,26.17 0.22,-1.53 -0.08,-3.6 -0.15,-4.62 -0.08,-1.01 -0.13,-3.34 -0.23,-4.56 -0.11,-1.19 -0.28,-3.19 -0.41,-4.44 -0.13,-1.22 -0.43,-3.19 -0.57,-4.31 -4.86,-39.89 -2.46,13.08 -2.03,-12.01 17.15,6.6 6.33,7.73 25.65,-1.79l38.94 14.49c-6.31,-8.77 -15.79,-18.48 -23.47,-29.11l7.91 -10.7c-9.19,-6.87 -9.13,-1.28 -18.45,-3.25 6.09,-37.59 12.66,-7.89 19.86,-31.67 4.35,-14.37 -9.99,-29.29 -16.88,-53.5l23.07 11.81c2.5,-8.36 13.74,6.01 -2,-20.26 20.17,14.33 26.35,12.88 45.8,33.48 0.94,-11.92 -20.62,-40.07 -36.01,-62.96 -16.46,-24.49 -35.6,-35.62 -46.71,-63.21 36.81,-5.82 -6.09,21.26 38.43,-8.24l28.76 32.62 -10.8 -35.71 23.38 4.75c7.28,20.87 1.39,18.85 5.05,33.81 14.32,58.54 41.04,1.53 52.61,-10.48 69.59,39.32 -0.48,50.14 -28.97,75.82 -26.82,24.19 -7.59,46.92 -21.31,69.51l-14.06 11.87c24.79,11.09 10.61,-2.22 25.71,13.5 21.82,22.71 31.6,51.26 64.13,63.38 28.86,10.75 72.34,12.09 111.34,-2.01 65.1,-23.55 69.5,-46.59 56.41,-92.57 -9.63,-33.84 8.34,-25.7 -5.78,-56.99 -7.92,-17.53 -27.54,-38.3 -40.33,-50.34 -9.9,1.6 -0.62,5.43 -11.16,2.13 -3.32,-1.03 -13.47,-6.53 -16.22,-8.21 -14.2,-8.64 -25.29,-17.41 -26.71,-34.83 36.14,-5.5 35.75,15.38 64.09,36.51 18.57,13.84 16.25,1.69 32.45,21.42 13.04,15.88 9.12,23.52 25.66,37.57 2.97,-9.11 1.37,0.35 1.12,-12.87 -0.25,-12.83 -3.64,-23.55 2.01,-33.68 9.7,15.59 18.04,41.9 15.25,56.65 -6.13,32.41 -25.06,3.15 -15.32,40.34 46.72,9.74 26.32,-51.27 42.11,-75.82 6.66,2 4.25,-0.77 16.06,6.76 32.92,21.02 84.69,177.62 97.39,212.34 17.95,49.08 62.74,207.1 103.46,227.33 11.92,-39.32 -40.07,-186.89 -50.97,-241.05 -8.1,-40.22 5.27,-61.41 -5.99,-112.14 -19.25,-86.68 5.57,-62.79 0.61,-111.21 9.3,-8.53 -7.21,-0.22 7.2,0.6 19.71,1.12 -3.86,16.51 4.75,-0.44l-40.93 -69.11c26.05,-14.33 47.17,9.59 70.22,30 45.08,39.92 58.77,56.7 113.44,31.89 8.74,-3.97 17.02,-9.94 19.96,-11.34 26.87,-12.81 59.9,12.51 90.94,14.24l-44.4 -21.85c34.5,-1.73 68.85,2.31 97.2,1.56 20.13,-27.08 9.33,-52.18 71.84,-41.89 42.76,7.05 54.37,35.89 79.28,-14.27 -13.36,-19.13 -10.97,-6.86 -25.5,-21.7 -21.03,-21.48 -3,-8.55 -17.52,-28.97 -35.08,-49.36 -67.3,-52.31 -16.45,-112.53l5.62 -7.01c31.84,-37.65 106.52,-8.6 110.46,-76.63 2.47,-42.6 -40.65,-64.2 -65.89,-63.55 -53.26,1.37 -55.82,31.13 -64.11,62.59l-25.34 -19.35c-3.71,8.96 -0.97,0.97 -5.14,13.24 -3.62,10.64 0.41,-2.08 -1.99,8.4 -52.13,-20.64 -82.53,-33.03 -155.31,8.71 -73.47,-75.29 -6.84,-77.56 -21.51,-127.52 -11.4,-38.8 -26.71,-38.23 -52.62,-48.78 -31.53,-12.83 -14.22,-23.49 -60.12,-9.3l-49.2 -42.06c12.87,-6.62 21.02,-12.78 34.91,-11.8l30.07 2.63c15.26,-3.07 52.29,-11.32 60.47,-16.45 -19.49,-44.78 -85.78,-0.65 -106.11,-49.32 37.98,-18.85 79.41,-11.79 118.19,-27.93 -67.92,0.54 -35.96,-5.39 -62.67,-15.87l-37.02 -12.43c-7.06,-1.98 -3.19,-0.14 -11.99,-2.95 -15.17,-4.84 -6.04,-7.66 -24.72,-9.78l65.92 -32.4c-33.43,2.34 -36.41,20.27 -75.18,16.26 11.17,-31.93 27.1,-20.82 48.26,-44.46 -50.57,25.41 -63.15,44.71 -114.51,46.48 0.5,-13.65 -1.77,-0.86 2.51,-12.92 21.78,-61.43 115.54,-22.73 70.63,-159.04l56.17 -23.67c-14.87,6.17 -38.32,9.82 -55.16,6.59 -7.03,-23.88 -23.9,-100.39 -24.21,-124.72 -0.23,-17.75 7.45,-42.59 0.43,-58.68 -10.71,-24.52 -26.83,-17.43 -39.58,-55.99 0.51,-9.68 16.12,-24.98 22.76,-35.29 19.95,-30.97 -22.89,-36.85 -43.92,-67.82 -21.3,-31.37 -6.83,-40.31 -27.77,-76.38 -54.04,9.42 -44.76,43.44 -64.74,78.07 -23.37,6.81 -14,-0.02 -32.19,4.28 -28.07,6.64 -58.92,42.66 -85.38,23.66 -18.65,-19.59 -7.16,-38.41 0.38,-56.55 11.74,-28.27 6.36,-36.05 -13.13,-67.9 -44.79,26.07 -46.55,40.64 -75.15,65.12 -16.16,-1.47 -16.23,-4.63 -30.78,-8.63l-33.19 29.09c-21.45,-72.29 43.26,-97.38 32.57,-136.54 -55.19,9.61 -61.81,54.31 -98.48,76.89 -10.85,-46.06 17.34,-54.46 -27.24,-100.3l-43.45 23.26c-1.58,-25.37 15.43,-46.13 23.19,-65 11.74,-28.55 18.35,-30.02 49.45,-47.92 25.38,-14.62 43.89,-35.08 67.16,-45.6 30.59,-13.83 36.9,-2.16 71.51,-24.55 -21.49,1.86 -53.81,-2.82 -71.9,2.61 -29.92,8.99 -42.57,33.26 -68.95,45.77 0.91,-35.33 15.13,-49.95 35.37,-87.85l-7.39 1.45c-0.85,0.25 -2.69,0.75 -3.63,1.06 -0.96,0.31 -2.63,1 -3.62,1.36l-18.5 7.68c-23.14,-24.75 -26.85,-43.64 -57.12,-46.67 -39.77,44.4 -3.44,123.38 -23.26,161.98 -19,37.01 -82.55,105.32 -89.97,135.23 12.06,0.33 31.31,-4.73 45.37,-9.21 0.41,34.8 -8.49,41.77 -39.89,46.17 -23.04,3.22 -47.94,16.68 -69.15,16.24 -16.46,-17.36 -14.26,-25.55 -13.12,-43.13l-23.2 -6.19c-26.41,-7.66 -26.52,13.82 -58.68,25.63 -25.3,-48.36 -26.82,-85.34 -89.48,-68.17 -111.2,30.49 -30.96,97.87 -30.19,151.8 0.24,16.98 -10.07,38.54 -4.91,53.86 14.45,42.83 58.27,0.38 90.45,32.95 -6.57,27.6 -19.87,28.63 -46.97,23.48 -31.53,-5.98 -22.87,-11.29 -36.05,-35.85 -19.02,21.21 -25.15,4.48 -61.76,-12.79l17.23 41.03c-64.88,-37.69 -143.58,-103.47 -204.22,-159.04 -68.19,-62.49 -37.43,-61.54 -72.13,-123.06 -51.32,-91.01 -187.37,102.9 -50.59,134.23 39.59,9.07 78.27,3.67 122.56,16.77 55.52,16.41 57.7,51.48 100.57,88.42 55.9,48.17 25.68,28.04 25.5,40.43 -0.28,18.45 25.91,12.6 42.63,34.58 -4.33,21.44 -9.59,15.3 -19.21,31.66 -14.03,23.84 -4.17,4.77 -2.11,31.9l-75.83 -48.06c20.24,31.01 52.52,44.9 77.72,68.35l-22.77 15.71c-33.93,-28.05 -70.59,-76.5 -114.62,-12.71 -36.67,53.12 -0.78,67.38 24.58,118.06 -20.94,4.19 -14.31,3.99 -30.96,-4.74 9.32,5.43 23.41,13.1 29.5,19.65 14.89,16.01 8.76,25.07 8.06,30.3l-75.32 -6.01 -16.46 -58.55c1.39,-1.32 7.24,-0.81 11.77,-10.54 -20.56,-10.62 -7.24,-9.13 -17.71,-21.41l-6.61 -6.59c0.83,-1.28 -2.11,-2.37 -3.54,-2.93 -0.48,16.37 3.26,28.49 6.18,44.44l-3.04 39.47 -27.52 -10.98c1.41,-0.09 0.79,2.84 1.3,1.7l-51.68 -10.3c20.35,13.8 25.57,13.68 49.33,20.02 45.28,12.1 15.79,21.94 12.14,25.25 36.07,-2.31 31.8,34.29 26.73,56.36l-13.67 -4.89c-0.61,1.43 -2.7,6.55 -3.47,8.11 -6.66,13.5 6.81,-2.88 -9.99,16.06 -20.84,-22.37 -122.44,-121.48 -156.16,-135.18 21.14,26.91 55.6,52.79 80.3,76.09 23.78,22.43 16.44,25.27 23.69,37.58 4.1,6.95 27.5,26.19 35.63,35.73 -20.55,4.73 -29.88,-5.71 -52.22,-8.37 11.64,39.39 14.11,13.85 29.61,43.75 -104.53,-43.43 -77.92,-63.27 -127.97,-103.96 -15.5,-12.6 -26.84,-22.59 -39.84,-36.17 8.22,17.96 55.89,71.73 68.36,83.73l-14.46 7.66c26.01,13.12 39.86,25.86 59.33,57.17 16.37,26.33 36.02,43.93 37.4,67.13 -19.55,-3.84 -35.65,-23.57 -48.86,-38.96 0.55,-0.86 1.92,-1.9 2.12,-2.2 0.18,-0.27 1.57,-1.79 1.73,-2.11 6.06,-12.02 3.04,16.84 1.42,-3.54l-13.23 -16.64c-1.23,-1.85 -3.13,-6.15 -6.45,-11.06 -10.81,-15.97 -30.98,-34.68 -44.85,-43.41 10,15.17 7.66,10.45 12.18,24.95 4.63,14.83 -6.79,-1.52 6.56,23.3 24.01,44.64 59,41.24 60.98,99.24 -17.51,-21.74 -61.85,-42.22 -89.31,-66.58l8.31 28.39c3.91,42.36 -15.13,-38.97 0.45,10.94 13.47,16.8 42.95,32.42 62.71,36.82l3.83 0.92c16.58,11.03 1.99,0.05 0.36,5.72 -0.06,0.21 -1.9,2.34 -1.24,2.12 0.7,-0.23 -1.16,1.35 -1.5,2.15 8.72,16.77 22.79,23.56 43.96,43.98 -25.08,27.34 -4.1,-4.39 -18.15,7.11 -13.88,11.35 -2.21,-12.25 -1.43,4.86l1.88 5.76c1.13,-0.22 1.17,2.1 1.27,3.88l-39.5 -1.26 26.61 17.09c-26.67,13.19 -45.14,-6.42 -79.69,-6.27l35.65 19.57 -105.31 35.94c25.89,2.71 65.88,-15.12 85.22,-11.39 14.6,2.81 53.89,28.09 61.99,41.84 -45.17,25.66 -27.37,20.31 -72.34,25.83 10.61,6.29 10.88,5.88 20.04,12.07 19.86,13.41 26.95,8.56 42.84,19.98 -15.84,30.05 -34.26,18.48 -68.76,20.46 -18.12,-44.47 -24.28,-19.4 -70.67,-18.4 -17.18,0.38 -13.17,-0.14 -27.54,2.65 19.3,11.76 21.23,6.19 42.4,4.56 29.55,-2.28 3.34,-13.53 33.03,12.93l-65.21 7.65c15.74,9.54 51.84,6.56 71.62,6.46 -23.33,9.21 -41.14,0.34 -52.15,17.67 19.23,12.16 0.31,6.88 27.22,3.09 22.69,-3.2 62.53,-10.38 83.75,-6.12 -31.79,11.7 -39.1,3.75 -71.29,19.08 -39.14,18.63 -190.17,72.01 -219.14,65.15 -13.46,-3.19 -17.12,-9.83 -29.53,-14.05 -40.21,-13.68 -69,4.67 -96.94,11.33l-140.98 18.39c22.93,18.76 92.11,2.26 123.67,-4.87 64.75,-14.64 40.23,-9.2 60.74,-2.83 17.51,5.43 39.39,3.19 57.54,5.64l61.91 -5.33c55.9,-17.68 80.65,-1.35 123.93,-13.72z"/>
   <path class="fil0" d="M3184.52 1595c15.49,-28.19 131.41,-78.93 153.84,-114.08 -53.15,18.35 -323.54,162.06 -200.35,249.01 64.29,45.37 73.41,-3.34 105.18,-18.94 69.66,-34.21 202.7,-3.16 167.33,-125.79 -31.32,-108.57 -172.28,18.29 -226,9.8z"/>
   <path class="fil0" d="M2979.68 1665.31c26.19,-14.25 15.1,-22.99 44.05,-35.23 28.22,-11.93 29.56,-2.68 54.43,-31.73 19.18,-22.39 55.81,-85.89 6.99,-96.73 -55.09,-12.23 -91.94,85.08 -109.66,116.25 -13.39,23.54 -16.35,25.29 4.19,47.44z"/>
   <path class="fil0" d="M3294.15 3001.86c11.84,53.17 96.64,153.44 140.22,110.5 -5.75,-56.31 -67.85,-86.26 -93,-105.02 -21.18,-15.79 -21.03,-20.35 -47.22,-5.48z"/>
   <path class="fil0" d="M1833.89 1367.39c-26.82,13.17 -33.36,18.69 -23.08,45.23 4.6,11.87 21.92,42.97 29.74,52.22 12.82,15.17 58.85,63.14 78.31,67.98 1.53,-24.51 -8.14,-31.04 -24.26,-53.09 -37.24,-50.94 13.54,-79.28 -60.71,-112.34z"/>
   <path class="fil0" d="M2053.7 1148.09c-48.84,35.88 1.98,104.7 56.74,71.63 62.5,-37.75 -4.81,-109.79 -56.74,-71.63z"/>
   <path class="fil0" d="M2526.66 3111.49c-41.65,34.69 -22.48,95.07 14.76,141.43 26.02,-27.1 38.77,-112.32 -14.76,-141.43z"/>
   <path class="fil0" d="M3121.63 3364.34c31.45,-19.38 -19.8,-138.61 -46.73,-167.65 -7.28,9.84 -17.71,0.08 -9.07,41.16 11.54,54.88 34.11,103.1 48.25,119.94l7.55 6.55z"/>
   <path class="fil0" d="M1295.3 2114.81c-57.16,-23.78 -92.78,22.84 -56.37,58.58 35.99,35.34 88.75,-5.31 56.37,-58.58z"/>
   <path class="fil0" d="M3500.39 2320.57c62.8,-20.09 42.05,-74.11 3.63,-78.49 -48.93,-5.59 -51.83,52.3 -3.63,78.49z"/>
   <path class="fil0" d="M2219.89 1272.22c-34.55,-27.14 -93.2,20.44 -48.56,55.96 29.85,23.76 87.23,-25.58 48.56,-55.96z"/>
   <path class="fil0" d="M2781.29 1410.72l80.16 -83.26c28.46,-32.27 65.51,-63.54 53.96,-103.19 -54.12,43.51 -94.5,133.63 -134.12,186.45z"/>
   <path class="fil0" d="M1864.7 2714.63c-65.89,33.38 -17.65,84.27 25.52,67.35 32.52,-36.41 2.9,-55.47 -25.52,-67.35z"/>
   <path class="fil0" d="M1208.87 1986.07c-6.72,52.27 43.92,64.92 67.16,20.68 -12.94,-40.03 -34.24,-48.71 -67.16,-20.68z"/>
   <path class="fil0" d="M2976.77 2841.74c-6.03,25.64 11.17,30.29 33.37,52.32 34.44,34.19 32.27,41.76 58.61,42.33 -8.38,-23.57 -21.75,-44.11 -39.16,-64.59 -18.91,-22.25 -28.53,-34.39 -52.82,-30.06z"/>
   <path class="fil0" d="M2399.73 1061.81l26.49 -9.23c-3.85,-46.72 -12.95,-42.77 -2.91,-89.86 -10.23,-1.09 -24.6,-4.23 -35.07,-6.73l11.49 105.82z"/>
   <path class="fil0" d="M2720.77 1387.02c14.89,-0.44 12.67,3.42 16.57,6.79 13,-14.66 26.33,-28.92 37.3,-46.35 13.46,-21.38 18.51,-30.87 11.52,-56.3 -42.47,32.69 -45.7,63.01 -65.39,95.86z"/>
   <path class="fil0" d="M1396.39 2340.21c15.11,7.34 17.9,2.28 29.6,14.05 38.45,38.65 -10.61,26.37 86.61,16.45 -13.59,-16.11 -45.32,-34.51 -54.84,-35.43 -29.94,-2.93 -9.98,16.53 -61.37,4.93z"/>
   <path class="fil0" d="M3350.54 2814.47c8.72,16.98 22.57,30.58 37.91,39.83 9.53,5.74 41.24,21.21 47.35,3.37 14.29,-41.7 -73.2,-35.06 -85.26,-43.2z"/>
   <path class="fil0" d="M1998.3 998.97c1.5,15.4 8.2,39.18 19.64,53.43 18.22,22.71 11.79,10.18 17.67,12.36 8.42,-23.18 12.81,-102.29 -37.31,-65.79z"/>
   <path class="fil0" d="M2102.87 3035.43c-11.36,26.16 -11.8,46.95 -14.24,80.72 -1.84,25.43 -7.26,55.74 -3.74,78.89 27.9,-24.71 23.43,-118.39 17.98,-159.61z"/>
   <path class="fil0" d="M1387.65 2138.9c-21.28,-20.13 -25.22,-9.78 -36.67,-32.42 -34.23,-67.69 -92.79,4.2 -15.77,18.23 11.02,2.01 17.97,2.01 27.89,5.93 20.13,7.92 1.7,6.48 24.55,8.26z"/>
   <path class="fil0" d="M3300.55 2194.2c29.21,25.02 78.63,20.69 91.01,14.79 34.18,-16.29 5.35,-0.09 14.71,-14.08 -14.24,-12.84 -2.48,-10.6 -25.04,-9.94 -15.91,0.47 -54.62,11.27 -80.68,9.23z"/>
   <path class="fil0" d="M3256.46 2257.53c-8.84,-67.65 -88.77,-20.04 -36.91,9.8 19.15,11.01 30.14,-1.25 36.91,-9.8z"/>
   <path class="fil0" d="M3200.36 2846.09c-7.39,-3.76 -21.45,-14.68 -32.61,5.32 -5.59,10.02 -0.36,24.54 11.59,31.34 23.64,13.46 55.34,-19.22 21.02,-36.66z"/>
   <path class="fil0" d="M1659.62 2792.47c-21.17,-41.09 -54.81,-1.21 -56.1,25.15 18.98,16.09 4.64,16.56 56.1,-25.15z"/>
   <path class="fil0" d="M1939.48 3011.05c-13.44,28.16 -36.77,77.69 -29.19,109.89 14.74,-21.29 36.08,-85.71 29.19,-109.89z"/>
   <path class="fil0" d="M2399.73 1061.81l-14.71 3.53 -13.53 -38.1c5.04,26.78 -0.91,65.47 25.29,80.12 20.4,-13.79 8.56,-16.41 2.95,-45.55z"/>
   <path class="fil0" d="M1531.36 2815.98c29.06,26.53 45.48,-4.36 45.45,-6.95 -0.37,-31.1 -36.14,-5.17 -45.45,6.95z"/>
   <path class="fil0" d="M1594.87 2752.01c11.75,9.79 22.79,11.48 35.12,9.39 1.73,-15.13 2.13,-5.19 -4.45,-24.06l-30.67 14.67z"/>
   <path class="fil0" d="M1557.35 1870.96c18.61,15.46 45.96,20.76 68.8,20.75 -20.61,-11.13 -44.28,-19.85 -68.8,-20.75z"/>
   <path class="fil0" d="M1953.09 2967.68c-12.87,20.34 -17.21,1.1 -11,39.29 17.17,-17.18 15.4,-12.71 11,-39.29z"/>
   <path class="fil0" d="M1535.33 2165.22c3.06,2.35 11.31,1.31 15.67,1.05 1.77,-17.14 -2.55,-27.83 -19.34,-15.2 -0.87,7.91 -18.44,-2.87 3.67,14.15z"/>
   <path class="fil0" d="M1964.22 2932.59c18.2,-12.25 16.41,-14.17 13.31,-35.07 -8.28,7.99 -11.25,10.96 -13.75,18.31 -3.6,10.58 -2.04,4.34 0.44,16.76z"/>
   <path class="fil0" d="M1404.35 2493.33c1.5,-0.47 3.13,2.12 4.08,2.35 31.44,7.43 21.04,-8.01 22.02,-10.56 -16.63,-6.96 -13,-10.66 -26.1,8.21z"/>
   <path class="fil0" d="M1665.66 2706.57c16.02,9.39 -3.61,10.23 25.71,1.97 -16.85,-20.79 -0.64,-11.78 -16.71,-12.18 -20.34,-0.51 -7.91,8.5 -9,10.21z"/>
  </g>
  <g id="_2044665359952">
   <path class="fil1" d="M1481.66 2491.72c-1.2,-0.03 -2.39,-1.13 -3.59,-0.02 -1.19,1.08 -2.79,0.1 -3.53,0.27l-17.76 5.18c-0.96,0.24 -2.73,0.52 -4.1,0.72l83.88 -78.12c-11.36,33.41 -34.06,49.93 -54.9,71.97zm-10.69 -215.44c11.8,-12.26 13.75,-15.63 30.44,-17.09 6.45,7.69 4.04,1.77 6.44,12.91 -12.91,7.9 -19.4,8.67 -36.88,4.18zm53.84 -289.01c-18.16,-8.56 -43.36,-23.43 -46.26,-46.47 15.74,-9.29 49.1,18.37 46.26,46.47zm-28.98 -50.93c17.14,-9.15 22.42,-9.72 39.66,-14.68l22.34 27.07c-20.88,9.22 -39,0.36 -62,-12.39zm-14.17 555.38l-17.87 60.9c36.62,5.18 10.17,5.19 39.12,-17.54 5.46,-4.29 16.45,-10.41 21.29,-14.55l-27.38 8.84c7.83,-17.33 19.39,-18.86 33.23,-32.79 20.75,-20.91 43.36,-27.93 65.97,-39.81 22.62,-11.89 8.39,-13.64 35.63,-9.9 -0.78,-20.09 -4.86,-30.89 20.65,-32.37 -26.86,67.94 -30.36,46.66 -71.22,87.55 10.03,-1.33 19.05,-0.8 28.35,1.41 -10.3,12.29 -25.86,21.55 -27.71,32.63 15.65,3.53 9.42,4.49 25.86,-12.39l71.2 -61.4c7.43,6.87 2.67,10.11 6.17,15.49 21.88,-3.43 14.99,-17.96 17.87,1.01 1.23,8.14 -4.42,19.17 -8.13,28.13 2.56,2.93 5.03,3.52 5.68,3.88 0.43,0.24 1.64,0.96 2.12,1.2 9.09,4.53 15.07,6.78 22.87,0.77 21.93,-16.89 -10.74,-15.68 24.62,-26.51 12.72,12.96 9.59,14.23 5.77,36.51 -2.61,15.18 -4.18,21.81 6.05,33.56 15.14,-27.25 3.13,-49.95 20.55,-85.77 8.31,17.85 5.9,45.25 7.83,62.5 2.41,21.55 2.12,45.71 21.26,53.63 14.93,-12.4 9.27,-12.27 6.14,-28.47 -2.77,-14.37 3.01,-34.08 1.89,-48.18l-14.71 -38.52c14.2,-15.43 8.59,-6.01 17.76,-13.95 10.44,-9.05 2.6,-6.58 12.91,-11.91l33.71 -11.16c1.1,-1.2 1.88,-1.38 2.97,-1.77 12.98,13.62 17.64,14.28 33.71,8.86 7.7,14.96 15.13,28.52 31.44,32.93l5.37 1c-10.48,16.53 -0.47,3.46 -18.18,14.08 6.13,22.42 13.34,18.5 0.05,47.23 -16.73,36.16 -20.06,29.98 -4.04,45.9 21.5,-17.17 19.19,-63.68 39.35,-78.13 9.65,16.85 -4.41,43.53 -12.31,62.29 -5.33,12.65 -18.63,30.46 -12.81,39.61 12.36,19.44 6.89,5.41 11.44,6.06 12.5,-14.07 20.5,-52.71 27.29,-71.83 13.59,-38.31 21.55,-11.04 40.17,-9.66l9.95 -0.16c57.93,3.99 30.71,-10.33 59.49,-3.34 -0.89,24.67 1.87,32.32 6.16,58.46 8.05,48.94 -1.84,138.01 35.42,173.39 5.93,-104.61 -68.85,-237.03 -10.06,-250.67 23.26,-5.39 43.82,-11.23 62.89,-28.51l-16.09 30.94 30.65 13.52c15.26,-13.74 8.48,-12.15 18.06,-25.33 0.57,-0.79 1.23,-2.01 1.86,-2.7 0.91,-0.99 4.05,-3.54 5.04,-4.2 26.24,-17.61 29.65,41.85 60.35,13.17 -11.01,-21.91 -28.12,-13.61 -22.58,-33.2 5.05,-17.82 9.8,1.8 16.29,-33.19 17.37,0.34 39.78,3.94 53.05,-4.18 -0.42,-1.19 -1.43,-2.56 -1.88,-3.27 -0.45,-0.7 -1.38,-2.36 -1.93,-3.19 -0.54,-0.82 -1.43,-2.2 -2.01,-3.05 -0.56,-0.83 -1.54,-2.13 -2.08,-2.88 -18.91,-26.86 3.29,10.37 -6.1,-7.87 14.91,-1.87 7.55,3.12 17.79,-11.19l33.64 -4.61c-7.93,-3.88 -18.51,-7.22 -28.15,-11.9l1.57 -10.76c-9.27,-1.4 -7.07,2.6 -14.55,4.78 -10.14,-29.43 6.07,-10.57 2.07,-30.48 -2.42,-12.03 -18.51,-17.24 -32.82,-32.02l21.18 -0.4c-1.44,-6.99 12.22,-0.98 -9.27,-13.82 20.06,2.53 23.95,-0.9 45.92,6.42 -3.92,-8.95 -30.33,-20.9 -50.25,-31.44 -21.32,-11.28 -39.41,-11.91 -58.06,-27.48 24.26,-18.42 3.82,17.66 24.49,-20.79l33.32 12.39 -21.58 -21.55 18.68 -5.61c13.31,12.22 8.28,13.04 16.7,22.4 32.93,36.64 30.15,-14.75 33.84,-27.87 65.32,1.45 19.03,36.3 8.43,65.81 -9.98,27.78 12.65,36.72 11.5,58.3l-5.55 13.98c22.14,-1.59 6.79,-5.7 23.73,-0.21 24.5,7.93 42.57,24.71 70.68,20.88 24.95,-3.4 56.78,-19.24 79.42,-44.46 37.8,-42.11 32.07,-60.4 4.88,-88.47 -20.01,-20.65 -3.92,-21.73 -26.18,-38.81 -12.48,-9.57 -34.64,-16.95 -48.5,-20.68 -6.5,4.97 1.66,4.15 -7.21,5.85 -2.79,0.53 -12.23,0.49 -14.85,0.35 -13.57,-0.74 -24.95,-2.77 -32.7,-14.77 23.91,-17.93 31.7,-2.74 60.26,1.53 18.73,2.8 12.37,-5.06 31.66,2.9 15.52,6.4 15.65,13.42 32.99,17.15 -1.37,-7.71 1.12,-0.28 -4.16,-9.7 -5.14,-9.15 -11.72,-15.56 -11.57,-25.04 13.01,7.48 29.19,23.21 32.87,34.91 8.11,25.71 -16.83,11.95 4.55,34.98 37.42,-11.04 -0.84,-47.1 1.04,-70.88 5.58,-1.13 2.76,-2.2 14.18,-1.33 31.83,2.42 129.62,95.22 152.17,115.32 31.89,28.42 125.2,124.94 162.34,123.78 -6.6,-32.92 -101.05,-119.13 -129.83,-153.93 -21.37,-25.85 -19.92,-46.28 -47.63,-78.46 -47.34,-55 -20.24,-47.38 -42.52,-80.35 3.4,-9.73 -5.27,2.63 5.42,-2.34 14.64,-6.81 3.59,13.38 3.25,-2.16l-56.17 -33.96c13.22,-20.39 37.67,-11.32 62.16,-5.52 47.9,11.34 64.24,18.14 94.03,-20.85 4.77,-6.23 8.42,-13.73 10,-15.88 14.41,-19.6 47.97,-14.13 71,-24.87l-40.42 1.42c24.18,-14.58 50.49,-24.94 70.62,-36.43 4.04,-27.28 -13.44,-41.19 35.56,-57.92 33.53,-11.44 53.03,4.84 51.59,-40.91 -17.01,-8.61 -10.54,-0.7 -26.74,-5.78 -23.45,-7.35 -5.46,-5 -23.81,-14.1 -44.34,-22 -68.69,-11.68 -55.32,-74.7l1.34 -7.22c8.39,-39.41 73.4,-47.34 49.96,-97.86 -14.68,-31.64 -54.07,-30.54 -72,-20.32 -37.84,21.56 -28.19,43.98 -22.01,69.84l-25.72 -4.15c0.79,7.89 -0.33,1.08 1.41,11.53 1.5,9.06 -0.51,-1.66 1.81,6.82 -45.52,5.26 -72.21,8.09 -108.5,66.26 -82.01,-25.85 -34.89,-53.22 -64.76,-83.54 -23.2,-23.55 -34,-17.23 -56.74,-14.81 -27.67,2.94 -19.32,-11.43 -46.9,16.52l-51.69 -11.29c6.72,-9.74 10.21,-17.33 20.59,-21.98l22.68 -9.73c9.8,-8.1 33.29,-28.35 37.2,-35.2 -31.34,-24.73 -62.04,32.66 -95.48,5.46 20.07,-28.25 52.64,-39.16 74.34,-65.77 -48.71,26.62 -27.98,10.01 -51.27,12.78l-31.47 5.34c-5.85,1.31 -2.35,1.14 -9.78,2.51 -12.79,2.38 -7.3,-3.18 -21.57,2.5l34.96 -48.8c-23.17,14.6 -18.39,28.67 -47.87,40.76 -4.29,-27.31 11.48,-25.47 17.59,-50.67 -26.61,37.83 -28.22,56.6 -64.54,77.71 -4.9,-10.02 -1.6,0.07 -3.18,-10.27 -8.03,-52.66 74.45,-61.01 -10.55,-141.84l31.31 -38.75c-8.33,10.19 -23.81,21.88 -37.19,26.05 -14.28,-14.48 -55.99,-63.08 -65.61,-80.48 -7.02,-12.7 -11.08,-33.56 -22.35,-42.43 -17.19,-13.53 -26.06,-2.19 -50.14,-25.04 -3.37,-7.17 1.96,-24.22 2.76,-34.22 2.4,-30.01 -30.72,-17.69 -57.83,-31.88 -27.47,-14.37 -20.5,-26.4 -49.51,-44.29 -35.29,27.66 -15.46,48.58 -16.48,81.24 -14.2,13.93 -10.08,5.4 -21.53,15.52 -17.65,15.62 -25.96,53.49 -52.36,50.03 -21,-6.91 -19.99,-24.91 -21.57,-40.89 -2.46,-24.9 -9.35,-28.42 -35.68,-43.84 -22.19,36.08 -17.84,47.26 -28.98,75.94 -12.21,5.19 -13.48,2.94 -25.51,5.67l-12.67 33.78c-43.37,-43.79 -6.45,-86.85 -29.28,-110.93 -36.04,28.24 -23.54,62.99 -41.23,93.42 -25.61,-28.98 -8.55,-45.93 -58.37,-61.72l-22.31 33.54c-10.93,-17.66 -6.7,-39.19 -8.4,-55.78 -2.57,-25.1 1.62,-28.71 17.1,-53.62 12.64,-20.33 18.07,-42.22 30.77,-58.79 16.69,-21.78 25.75,-15.8 42.02,-45.3 -14.76,9.64 -39.84,18.75 -50.78,29.66 -18.08,18.02 -17.81,40.39 -31.98,59.6 -12.99,-25.81 -8.4,-41.83 -8.47,-76.95l-4.76 3.9c-0.51,0.5 -1.64,1.58 -2.2,2.17 -0.57,0.59 -1.51,1.74 -2.08,2.38l-10.36 12.67c-26.22,-8.88 -36.2,-21.06 -59.17,-11.54 -11.5,47.33 45.18,90.19 45.82,125.65 0.6,34 -18.78,107.75 -12.57,132.16 8.81,-4.42 20.72,-15.5 29.12,-24.16 13.74,24.91 10.02,33.36 -10.9,48.66 -15.35,11.23 -28.09,30.53 -43.54,38.42 -18.56,-6.15 -20.13,-12.9 -26.11,-26l-19.1 4.5c-21.98,4.68 -13.76,20.2 -32.37,41.12 -36.9,-25.06 -52.28,-51.11 -90.78,-14.53 -68.32,64.91 15.5,82.45 36.89,121 6.74,12.14 7.63,31.65 17.27,40.69 26.95,25.28 42.12,-22.23 77.87,-11.2 5.94,22.42 -3.24,28.29 -24.75,35.06 -25.02,7.87 -20.84,0.69 -39.82,-11.9 -5.5,22.62 -16.38,12.94 -49.43,14.64l28.26 22.9c-61.29,-2.09 -143.38,-19.06 -208.53,-35.67 -73.26,-18.67 -50.73,-29.87 -99.49,-60.78 -72.12,-45.73 -95.21,146.5 15.41,116.23 32.02,-8.76 57.8,-27.59 94.76,-35.27 46.33,-9.62 61.45,14.8 106.6,24.85 58.87,13.1 29.33,10.27 33.98,19.27 6.92,13.4 23.53,-0.93 44.06,8.44 5.17,17.12 -0.99,14.72 -1.61,30.22 -0.89,22.59 -1.16,5.05 10.81,23.79l-73.18 -5.32c26.55,14.52 55.16,12.06 82.38,19.21l-10.34 20.12c-35.27,-7.1 -80.39,-27.84 -87.47,35.11 -5.89,52.43 25.47,48.84 63.32,75.55 -13.47,11.1 -8.77,8.4 -24.14,8.54 8.81,0.31 21.92,0.39 28.84,2.76 16.91,5.78 16,14.68 17.51,18.71l-56.58 24.77 -34.46 -35.82c0.49,-1.49 4.9,-3.38 4.4,-12.13 -18.91,0.28 -8.74,-3.78 -21.03,-8.59l-7.3 -2.19c0.1,-1.24 -2.44,-0.89 -3.68,-0.75 5.98,11.98 13.35,19.27 21.61,29.63l13.06 29.6 -24.07 2.73c0.99,-0.61 1.67,1.73 1.6,0.72l-41.21 12.54c20,2.08 23.71,-0.02 43.27,-4.63 37.29,-8.78 19.85,9.7 18.5,13.49 25.09,-15.59 36.15,12.42 41.02,30.27l-11.73 1.76c0.11,1.27 0.58,5.77 0.63,7.19 0.42,12.29 3.8,-4.71 -0.99,15.42 -23.66,-8.06 -135.12,-40.21 -164.7,-37.04 25.62,11.21 60.44,16.55 87.23,23.79 25.79,6.96 21.61,11.84 31.58,17.91 5.64,3.42 29.93,8.24 39.47,11.98 -12.97,11.34 -23.73,7.42 -40.84,14.13 23.59,23.89 15.5,4.53 38.22,20.08 -92.07,9.1 -80.57,-15.47 -132.34,-25.45 -16.02,-3.09 -28.05,-5.9 -42.66,-10.66 12.85,9.76 67.96,30.08 81.58,33.9l-7.46 11.11c23.81,-0.6 38.7,3.22 64.82,18.26 21.96,12.64 42.92,17.73 52.87,33.9 -15.56,4.79 -34.79,-3.2 -50.24,-9.18 0.07,-0.83 0.65,-2.12 0.67,-2.41 0.03,-0.26 0.45,-1.9 0.44,-2.19 -0.28,-10.99 8.7,10.96 -0.35,-3.1l-15.95 -6.87c-1.61,-0.86 -4.63,-3.22 -8.92,-5.48 -13.96,-7.32 -35.72,-13.01 -49.08,-13.94 13.07,7.06 9.56,4.57 18.42,13.27 9.06,8.89 -5.49,1.53 13.72,14.25 34.54,22.87 58.43,6.91 82.26,47.92 -21.01,-8.89 -60.87,-6.51 -90.05,-13.45l16.95 17.23c19.18,29.01 -25.95,-22.22 4.55,7.71 16.19,6.9 43.46,6.77 59.4,2.3l3.1 -0.82c16.21,1.54 1.46,-0.73 2.48,3.99 0.04,0.17 -0.47,2.41 -0.08,2 0.42,-0.44 -0.31,1.42 -0.25,2.13 12.76,8.7 25.52,8.16 48.66,14.7 -7.51,29.37 -4.65,-1.59 -10.33,12.13 -5.61,13.53 -6.32,-7.98 0.84,4.05l3.59 3.42c0.72,-0.59 1.65,1.06 2.41,2.3l-28.94 14.35 25.77 2.04c-14.12,19.8 -35,12.82 -59.82,26.26l33.24 0.33 -61.98 66.56c19.7,-8.04 41.62,-36.34 56.99,-41.12 11.6,-3.61 49.66,-0.58 60.81,6.19 -22.62,35.94 -11.87,25.21 -42.13,46.55 10.07,0.43 10.11,0.04 19.1,0.95 19.49,1.99 22.72,-4.24 38.57,-2.15 0.2,27.76 -17.53,26.55 -41.62,41.3 -30.23,-25.03 -24.99,-4.6 -58.01,14.05 -12.23,6.9 -9.55,4.98 -18.82,12.54 18.45,1.01 17.69,-3.74 32.31,-13.09 20.4,-13.06 -2.82,-11.04 28.79,-3.45l-44.03 30.7c15.03,0.79 39.88,-15.3 54.09,-23.01 -13.24,15.64 -29.5,16.13 -30.74,32.87 18.55,1.33 2.89,4.84 20.81,-8.29 15.1,-11.06 41.03,-31.63 57.95,-36.75 -18.38,20.7 -26.71,17.8 -43.98,41.27 -20.99,28.54 -109.16,125.33 -132.68,131.58 -10.93,2.9 -16.13,-0.47 -26.69,1.28 -34.25,5.69 -47.9,30.03 -65.46,45.61l-94.43 67.71c23.76,4.65 67.22,-33.95 87.19,-51.28 40.98,-35.56 25.42,-22.17 42.66,-25.51 14.71,-2.84 29.61,-12.91 43.62,-18.15l42.54 -27.76c33.43,-34.33 57.57,-32.12 83.96,-57.75z"/>
   <path class="fil1" d="M2358.54 1142c0.27,-26.29 64.16,-107.61 66.74,-141.6 -31.19,33.75 -170.44,241.72 -48.12,256.76 63.83,7.84 51.58,-30.76 68.44,-54.27 36.96,-51.56 144.79,-80.58 71.94,-155.24 -64.5,-66.11 -117.03,79.72 -159,94.35z"/>
   <path class="fil1" d="M2238.16 1271.77c13.35,-20.38 1.99,-22.39 18.11,-42.39 15.72,-19.49 20.26,-13.35 26.95,-43.88 5.17,-23.54 7.03,-83.43 -32.33,-72.37 -44.4,12.47 -33.36,96.8 -34.08,126.09 -0.55,22.12 -2.01,24.53 21.35,32.55z"/>
   <path class="fil1" d="M2980.95 2113.01c29.07,33.72 128.88,73.2 143.68,25.43 -25.89,-38.34 -82.19,-35.93 -107.55,-39.72 -21.35,-3.19 -23.01,-6.54 -36.13,14.29z"/>
   <path class="fil1" d="M1297.77 1499.78c-14.23,19.84 -16.81,26.34 0.84,41.49 7.9,6.78 32.39,22.48 41.6,26.13 15.09,5.97 66.78,22.75 82.66,18.71 -8.37,-18.24 -17.85,-19.21 -37.98,-28.87 -46.51,-22.3 -20.87,-62.33 -87.12,-57.46z"/>
   <path class="fil1" d="M1371.38 1256.91c-21.32,44.71 41.87,74.65 68.54,29.67 30.44,-51.33 -45.87,-77.21 -68.54,-29.67z"/>
   <path class="fil1" d="M2470.48 2488.45c-16.6,41.07 20.53,77.16 65.26,96.17 8.27,-29.58 -15.46,-95.89 -65.26,-96.17z"/>
   <path class="fil1" d="M2996.7 2440.75c15.17,-26.11 -67.8,-92.19 -98.42,-102.71 -1.44,9.9 -12.73,6.9 9.36,33.15 29.52,35.08 64.41,61.09 81.09,67.75l7.97 1.81z"/>
   <path class="fil1" d="M1198.53 2246.19c-50.35,4.95 -58,52.29 -17.97,63.97 39.57,11.55 61.87,-38.11 17.97,-63.97z"/>
   <path class="fil1" d="M2866.33 1542.61c37.47,-38.72 1.66,-69.62 -27.7,-57.94 -37.4,14.88 -17.13,57.7 27.7,57.94z"/>
   <path class="fil1" d="M1539.03 1282.12c-35.36,-6.21 -59.23,50.73 -13.35,59.07 30.67,5.58 52.94,-52.12 13.35,-59.07z"/>
   <path class="fil1" d="M1996.91 1165.03l25.58 -90.94c8.03,-34.24 22.64,-71.07 -0.99,-95.17 -22.18,52.24 -16.46,132.76 -24.59,186.11z"/>
   <path class="fil1" d="M1840.37 2458.29c-34.57,49.5 19.84,67.51 44.4,38.66 9.36,-38.8 -19.34,-41.09 -44.4,-38.66z"/>
   <path class="fil1" d="M1086.55 2186.84c15.35,40.25 56.71,29.8 56.36,-11.05 -24.78,-23.83 -43.48,-21.86 -56.36,11.05z"/>
   <path class="fil1" d="M2690.49 2120.28c5.56,20.79 19.74,17.5 44.24,24.79 38.02,11.32 39.38,17.61 58.57,7.85 -15.13,-13.74 -32.7,-23.37 -53.15,-31.4 -22.22,-8.72 -33.83,-13.75 -49.66,-1.24z"/>
   <path class="fil1" d="M1587.3 1061.1l15.51 -16.89c-20.82,-32.16 -25.85,-25.8 -36.8,-63.6 -7.8,3.17 -19.35,6.46 -27.86,8.7l49.15 71.79z"/>
   <path class="fil1" d="M1944.17 1171.33c10.55,-6.07 10.44,-2.43 14.55,-1.51 3.71,-15.58 7.79,-31 8.96,-47.79 1.44,-20.6 1.41,-29.39 -13.45,-45.01 -17.96,39.95 -8.58,63.04 -10.06,94.31z"/>
   <path class="fil1" d="M1358.42 2369.5c13.72,-0.55 13.77,-5.28 26.74,-1.32 42.63,12.99 2.55,23.09 68.74,-21.61 -16.01,-6.35 -45.97,-7.34 -53.18,-4.34 -22.7,9.46 -0.81,15.77 -42.3,27.27z"/>
   <path class="fil1" d="M2949.18 1956.25c12.84,8.86 28.07,13.31 42.69,14.05 9.09,0.45 37.9,-0.65 35.41,-15.86 -5.81,-35.56 -66.27,3.02 -78.1,1.81z"/>
   <path class="fil1" d="M1273.87 1170.89c7.03,10.52 21.05,25.06 34.79,30.91 21.89,9.32 12.42,2.77 17.51,2.07 -2.9,-19.95 -30.3,-78.63 -52.3,-32.98z"/>
   <path class="fil1" d="M2135.84 2597.36c1.92,23.23 9.64,38.38 20.92,63.64 8.5,19.03 16.31,42.96 27.78,58.27 10.55,-28.57 -28.85,-94.32 -48.7,-121.91z"/>
   <path class="fil1" d="M1274.36 2227.87c-23.1,-6.28 -21.95,2.7 -38.94,-9.19 -50.8,-35.53 -65.21,38.87 -4.31,19.22 8.71,-2.81 13.72,-5.49 22.38,-6.51 17.55,-2.06 3.72,4.02 20.87,-3.52z"/>
   <path class="fil1" d="M2673.58 1528.78c30.7,6.74 64.63,-15.46 71.26,-24.5 18.33,-24.94 3.82,-2.13 5.16,-15.82 -15.22,-3.75 -5.89,-6.68 -21.88,2.51 -11.28,6.48 -34.99,29.22 -54.54,37.81z"/>
   <path class="fil1" d="M2666.28 1591.43c-32.5,-45.32 -71.68,19.86 -22.8,21.32 18.05,0.53 21.23,-12.55 22.8,-21.32z"/>
   <path class="fil1" d="M2853.22 2037.04c-6.78,0.15 -21.12,-2.29 -21.43,16.43 -0.16,9.38 9.21,17.82 20.45,18.1 22.23,0.56 32.44,-35.22 0.98,-34.53z"/>
   <path class="fil1" d="M1722.72 2593.58c-31.13,-21.42 -39.95,20.29 -30.69,39.78 19.88,4.26 9.73,10.13 30.69,-39.78z"/>
   <path class="fil1" d="M2008.73 2642.91c1.2,25.48 3.53,70.17 21.42,90.43 2.4,-21.02 -7.11,-75.67 -21.42,-90.43z"/>
   <path class="fil1" d="M1587.3 1061.1l-9.23 8.22 -24.46 -22.22c13.97,17.35 24.63,47.51 49.16,47.94 9.36,-17.81 -0.18,-15.12 -15.47,-33.94z"/>
   <path class="fil1" d="M1639.41 2660.05c31.18,7.88 31.08,-20.71 30.06,-22.56 -12.28,-22.25 -28.03,10.23 -30.06,22.56z"/>
   <path class="fil1" d="M1660.45 2589.44c12.25,2.51 20.85,-0.53 28.92,-6.8 -4.6,-11.56 -0.47,-4.57 -12.5,-15.61l-16.42 22.41z"/>
   <path class="fil1" d="M1293.09 1969.32c19.38,3.95 41.13,-2.81 57.57,-11.64 -19.14,-0.05 -39.56,2.81 -57.57,11.64z"/>
   <path class="fil1" d="M2001.78 2606.42c-1.41,19.62 -11.97,7.44 7.26,32.55 5.73,-19.01 6.18,-15.11 -7.26,-32.55z"/>
   <path class="fil1" d="M1390.9 2189.78c3.11,0.51 8.65,-3.43 11.69,-5.3 -5.35,-13.03 -12.59,-19.06 -19.8,-3.48 2.43,6.04 -14.39,5.06 8.11,8.78z"/>
   <path class="fil1" d="M1996.24 2576.84c8.38,-15.85 6.36,-16.54 -3.95,-30.4 -2.88,8.96 -3.87,12.24 -2.84,18.5 1.5,9.01 0.21,3.92 6.79,11.9z"/>
   <path class="fil1" d="M1423.3 2476.71c0.89,-0.91 3.07,0.32 3.84,0.12 25.52,-6.79 12.06,-13.9 11.78,-16.11 -14.67,1.41 -13.48,-2.66 -15.62,15.99z"/>
   <path class="fil1" d="M1693.88 2529.37c15.17,0.57 1.36,8.76 19.29,-8.51 -20.17,-8.47 -5.01,-8.24 -16.74,-2.32 -14.85,7.49 -2.42,9.18 -2.55,10.83z"/>
  </g>
  <g id="_2044665350784">
   <path class="fil2" d="M2159.5 2736.63c-0.8,0.51 -2.06,0.31 -2.36,1.56 -0.31,1.24 -1.78,1.3 -2.19,1.73l-9.36 11.21c-0.52,0.59 -1.56,1.54 -2.37,2.28l20.58 -88.09c7.26,26.88 -0.35,47.7 -4.3,71.31zm-101.8 -136.43c2.33,-13.23 2.13,-16.3 12.42,-24.59 7.61,2.19 3.43,-0.62 9.9,5.62 -4.98,10.86 -8.9,14.21 -22.32,18.97zm-91.91 -213.02c-15.65,2.37 -38.71,3.72 -50.74,-10.09 6.22,-13.02 40.24,-9.58 50.74,10.09zm-41.39 -20.62c7.2,-13.54 10.41,-16.23 19.52,-27.07l26.55 7.9c-9.62,15.23 -25.4,17.4 -46.07,19.17zm235.1 370.07l15.09 47.76c26.27,-12.72 8.95,-1.08 17.91,-28.71 1.69,-5.21 6.19,-14.05 7.55,-18.89l-14.05 17.83c-2.5,-14.8 4.4,-20.89 7.33,-36.1 4.41,-22.83 16.13,-37.38 25.71,-55.11 9.58,-17.74 -0.51,-12.63 18.99,-22.16 -9.36,-12.82 -16.79,-18.1 -0.72,-30.29 12.3,56.32 0.64,43.92 -8.13,88.69 5.98,-5.28 12.13,-8.91 19.19,-11.56 -1.34,12.59 -7.46,25.51 -3.8,33.57 11.81,-4.57 8.15,-1.2 11.49,-19.49l19.63 -71.55c7.89,1.23 6.19,5.45 10.85,7.43 12.84,-11.87 1.92,-18.36 12.16,-7.2 4.38,4.79 5.53,14.5 7.05,22 2.97,0.8 4.85,0.09 5.43,0.05 0.39,-0.03 1.49,-0.1 1.91,-0.15 7.95,-1.03 12.86,-2.19 15.33,-9.56 6.93,-20.72 -13.94,-5.55 4.46,-28.2 14.03,2.89 12.54,5.1 19.84,21.38 4.98,11.09 6.86,16.12 18.74,19.32 -2.08,-24.51 -19.93,-34.1 -24.28,-65.23 13.3,8.04 23.78,27.05 32.63,37.5 11.06,13.06 21.5,29.01 37.53,25.78 4.32,-14.69 0.67,-12.12 -8.51,-21.36 -8.14,-8.19 -13.03,-23.64 -19.96,-32.39l-26.59 -18.76c2.51,-16.36 2.99,-7.72 5.5,-16.95 2.86,-10.53 -1.19,-5.46 3.21,-13.49l17.17 -22.14c0.2,-1.27 0.63,-1.74 1.17,-2.47 14.5,3.21 17.84,1.59 25.98,-9.03 11.64,6.42 22.47,12.02 35.09,7.74l3.96 -1.71c0.41,15.44 1.21,2.47 -5.71,17.22 13.88,12 16.88,6.26 20.81,30.92 4.95,31.05 0.05,28.47 17.55,31.85 6.53,-20.71 -15.45,-50.16 -8.6,-68.49 13.74,6.78 16.27,30.45 19.34,46.21 2.08,10.64 1.2,28.16 9.04,31.6 16.65,7.29 6.9,0.5 10.17,-1.07 2,-14.72 -9.77,-43.55 -13.74,-59.07 -7.95,-31.07 9.27,-16.71 22.07,-24l6.45 -4.48c39.7,-22.88 15.57,-20.28 37.5,-28.37 10.27,16.55 15.45,20.35 29.76,35.58 26.81,28.52 59.52,91.23 99.5,98.01 -42.15,-71.14 -149.4,-124.99 -116.89,-159.79 12.86,-13.77 23.76,-26.63 28.66,-46.35l3.07 27.35 26.03 -4.63c3.95,-15.72 0.2,-11.7 0.68,-24.54 0.03,-0.77 -0.08,-1.86 0.03,-2.59 0.16,-1.05 1.1,-4.1 1.45,-4.96 9.45,-23.09 37.84,14.36 45.34,-17.93 -16.85,-9.51 -24.41,3.45 -29.4,-11.82 -4.54,-13.89 7.21,-3.13 -3.94,-28.91 11.53,-7.42 27.79,-14.92 32.92,-26.09 -0.8,-0.59 -2.07,-1.04 -2.68,-1.31 -0.6,-0.26 -1.94,-0.93 -2.66,-1.24 -0.72,-0.3 -1.91,-0.81 -2.66,-1.11 -0.74,-0.29 -1.95,-0.71 -2.63,-0.97 -24.21,-9.27 6.72,5.35 -7.46,-2.47 8.94,-7.79 6.32,-1.28 6.73,-15.17l20.01 -17.81c-6.9,0.95 -15.3,3.41 -23.68,4.59l-3.71 -7.75c-6.69,3.17 -3.48,4.82 -7.42,9.54 -19.59,-14.82 -0.68,-9.6 -12.06,-20.88 -6.88,-6.82 -19.71,-3.15 -35.59,-6.53l13.7 -9.58c-4.02,-3.95 7.57,-6.02 -12.15,-4.98 14.25,-7.17 15.29,-11.13 32.91,-16 -6.52,-4.14 -29.07,-0.34 -46.76,1.52 -18.93,1.99 -31.06,9.54 -50.13,7.54 7.79,-22.74 10.28,9.89 6.9,-24.39l27.28 -6.55 -23.62 -4.62 9.77 -11.9c14.09,2.16 11.16,4.9 20.8,7.33 37.69,9.51 13.26,-22.93 9.9,-33.15 43.43,-27.8 28.44,15.41 34.48,39.4 5.68,22.59 24.45,18.49 33.18,33.14l2.52 11.6c13.81,-10.79 1.94,-6.72 15.46,-10.59 19.53,-5.58 38.76,-2.54 55.49,-17.42 14.84,-13.2 28.73,-37.58 32.46,-64.07 6.24,-44.22 -5.57,-53.68 -35.73,-60.1 -22.2,-4.72 -12.13,-12.51 -34.23,-13.91 -12.39,-0.78 -30.15,4.14 -40.87,7.79 -2.07,6.13 2.91,2 -2.15,7.01 -1.59,1.57 -7.8,5.7 -9.58,6.76 -9.21,5.49 -17.56,9.17 -27.92,4.72 7.78,-22.27 19.57,-15.74 40.16,-25.52 13.49,-6.4 5.87,-8.75 22.01,-12.03 12.99,-2.63 16.16,1.91 29.16,-3.28 -4.3,-4.45 0.61,-0.67 -7,-4.52 -7.39,-3.74 -14.52,-5.04 -18.59,-11.32 11.81,-0.82 29.33,2.37 36.89,8.41 16.63,13.28 -5.76,15.24 18.37,20.91 19.66,-23.69 -21.27,-30.48 -30.5,-46.89 3.15,-3.19 0.84,-2.66 8.7,-7.11 21.92,-12.42 126.82,5.35 150.44,8.59 33.39,4.59 136.99,26.76 160.81,9.66 -18.81,-18.67 -118.62,-33.58 -152.79,-43.72 -25.37,-7.53 -33.41,-21.55 -65.72,-30.44 -55.22,-15.2 -34.11,-22.13 -63.21,-33.93 -2.06,-7.87 -2.3,4.05 2.51,-3.91 6.6,-10.91 8.25,7.18 1.19,-2.85l-51.75 2.47c-0.31,-19.17 19.7,-23.99 38.29,-30.97 36.37,-13.65 50.07,-16.38 52.43,-55.04 0.38,-6.17 -0.52,-12.7 -0.43,-14.79 0.81,-19.19 25.21,-30.37 35.56,-47.54l-25.85 18.71c9.42,-20.19 22.1,-38.55 30.23,-54.93 -9.36,-19.65 -26.93,-21.08 -2.19,-53.6 16.93,-22.25 36.87,-20.16 15.8,-49.5 -14.94,1.84 -7.22,4.18 -20.06,7.98 -18.6,5.51 -5.78,-0.87 -21.81,1.24 -38.73,5.1 -50.13,22.57 -69.11,-24.59l-2.3 -5.32c-11.84,-29.52 27.26,-63.31 -10.33,-86.1 -23.53,-14.26 -48.86,3.79 -56.11,18.37 -15.3,30.78 0.89,41.22 16.32,55.45l-18.68 8.59c3.99,4.83 0.26,0.85 5.99,6.94 4.98,5.27 -1.06,-0.87 4.19,3.67 -27.5,23.48 -43.74,37.07 -41.92,91.15 -65.1,19.15 -46.28,-19.51 -79.19,-26.23 -25.55,-5.22 -29.85,3.67 -43.68,15.26 -16.84,14.1 -17.69,1.02 -23.45,31.46l-38.83 15.35c0.11,-9.33 -0.94,-15.84 3.81,-23.46l10.58 -16.35c2.85,-9.62 9.33,-33.23 8.88,-39.44 -31.41,-2.4 -26.27,48.7 -60.15,45.6 0.72,-27.34 17.25,-48.82 19.76,-75.8 -20.2,38.88 -13.93,18.87 -27.97,30.93l-18.26 17.35c-3.26,3.43 -1.04,1.78 -5.3,5.95 -7.33,7.18 -6.19,1.12 -13.03,11.13l1.43 -47.36c-8.76,19.77 0.56,26.88 -13.43,47.77 -14.83,-16.01 -3.69,-21.74 -10.77,-40.93 -0.79,36.49 6.42,49.49 -8.08,79.3 -7.63,-4.4 -1.02,0.75 -6.61,-5.33 -28.44,-30.96 21.93,-72.73 -69.32,-88.27l3.46 -39.17c-0.97,10.34 -5.98,24.81 -12.9,33.43 -15.73,-3.2 -64.44,-16.68 -78.4,-23.85 -10.18,-5.23 -22.03,-17.11 -33.32,-17.96 -17.21,-1.3 -18.03,10.03 -43.86,5.66 -5.36,-3.21 -9.37,-16.73 -13.24,-23.63 -11.64,-20.72 -27.92,1.92 -51.92,4.56 -24.32,2.67 -25.04,-8.28 -51.92,-7.23 -10.95,33.65 11.25,38.63 24.95,60.47 -3.17,15.38 -4.23,7.97 -7.27,19.64 -4.7,18.01 6.52,46.47 -12.3,55.82 -16.79,4.71 -24.05,-7.53 -32.12,-17.3 -12.56,-15.23 -18.63,-14.51 -42.66,-13.01 1.34,33.4 9.11,38.8 14.43,62.49 -5.72,8.78 -7.54,7.86 -14.21,14.94l6.56 27.71c-47.68,-9.6 -42.44,-54.06 -68,-59.79 -11.18,34.36 12.3,51.62 14.1,79.35 -29.53,-7.72 -25.81,-26.33 -65.4,-14.76l0.15 31.79c-14.94,-6.76 -21.64,-22.72 -30.05,-32.84 -12.73,-15.31 -11.58,-19.52 -12.39,-42.65 -0.67,-18.89 -6.75,-35.61 -5.72,-52.05 1.36,-21.62 9.92,-21.69 7.6,-48.17 -5.43,12.81 -17.85,29.82 -20.22,41.77 -3.91,19.76 6.11,34.3 5.27,53.12 -19.86,-11.19 -23.9,-23.71 -39.4,-46.69l-1.4 4.65c-0.11,0.56 -0.38,1.76 -0.49,2.39 -0.11,0.64 -0.23,1.81 -0.32,2.48l-1.2 12.86c-21.1,5.72 -32.99,2.13 -43.85,18.47 13.3,36.07 69.29,39.21 85.31,62.16 15.36,22 35.11,78.85 49.92,92.11 3.83,-6.77 6.75,-19.27 8.44,-28.64 19.97,10.27 21.25,17.44 14.28,36.67 -5.12,14.11 -4.97,32.36 -11.62,44.32 -14.86,4.14 -18.87,0.41 -28.54,-5.54l-10.54 11.35c-12.34,12.75 -0.13,19.29 -3.11,41.19 -35.2,-0.18 -56.74,-10.48 -65.86,30.42 -16.2,72.59 46.43,47.2 77.41,63.04 9.75,4.99 18.92,17.37 29.21,19.06 28.78,4.69 17.81,-33.1 46.09,-41.61 13.75,12.07 10.32,19.97 -0.79,33.86 -12.93,16.17 -13.35,9.63 -31.32,9.73 6.35,17.24 -5.04,15.68 -25.94,31.34l28.59 2.57c-41.07,25.6 -102.32,50.6 -152.31,68.39 -56.2,20 -46.37,2.76 -91.91,3.96 -67.37,1.78 2.08,137.87 61.23,69.36 17.13,-19.83 25.73,-43.51 46.56,-64.8 26.12,-26.69 46.77,-17.34 80.77,-30.63 44.33,-17.32 23.73,-6.17 30.74,-2.32 10.43,5.73 15,-10.97 32.58,-13.87 10.91,8.95 5.83,10.09 12.25,20.51 9.35,15.19 1.45,3.82 17.54,10.83l-50.28 28.72c23.78,-2.18 41.44,-16.38 62.42,-23.67l2.08 17.73c-26.23,10.87 -64.92,17.14 -41.85,61.49 19.21,36.94 38.18,20.79 74.72,21.63 -3.94,13.2 -2.05,9.36 -12.05,16.22 5.91,-3.68 14.53,-9.39 20.11,-10.88 13.61,-3.66 16.93,2.57 19.7,4.55l-26.17 41.12 -38.34 -8.3c-0.33,-1.19 1.73,-4.37 -2.45,-9.88 -12.27,8.5 -7.39,1.36 -17.56,3.62l-5.75 1.78c-0.48,-0.86 -1.98,0.49 -2.73,1.13 9.18,5.22 17.22,6.75 27.19,9.9l21.58 13.65 -14.57 12.37c0.38,-0.83 1.86,0.41 1.37,-0.23l-21.48 26.35c14.01,-7.44 15.52,-10.44 26.31,-22.07 20.56,-22.17 17.27,-2.38 18.06,0.7 9.57,-21.26 29.14,-7.78 40.19,1.78l-6.91 6.31c0.63,0.78 2.92,3.52 3.57,4.43 5.69,7.87 0.42,-4.75 6.14,10.54 -19.04,5.13 -106.21,33.12 -124.2,48.21 21.72,-3.93 46.88,-15.76 67.62,-22.8 19.96,-6.79 19.36,-1.75 28.57,-2.17 5.2,-0.23 23.23,-7.77 31.12,-9.52 -3.51,13.14 -12.28,15.31 -20.53,27.24 25.96,5.26 12.15,-3.86 33.88,-3.67 -56.32,46.47 -59.59,25.32 -97.9,41.56 -11.86,5.03 -20.98,8.48 -32.64,11.79 12.72,0.74 57.76,-10.2 68.36,-13.69l0 10.56c15.34,-10.87 26.77,-14.92 50.5,-16.56 19.95,-1.38 35.92,-7.27 49.56,-1.06 -8.09,9.99 -24.2,13.21 -36.96,16.09 -0.32,-0.57 -0.51,-1.66 -0.62,-1.87 -0.1,-0.18 -0.54,-1.44 -0.68,-1.62 -5.02,-7.08 10.52,3.35 -1.59,-1.88l-13.47 2.52c-1.43,0.14 -4.45,-0.08 -8.26,0.34 -12.36,1.33 -29.12,7.19 -38.28,12.46 11.66,-1.13 8.27,-1.21 17.9,0.58 9.85,1.84 -2.92,3.42 15.26,3.3 32.69,-0.21 41.32,-21.18 74.97,-4.8 -17.67,3.42 -42.73,22.51 -64.9,30.81l18.68 3.83c25.33,10.56 -26.78,-3.14 6.38,3.05 13.64,-2.61 31.45,-14.69 39.92,-24.63l1.68 -1.9c11.29,-6.13 0.63,-1.12 3.37,1.52 0.1,0.1 0.76,1.78 0.83,1.34 0.08,-0.47 0.42,1.07 0.77,1.51 12.19,0.09 20.31,-5.88 38.35,-11.78 8,22.55 -3.75,1.01 -1.43,12.49 2.28,11.33 -7.65,-2.44 2.33,2.28l3.86 0.66c0.21,-0.7 1.55,-0.03 2.59,0.45l-12.65 22.14 17.78 -10.01c-0.53,19.18 -17.28,23.8 -27.63,43.53l21.92 -14.41 -11.31 70.88c9.36,-13.94 11.27,-42.12 19.24,-52.02 6.01,-7.47 32.27,-22.23 42.56,-22.7 0.99,33.49 3.31,21.74 -7.12,49.03 6.79,-4.15 6.64,-4.43 12.93,-7.78 13.64,-7.27 13.02,-12.78 24.33,-18.39 12.34,18.11 0.19,25.11 -9.1,45.37 -30.82,-3.09 -18.39,7.99 -31.82,34.73 -4.97,9.91 -4.06,7.47 -6.81,16.5 12.53,-7.45 9.94,-10.23 15.4,-22.79 7.62,-17.53 -6.7,-5.99 17.35,-14.93l-15.33 39.49c10.19,-6.09 19.39,-27.57 25.3,-38.88 -1.79,16.08 -12.22,23.55 -5.67,35.06 12.74,-7.29 4.02,1.9 9.98,-14.58 5.03,-13.9 12.96,-38.78 21.8,-49.58 -2.93,21.65 -9.67,23.42 -10.65,46.39 -1.2,27.94 -16.37,130.14 -29.03,144.58 -5.88,6.71 -10.77,6.79 -16.92,12.59 -19.94,18.79 -18.16,40.74 -22.81,58.68l-32.07 85.91c17.61,-7.41 29.1,-51.82 34.55,-71.96 11.21,-41.33 6.91,-25.71 16.73,-35.48 8.38,-8.34 13.71,-21.49 20.59,-31.09l15.65 -36.9c6.8,-37.2 23.58,-46.38 29.59,-74.78z"/>
   <path class="fil2" d="M2140.04 1466.57c-11.4,-17.34 -5.33,-98.73 -18.59,-122.13 -5.58,35.83 -5.3,233.34 81.46,189.37 45.27,-22.94 20.25,-42.85 20.95,-65.67 1.53,-50.04 59.4,-116.49 -21.18,-133.35 -71.34,-14.92 -41.59,103.72 -62.64,131.78z"/>
   <path class="fil2" d="M2118.27 1604.55c-0.21,-19.23 -8.54,-15.55 -6.78,-35.74 1.72,-19.69 7.39,-17.66 -1.65,-40.6 -6.98,-17.7 -32.11,-57.75 -53.03,-33.19 -23.6,27.71 20.74,78.09 33.15,97.6 9.38,14.74 9.48,16.96 28.31,11.93z"/>
   <path class="fil2" d="M2975.05 1828.8c33.88,9.31 116.64,-8.76 105.32,-46.56 -33.84,-13.72 -69.65,12.63 -87.94,21.3 -15.39,7.31 -17.95,5.85 -17.38,25.26z"/>
   <path class="fil2" d="M1602.55 2167.72c-0.59,19.26 0.58,24.66 18.81,26.81 8.15,0.96 31.11,0.48 38.74,-1.19 12.52,-2.73 53.76,-14.48 62.39,-24.11 -13.5,-8.27 -20.15,-4.74 -37.58,-2.2 -40.28,5.85 -41.1,-31.65 -82.36,0.69z"/>
   <path class="fil2" d="M1543.9 1976.22c5.71,38.67 60.28,30.48 57.96,-10.72 -2.65,-47.02 -64.03,-30.4 -57.96,10.72z"/>
   <path class="fil2" d="M2805.84 2299.38c7.2,34.21 47.4,41.51 85.07,34.28 -7.59,-23.02 -52.32,-56.01 -85.07,-34.28z"/>
   <path class="fil2" d="M3129.58 2036.57c-1.55,-23.77 -84.98,-30.56 -109.66,-23.97 3.41,7.12 -5.31,10.12 20.71,17.59 34.78,9.99 69.07,11.68 82.94,8.71l6.01 -2.33z"/>
   <path class="fil2" d="M1865.98 2700.36c-30.81,25.4 -14.99,59.78 16.37,49.82 31.01,-9.85 23.77,-52.19 -16.37,-49.82z"/>
   <path class="fil2" d="M2648.97 1505.57c7.51,-41.86 -29.54,-46.35 -43.64,-25.77 -17.95,26.2 14.16,45.34 43.64,25.77z"/>
   <path class="fil2" d="M1664.83 1918.97c-25.9,11.49 -16.48,59.29 17.24,44.57 22.55,-9.84 11.75,-57.45 -17.24,-44.57z"/>
   <path class="fil2" d="M1913.26 1640.78l-23.26 -70.83c-9.8,-25.97 -16.44,-56.52 -42.53,-61.91 8.47,43.98 47.64,94.21 65.79,132.74z"/>
   <path class="fil2" d="M2379.78 2556.88c-0.86,47.64 42.71,35.5 46.1,5.79 -10.94,-29.53 -30.75,-18.4 -46.1,-5.79z"/>
   <path class="fil2" d="M1766.51 2710.76c27.76,19.61 50.26,-5.43 32.06,-32.04 -26.73,-4.71 -38.1,4.81 -32.06,32.04z"/>
   <path class="fil2" d="M2787.97 1961.37c12.79,11.18 20.63,2.78 39.89,-3.22 29.89,-9.31 33.55,-5.79 41.82,-20.63 -15.96,-2.34 -31.7,-0.92 -48.63,2.82 -18.4,4.06 -28.22,5.88 -33.08,21.03z"/>
   <path class="fil2" d="M1599.19 1752.94l2.73 -17.9c-27.79,-11.9 -28.29,-5.52 -52.09,-25.46 -3.72,5.5 -9.84,12.74 -14.42,17.95l63.78 25.41z"/>
   <path class="fil2" d="M1881.49 1668.12c4.24,-8.62 5.77,-6.19 8.86,-7.4 -4.43,-11.83 -8.54,-23.73 -15.15,-35.25 -8.13,-14.13 -12.01,-19.87 -28.62,-23.56 5.81,34.07 22.12,45.07 34.91,66.21z"/>
   <path class="fil2" d="M2024.98 2710.79c8.75,-6.4 6.71,-9.52 16.94,-12.63 33.64,-10.25 11.83,14 35.52,-44.41 -13.28,2.89 -33.34,15.42 -36.75,20.56 -10.7,16.19 6.41,10.69 -15.71,36.48z"/>
   <path class="fil2" d="M2885.26 1740.09c12.32,0.15 24.24,-3.63 34.15,-9.59 6.15,-3.69 24.54,-17.1 16.22,-25.97 -19.46,-20.73 -42.09,31.14 -50.37,35.56z"/>
   <path class="fil2" d="M1442.18 1962.78c9.23,3.79 24.81,7.15 36.38,4.94 18.44,-3.53 9.36,-3.65 12.39,-6.35 -10.68,-11.79 -54.45,-38.18 -48.77,1.41z"/>
   <path class="fil2" d="M2634.54 2517.97c11.49,14.38 23.2,20.91 41.71,32.49 13.94,8.73 29.59,20.97 43.84,25.95 -5.66,-23.36 -60.41,-49.09 -85.55,-58.44z"/>
   <path class="fil2" d="M1907.59 2655c-17.89,6.05 -13.18,11.42 -29.55,11.11 -48.91,-0.92 -25.61,54.16 5.63,14.49 4.48,-5.68 6.58,-9.64 11.8,-14.11 10.59,-9.08 4.21,0.99 12.12,-11.49z"/>
   <path class="fil2" d="M2516.62 1581.32c23.07,-9.09 35.53,-38.57 35.9,-47.41 1.03,-24.4 1.56,-3.07 -3.58,-12.63 -11.63,4.24 -6.8,-1.79 -13.23,11.27 -4.54,9.21 -10.07,34.54 -19.09,48.77z"/>
   <path class="fil2" d="M2539.4 1625.57c-41.23,-15.38 -38.22,44.56 -5.56,24 12.06,-7.59 8.39,-17.56 5.56,-24z"/>
   <path class="fil2" d="M2857.95 1835.24c-4.38,3.08 -14.85,7.79 -6.81,20.19 4.02,6.21 13.87,7.62 21.36,2.86 14.8,-9.41 5.75,-37.35 -14.55,-23.05z"/>
   <path class="fil2" d="M2362.24 2697.28c-29.81,-0.33 -17.24,30.88 -2.6,39.57 14.9,-5.96 10.83,2.36 2.6,-39.57z"/>
   <path class="fil2" d="M2571.32 2603.75c12,16.16 33.18,44.41 53.82,49.82 -7.68,-14.83 -37.96,-46.45 -53.82,-49.82z"/>
   <path class="fil2" d="M1599.19 1752.94l-2.43 9.44 -25.8 -3.79c16.79,5.22 37.04,20.29 53.3,9.77 -1.7,-15.78 -6.77,-9.82 -25.07,-15.42z"/>
   <path class="fil2" d="M2336.92 2777.49c23.89,-8.56 11.24,-27.24 9.76,-28.01 -17.84,-9.17 -13.86,19.04 -9.76,28.01z"/>
   <path class="fil2" d="M2319.63 2721.97c9.12,-3.74 13.42,-9.52 15.95,-17.18 -8.1,-5.55 -2.31,-2.78 -15.05,-4.72l-0.9 21.9z"/>
   <path class="fil2" d="M1806.1 2477.38c14.43,-5.94 25.7,-19.94 32.59,-32.96 -12.56,8.39 -24.68,19.25 -32.59,32.96z"/>
   <path class="fil2" d="M2550.71 2582.9c7.7,13.48 -4.57,10.14 19.07,18.13 -4.61,-14.97 -2.59,-12.62 -19.07,-18.13z"/>
   <path class="fil2" d="M1967.18 2578.76c2.26,-1.03 4.16,-6.05 5.33,-8.61 -9.24,-6.19 -16.63,-6.95 -14.5,6.43 4.24,2.89 -7.2,9.65 9.17,2.18z"/>
   <path class="fil2" d="M2534.06 2565.96c-1.48,-14.07 -3.12,-13.63 -15.97,-18.18 2.06,7.14 2.85,9.73 6.29,13.37 4.94,5.25 1.86,2.48 9.68,4.81z"/>
   <path class="fil2" d="M2114.66 2752.48c0.19,-1 2.15,-1.14 2.57,-1.62 13.73,-15.68 1.79,-14.41 0.63,-15.73 -8.99,7.37 -10,4.19 -3.2,17.35z"/>
   <path class="fil2" d="M2315.1 2667.91c10.19,-6.3 4.74,5.14 8.88,-14.06 -16.93,3.32 -6.9,-3.2 -11.98,5.84 -6.43,11.44 2.45,7.08 3.1,8.22z"/>
  </g>
  <g id="_2044665339648">
   <path class="fil3" d="M809.11 2844.12c-2.28,-1.29 -3.44,-4.63 -6.91,-3.75 -3.4,0.85 -5.46,-2.68 -7.06,-3.11l-39.54 -8.36c-2.1,-0.53 -5.79,-1.82 -8.64,-2.86l242.13 -63.79c-56.36,52.6 -117.12,60.95 -179.98,81.87zm201.81 -425.76c35.38,-11.41 42.62,-15.88 76.25,-1.46 4.48,21.46 5.95,7.57 -0.94,31.5 -33,1.88 -46.29,-3.35 -75.31,-30.04zm402 -500.76c-26.1,-35.22 -59.28,-89.87 -41.07,-137.2 39.89,-1.64 75.56,86.04 41.07,137.2zm-3.2 -127.96c42.44,0.08 53.19,4.44 91.5,12.69l15.06 75.16c-49.72,-3.8 -75.46,-39.57 -106.56,-87.85zm-600.61 1054.48l-97.29 98.79c65.15,47.78 14.23,20.5 93.42,6.62 14.94,-2.63 42.41,-3.07 56,-6.02l-61.82 -11.25c32.96,-25.28 56.79,-16.3 97.81,-28.84 61.54,-18.81 112.32,-8.99 168.09,-8.52 55.81,0.46 30.23,-17.6 78.81,17.74 19.24,-39.49 22.54,-64.5 73.16,-41 -121.83,103.06 -106.61,58.48 -227.47,95 20.67,7.8 37.49,18.14 53.13,31.98 -32.53,13.03 -72.05,14.79 -87.03,34.21 26.47,22.97 13.49,18.36 62.56,2.84l200.44 -44.69c7.22,20.9 -5.3,22.21 -4.11,36.19 45.67,16 47.4,-19.1 33.35,20.39 -6.02,16.94 -28.29,32.33 -44.67,45.76 1.89,8.3 6.05,11.97 6.92,13.34 0.57,0.91 2.17,3.53 2.84,4.48 12.82,18.12 22.01,28.63 43.22,25.11 59.66,-9.89 -4.46,-41.28 74.77,-25.62 11.11,38.07 3.78,37.29 -26.58,76.24 -20.69,26.53 -30.56,37.66 -22.99,70.84 57.27,-36.82 57.58,-92.91 128.09,-143.88 -2.42,42.93 -35.35,93.2 -49.44,128.39 -17.62,43.98 -43.11,90.19 -14.45,125.19 41.54,-8.45 30.51,-14.05 41.22,-48.47 9.49,-30.52 40.96,-62.5 53.36,-90.79l11.45 -89.34c43.27,-15.05 22.76,-2.69 48.59,-8.52 29.46,-6.64 11.81,-9.99 37.15,-9.6l76.42 13.3c3.35,-1.17 5.05,-0.7 7.55,-0.33 10.92,39.61 19.21,45.7 55.74,51.85 -0.63,36.77 -0.31,70.53 26.52,95.86l9.31 7.47c-37.23,21 -4.47,6.17 -49.52,8.33 -11.36,49.5 6.56,49.39 -48.67,90.96 -69.54,52.35 -69.57,37.02 -55.16,84.19 59.12,-10.85 102.68,-102.77 156.4,-109.76 1.19,42.38 -53.42,79.24 -87.99,107.18 -23.32,18.85 -67.32,39.41 -65.57,63.04 3.73,50.16 7.69,17.52 15.79,23.48 38.57,-14.18 93.87,-80.31 126.67,-110.11 65.7,-59.71 52.89,1 87.3,22.87l19.32 9.98c107.4,67.47 69.79,11.81 117.97,54.97 -27.18,46.57 -29.77,64.14 -48.48,118.89 -35.03,102.52 -146.02,263.78 -110.82,370.34 119.4,-195.24 112.16,-527.35 239.41,-492.91 50.34,13.62 95.93,23.61 150.49,10.04l-62.92 42.95 45.05 57.66c43.57,-10.69 28.88,-14.64 60.92,-30.12 1.91,-0.93 4.43,-2.59 6.36,-3.27 2.77,-0.98 11.45,-2.63 14.03,-2.89 68.7,-6.8 13.89,111.18 102.59,87.67 1.43,-53.54 -40.08,-55.23 -9.19,-87.23 28.11,-29.1 17.01,13.58 65.62,-47.08 33.09,18.58 72.5,48.66 106.45,46.72 0.4,-2.72 -0.13,-6.41 -0.26,-8.24 -0.14,-1.81 -0.23,-5.96 -0.42,-8.13 -0.19,-2.13 -0.49,-5.71 -0.72,-7.94 -0.23,-2.17 -0.78,-5.69 -1.02,-7.69 -8.69,-71.22 -4.39,23.36 -3.63,-21.45 30.63,11.8 11.3,13.81 45.8,-3.18l69.51 25.86c-11.26,-15.65 -28.18,-33 -41.9,-51.96l14.13 -19.11c-16.41,-12.26 -16.3,-2.28 -32.95,-5.8 10.88,-67.12 22.61,-14.09 35.46,-56.55 7.77,-25.66 -17.84,-52.29 -30.14,-95.52l41.19 21.1c4.46,-14.94 24.54,10.72 -3.57,-36.17 36.01,25.57 47.04,22.98 81.77,59.77 1.69,-21.29 -36.82,-71.55 -64.29,-112.41 -29.39,-43.72 -63.55,-63.6 -83.39,-112.85 65.72,-10.4 -10.87,37.96 68.61,-14.72l51.36 58.25 -19.3 -63.77 41.74 8.49c13.01,37.27 2.49,33.64 9.03,60.37 25.57,104.51 73.27,2.72 93.91,-18.72 124.25,70.21 -0.84,89.51 -51.71,135.37 -47.88,43.18 -13.55,83.77 -38.05,124.1l-25.1 21.19c44.26,19.8 18.94,-3.97 45.9,24.09 38.96,40.55 56.43,91.52 114.51,113.16 51.52,19.2 129.14,21.59 198.77,-3.59 116.23,-42.04 124.08,-83.18 100.71,-165.27 -17.2,-60.41 14.89,-45.88 -10.33,-101.74 -14.13,-31.3 -49.16,-68.39 -72,-89.87 -17.66,2.86 -1.1,9.7 -19.92,3.81 -5.92,-1.86 -24.05,-11.68 -28.96,-14.66 -25.35,-15.43 -45.15,-31.09 -47.69,-62.19 64.54,-9.82 63.84,27.47 114.43,65.17 33.15,24.71 29.02,3.03 57.94,38.26 23.28,28.35 16.28,41.99 45.81,67.07 5.31,-16.27 2.44,0.63 2,-22.98 -0.44,-22.91 -6.5,-42.04 3.58,-60.14 17.33,27.84 32.22,74.82 27.24,101.14 -10.95,57.87 -44.74,5.64 -27.36,72.03 83.42,17.38 47,-91.53 75.17,-135.37 11.91,3.58 7.6,-1.38 28.68,12.08 58.77,37.52 151.21,317.12 173.87,379.09 32.05,87.63 112.03,369.75 184.72,405.87 21.28,-70.19 -71.54,-333.66 -91,-430.36 -14.46,-71.81 9.41,-109.64 -10.69,-200.2 -34.36,-154.76 9.94,-112.11 1.09,-198.55 16.59,-15.24 -12.87,-0.4 12.84,1.07 35.21,2 -6.89,29.47 8.49,-0.8l-73.07 -123.37c46.5,-25.59 84.21,17.11 125.36,53.55 80.49,71.27 104.93,101.23 202.54,56.94 15.6,-7.08 30.38,-17.74 35.63,-20.24 47.97,-22.87 106.93,22.33 162.36,25.41l-79.27 -39c61.6,-3.1 122.93,4.13 173.53,2.79 35.95,-48.35 16.66,-93.18 128.26,-74.79 76.35,12.58 97.08,64.07 141.54,-25.49 -23.85,-34.14 -19.57,-12.23 -45.52,-38.73 -37.54,-38.36 -5.35,-15.27 -31.27,-51.72 -62.65,-88.13 -120.16,-93.4 -29.38,-200.91l10.04 -12.52c56.85,-67.21 190.17,-15.36 197.2,-136.81 4.41,-76.05 -72.56,-114.61 -117.62,-113.45 -95.09,2.44 -99.66,55.58 -114.47,111.73l-45.23 -34.54c-6.63,16.01 -1.74,1.74 -9.19,23.64 -6.46,19 0.73,-3.71 -3.56,15 -93.05,-36.85 -147.34,-58.97 -277.27,15.55 -131.16,-134.43 -12.22,-138.47 -38.41,-227.68 -20.35,-69.27 -47.67,-68.25 -93.94,-87.08 -56.3,-22.9 -25.39,-41.94 -107.33,-16.6l-87.84 -75.1c22.97,-11.81 37.52,-22.82 62.32,-21.07l53.69 4.7c27.24,-5.48 93.36,-20.22 107.96,-29.37 -34.8,-79.95 -153.14,-1.16 -189.45,-88.05 67.82,-33.66 141.77,-21.05 211.01,-49.86 -121.26,0.96 -64.19,-9.63 -111.88,-28.34l-66.1 -22.2c-12.6,-3.52 -5.7,-0.24 -21.41,-5.26 -27.07,-8.63 -10.78,-13.67 -44.12,-17.46l117.69 -57.84c-59.69,4.18 -65.01,36.19 -134.22,29.03 19.93,-57 48.38,-37.18 86.15,-79.38 -90.28,45.36 -112.74,79.83 -204.45,82.98 0.9,-24.36 -3.15,-1.52 4.49,-23.06 38.89,-109.68 206.29,-40.59 126.1,-283.94l100.28 -42.26c-26.55,11.01 -68.42,17.52 -98.48,11.75 -12.54,-42.62 -42.67,-179.22 -43.22,-222.66 -0.4,-31.69 13.31,-76.04 0.77,-104.76 -19.12,-43.78 -47.9,-31.12 -70.67,-99.96 0.92,-17.28 28.79,-44.6 40.65,-63.01 35.6,-55.3 -40.87,-65.78 -78.42,-121.08 -38.03,-56.01 -12.2,-71.97 -49.57,-136.37 -96.5,16.81 -79.92,77.56 -115.6,139.39 -41.71,12.15 -24.98,-0.04 -57.46,7.64 -50.12,11.85 -105.2,76.16 -152.45,42.24 -33.29,-34.97 -12.77,-68.58 0.69,-100.97 20.97,-50.46 11.35,-64.36 -23.44,-121.22 -79.96,46.55 -83.11,72.56 -134.17,116.26 -28.86,-2.61 -28.98,-8.25 -54.95,-15.41l-59.27 51.94c-38.29,-129.07 77.25,-173.85 58.16,-243.77 -98.53,17.16 -110.35,96.96 -175.83,137.28 -19.36,-82.23 30.97,-97.24 -48.62,-179.08l-77.58 41.54c-2.81,-45.3 27.55,-82.36 41.41,-116.05 20.96,-50.97 32.75,-53.6 88.27,-85.56 45.33,-26.09 78.36,-62.63 119.91,-81.42 54.63,-24.69 65.89,-3.84 127.67,-43.82 -38.37,3.32 -96.06,-5.03 -128.37,4.67 -53.41,16.03 -76,59.37 -123.09,81.71 1.63,-63.08 27.01,-89.19 63.14,-156.85l-13.19 2.59c-1.51,0.44 -4.8,1.34 -6.47,1.89 -1.72,0.57 -4.71,1.79 -6.48,2.43l-33.01 13.71c-41.32,-44.18 -47.96,-77.91 -101.99,-83.31 -71,79.26 -6.14,220.27 -41.52,289.18 -33.93,66.08 -147.38,188.04 -160.63,241.43 21.52,0.6 55.89,-8.44 81,-16.44 0.73,62.14 -15.16,74.57 -71.22,82.42 -41.13,5.76 -85.58,29.78 -123.46,29.01 -29.39,-30.99 -25.45,-45.62 -23.43,-77l-41.41 -11.06c-47.16,-13.67 -47.35,24.68 -104.77,45.75 -45.16,-86.34 -47.88,-152.36 -159.75,-121.69 -198.53,54.42 -55.27,174.73 -53.9,271.01 0.43,30.32 -17.98,68.8 -8.76,96.15 25.79,76.48 104.03,0.69 161.47,58.83 -11.71,49.29 -35.46,51.11 -83.85,41.93 -56.28,-10.67 -40.83,-20.17 -64.36,-64.01 -33.96,37.87 -44.9,7.99 -110.26,-22.84l30.75 73.26c-115.83,-67.29 -256.33,-184.72 -364.6,-283.95 -121.74,-111.57 -66.83,-109.86 -128.76,-219.7 -91.63,-162.48 -334.53,183.71 -90.33,239.65 70.68,16.19 139.75,6.55 218.81,29.93 99.13,29.31 103.01,91.92 179.55,157.87 99.81,86 45.86,50.06 45.52,72.18 -0.5,32.95 46.27,22.5 76.12,61.73 -7.74,38.29 -17.12,27.32 -34.3,56.53 -25.04,42.57 -7.44,8.51 -3.77,56.95l-135.37 -85.8c36.13,55.37 93.75,80.16 138.76,122.03l-40.67 28.05c-60.57,-50.08 -126.03,-136.59 -204.63,-22.7 -65.46,94.85 -1.39,120.31 43.89,210.79 -37.38,7.47 -25.55,7.12 -55.28,-8.47 16.64,9.69 41.79,23.39 52.67,35.09 26.57,28.57 15.64,44.75 14.38,54.09l-134.47 -10.74 -29.38 -104.52c2.48,-2.36 12.93,-1.44 21,-18.81 -36.69,-18.98 -12.92,-16.3 -31.61,-38.24l-11.8 -11.76c1.48,-2.29 -3.77,-4.23 -6.31,-5.23 -0.86,29.23 5.81,50.86 11.03,79.34l-5.43 70.46 -49.14 -19.59c2.52,-0.16 1.42,5.06 2.32,3.03l-92.26 -18.4c36.33,24.65 45.65,24.43 88.07,35.76 80.85,21.59 28.2,39.17 21.68,45.08 64.39,-4.12 56.77,61.21 47.71,100.61l-24.4 -8.72c-1.09,2.55 -4.83,11.7 -6.2,14.48 -11.88,24.09 12.17,-5.15 -17.83,28.67 -37.22,-39.94 -218.59,-216.89 -278.81,-241.34 37.75,48.03 99.27,94.25 143.36,135.84 42.46,40.04 29.37,45.11 42.31,67.09 7.31,12.41 49.1,46.75 63.61,63.8 -36.68,8.43 -53.35,-10.21 -93.22,-14.95 20.77,70.33 25.18,24.72 52.86,78.11 -186.63,-77.54 -139.12,-112.96 -228.48,-185.61 -27.66,-22.49 -47.91,-40.32 -71.12,-64.57 14.67,32.07 99.78,128.07 122.04,149.48l-25.82 13.68c46.44,23.43 71.17,46.16 105.93,102.07 29.22,47.02 64.31,78.44 66.78,119.85 -34.9,-6.86 -63.66,-42.09 -87.24,-69.55 0.99,-1.53 3.42,-3.4 3.78,-3.94 0.33,-0.48 2.81,-3.19 3.09,-3.76 10.82,-21.45 5.44,30.07 2.54,-6.33l-23.62 -29.7c-2.2,-3.31 -5.58,-10.98 -11.52,-19.75 -19.3,-28.51 -55.31,-61.91 -80.08,-77.5 17.87,27.08 13.68,18.67 21.76,44.55 8.27,26.48 -12.13,-2.72 11.7,41.59 42.88,79.7 105.34,73.63 108.87,177.17 -31.25,-38.8 -110.42,-75.36 -159.44,-118.85l14.83 50.68c6.98,75.63 -27.01,-69.58 0.8,19.54 24.06,29.99 76.69,57.88 111.97,65.73l6.83 1.64c29.6,19.69 3.55,0.1 0.65,10.22 -0.11,0.37 -3.39,4.17 -2.22,3.78 1.26,-0.42 -2.06,2.4 -2.67,3.84 15.57,29.93 40.68,42.06 78.48,78.53 -44.78,48.79 -7.31,-7.85 -32.41,12.68 -24.77,20.27 -3.93,-21.88 -2.55,8.68l3.37 10.28c2,-0.4 2.08,3.75 2.26,6.92l-70.53 -2.25 47.51 30.52c-47.61,23.54 -80.6,-11.45 -142.26,-11.19l63.64 34.94 -188.02 64.15c46.22,4.85 117.62,-26.99 152.15,-20.33 26.07,5.02 96.2,50.15 110.68,74.7 -80.65,45.82 -48.88,36.27 -129.16,46.12 18.94,11.22 19.43,10.51 35.77,21.54 35.47,23.95 48.13,15.29 76.5,35.68 -28.29,53.65 -61.16,33 -122.76,36.53 -32.36,-79.39 -43.36,-34.64 -126.18,-32.85 -30.66,0.67 -23.52,-0.25 -49.17,4.73 34.47,20.99 37.9,11.05 75.7,8.14 52.75,-4.07 5.97,-24.16 58.98,23.08l-116.44 13.66c28.1,17.03 92.56,11.72 127.87,11.53 -41.64,16.45 -73.44,0.61 -93.11,31.55 34.35,21.71 0.56,12.3 48.61,5.52 40.5,-5.71 111.64,-18.53 149.51,-10.92 -56.75,20.88 -69.8,6.69 -127.27,34.05 -69.88,33.27 -339.51,128.57 -391.24,116.32 -24.03,-5.7 -30.57,-17.55 -52.72,-25.09 -71.8,-24.42 -123.19,8.35 -173.08,20.23l-251.68 32.85c40.93,33.49 164.44,4.03 220.78,-8.71 115.61,-26.14 71.82,-16.42 108.45,-5.05 31.25,9.7 70.33,5.69 102.72,10.08l110.53 -9.52c99.8,-31.56 143.99,-2.41 221.26,-24.5z"/>
   <path class="fil3" d="M3890.46 1151.15c27.66,-50.34 234.61,-140.92 274.66,-203.68 -94.89,32.77 -577.63,289.34 -357.69,444.57 114.78,81.01 131.05,-5.95 187.78,-33.81 124.37,-61.08 361.9,-5.64 298.74,-224.58 -55.92,-193.83 -307.58,32.65 -403.49,17.5z"/>
   <path class="fil3" d="M3524.76 1276.68c46.75,-25.44 26.96,-41.05 78.64,-62.9 50.38,-21.3 52.77,-4.79 97.17,-56.64 34.24,-39.98 99.65,-153.36 12.48,-172.71 -98.36,-21.83 -164.14,151.9 -195.78,207.54 -23.9,42.03 -29.19,45.15 7.49,84.71z"/>
   <path class="fil3" d="M4086.2 3662.87c21.13,94.94 172.53,273.97 250.34,197.29 -10.27,-100.53 -121.14,-154.01 -166.03,-187.49 -37.82,-28.19 -37.56,-36.34 -84.31,-9.8z"/>
   <path class="fil3" d="M1479.12 744.79c-47.88,23.51 -59.55,33.36 -41.2,80.75 8.2,21.19 39.13,76.71 53.1,93.23 22.89,27.08 105.07,112.73 139.8,121.37 2.73,-43.76 -14.53,-55.43 -43.31,-94.79 -66.5,-90.95 24.17,-141.54 -108.39,-200.56z"/>
   <path class="fil3" d="M1871.55 353.25c-87.19,64.06 3.54,186.94 101.31,127.89 111.58,-67.4 -8.6,-196 -101.31,-127.89z"/>
   <path class="fil3" d="M2715.95 3858.62c-74.35,61.93 -40.13,169.72 26.35,252.5 46.47,-48.39 69.22,-200.54 -26.35,-252.5z"/>
   <path class="fil3" d="M3778.18 4310.03c56.15,-34.59 -35.34,-247.45 -83.43,-299.3 -12.99,17.56 -31.62,0.13 -16.19,73.47 20.61,97.99 60.91,184.08 86.14,214.14l13.48 11.69z"/>
   <path class="fil3" d="M517.55 2079.18c-102.04,-42.44 -165.64,40.79 -100.64,104.6 64.25,63.09 158.45,-9.49 100.64,-104.6z"/>
   <path class="fil3" d="M4454.4 2446.54c112.11,-35.87 75.08,-132.31 6.49,-140.14 -87.36,-9.96 -92.55,93.39 -6.49,140.14z"/>
   <path class="fil3" d="M2168.26 574.87c-61.68,-48.46 -166.39,36.5 -86.69,99.92 53.29,42.41 155.73,-45.68 86.69,-99.92z"/>
   <path class="fil3" d="M3170.56 822.14l143.12 -148.64c50.81,-57.62 116.94,-113.44 96.33,-184.23 -96.62,77.67 -168.72,238.58 -239.45,332.87z"/>
   <path class="fil3" d="M1534.13 3150.08c-117.64,59.6 -31.51,150.44 45.56,120.25 58.07,-65.02 5.18,-99.05 -45.56,-120.25z"/>
   <path class="fil3" d="M363.25 1849.35c-12,93.32 78.41,115.91 119.9,36.91 -23.1,-71.47 -61.13,-86.97 -119.9,-36.91z"/>
   <path class="fil3" d="M3519.56 3377.01c-10.77,45.78 19.94,54.08 59.57,93.41 61.5,61.04 57.62,74.55 104.65,75.57 -14.96,-42.07 -38.84,-78.74 -69.91,-115.3 -33.77,-39.74 -50.94,-61.4 -94.31,-53.68z"/>
   <path class="fil3" d="M2489.34 199.23l47.3 -16.5c-6.88,-83.41 -23.13,-76.36 -5.19,-160.43 -18.28,-1.94 -43.92,-7.54 -62.62,-12l20.51 188.93z"/>
   <path class="fil3" d="M3062.52 779.84c26.58,-0.79 22.62,6.1 29.57,12.11 23.22,-26.16 47,-51.64 66.59,-82.74 24.04,-38.17 33.05,-55.13 20.57,-100.52 -75.82,58.35 -81.59,112.49 -116.73,171.15z"/>
   <path class="fil3" d="M698.03 2481.61c26.98,13.11 31.96,4.08 52.85,25.08 68.65,69.01 -18.94,47.08 154.63,29.36 -24.27,-28.75 -80.92,-61.59 -97.9,-63.25 -53.46,-5.23 -17.83,29.51 -109.58,8.81z"/>
   <path class="fil3" d="M4186.87 3328.33c15.57,30.31 40.29,54.58 67.69,71.11 17.01,10.25 73.61,37.87 84.53,6.02 25.51,-74.45 -130.69,-62.6 -152.22,-77.13z"/>
   <path class="fil3" d="M1772.65 87.02c2.68,27.49 14.64,69.95 35.06,95.4 32.52,40.54 21.05,18.17 31.56,22.07 15.03,-41.39 22.85,-182.64 -66.62,-117.47z"/>
   <path class="fil3" d="M1959.34 3722.81c-20.28,46.72 -21.06,83.84 -25.42,144.11 -3.28,45.41 -12.96,99.53 -6.68,140.86 49.8,-44.13 41.82,-211.36 32.1,-284.97z"/>
   <path class="fil3" d="M682.42 2122.2c-37.98,-35.94 -45.02,-17.45 -65.47,-57.89 -61.11,-120.84 -165.65,7.51 -28.14,32.56 19.68,3.58 32.08,3.59 49.79,10.57 35.93,14.15 3.03,11.57 43.82,14.76z"/>
   <path class="fil3" d="M4097.63 2220.93c52.14,44.67 140.37,36.94 162.48,26.4 61.02,-29.08 9.55,-0.16 26.26,-25.13 -25.44,-22.93 -4.44,-18.93 -44.71,-17.75 -28.41,0.83 -97.52,20.12 -144.03,16.48z"/>
   <path class="fil3" d="M4018.91 2333.99c-15.78,-120.78 -158.49,-35.77 -65.9,17.5 34.18,19.67 53.81,-2.23 65.9,-17.5z"/>
   <path class="fil3" d="M3918.74 3384.78c-13.2,-6.71 -38.29,-26.22 -58.21,9.5 -9.98,17.89 -0.66,43.81 20.69,55.96 42.2,24.02 98.8,-34.32 37.52,-65.46z"/>
   <path class="fil3" d="M1167.98 3289.05c-37.79,-73.36 -97.84,-2.16 -100.14,44.9 33.88,28.73 8.27,29.56 100.14,-44.9z"/>
   <path class="fil3" d="M1667.63 3679.28c-23.98,50.29 -65.64,138.72 -52.12,196.2 26.32,-38 64.43,-153.02 52.12,-196.2z"/>
   <path class="fil3" d="M2489.34 199.23l-26.25 6.29 -24.16 -68.02c8.99,47.82 -1.63,116.88 45.15,143.04 36.41,-24.62 15.27,-29.29 5.26,-81.31z"/>
   <path class="fil3" d="M939 3331.02c51.88,47.36 81.19,-7.79 81.14,-12.41 -0.67,-55.51 -64.52,-9.23 -81.14,12.41z"/>
   <path class="fil3" d="M1052.39 3216.81c20.98,17.48 40.69,20.5 62.69,16.76 3.09,-26.99 3.82,-9.27 -7.94,-42.94l-54.75 26.18z"/>
   <path class="fil3" d="M985.4 1643.83c33.22,27.61 82.06,37.06 122.84,37.04 -36.8,-19.87 -79.06,-35.43 -122.84,-37.04z"/>
   <path class="fil3" d="M1691.93 3601.86c-22.98,36.32 -30.73,1.97 -19.63,70.15 30.65,-30.68 27.5,-22.7 19.63,-70.15z"/>
   <path class="fil3" d="M946.08 2169.19c5.47,4.2 20.2,2.34 27.99,1.87 3.16,-30.6 -4.57,-49.68 -34.53,-27.13 -1.56,14.12 -32.92,-5.12 6.54,25.26z"/>
   <path class="fil3" d="M1711.81 3539.2c32.49,-21.86 29.3,-25.28 23.76,-62.6 -14.78,14.27 -20.09,19.57 -24.55,32.7 -6.43,18.88 -3.65,7.74 0.79,29.9z"/>
   <path class="fil3" d="M712.25 2754.99c2.66,-0.84 5.58,3.78 7.27,4.18 56.14,13.28 37.57,-14.3 39.31,-18.85 -29.69,-12.42 -23.2,-19.02 -46.58,14.67z"/>
   <path class="fil3" d="M1178.77 3135.69c28.6,16.76 -6.44,18.26 45.9,3.52 -30.07,-37.12 -1.14,-21.03 -29.83,-21.75 -36.31,-0.91 -14.12,15.18 -16.07,18.23z"/>
  </g>
  <g id="_2044665338928">
   <path class="fil4" d="M2547.43 3960.49c-1.73,1.86 -5.14,2.2 -5.1,5.66 0.04,3.41 -3.75,4.56 -4.52,5.97l-16.82 35.41c-0.97,1.86 -3.02,5.05 -4.65,7.5l-5.51 -242.81c36.89,65.03 31.06,124.24 36.6,188.27zm-356.09 -286.49c-2.78,-35.96 -5.36,-43.8 15.84,-72.27 21.25,0.62 8.48,-3.91 29.5,8 -5.68,31.55 -13.61,42.91 -45.34,64.27zm-381.65 -492.28c-39.12,16.67 -98.16,35.63 -138.7,7.77 7.45,-38 98.22,-51.86 138.7,-7.77zm-121.43 -25.87c9.65,-40.02 16.19,-49.18 32.62,-83.45l74.31 2.76c-14.82,46.04 -54.37,62.25 -106.93,80.69zm859.17 804.64l71.23 114.07c59.79,-50.67 22.55,-8.79 27.33,-86.63 0.9,-14.69 6.69,-40.7 6.96,-54.19l-24.56 55.79c-16.41,-36.81 -2.56,-57.26 -5.12,-98.79 -3.86,-62.3 16.87,-107.98 29.9,-160.49 13.03,-52.55 -9.77,-32.49 34.53,-70.35 -32.91,-27.06 -55.76,-35.81 -22.16,-78.27 69.71,138.2 31.09,113.78 38.26,236.04 12.03,-17.74 25.58,-31.28 42.17,-42.9 4.95,33.63 -2.32,71.3 12.62,89.82 27.65,-19.79 20.37,-8.58 16.81,-58.38l3.08 -199.17c21.35,-2.1 19.76,10.01 33.21,12.04 25.41,-39.47 -7.31,-49.03 26.78,-26.86 14.61,9.51 24.11,33.99 33.07,52.48 8.26,0.08 12.66,-3.01 14.15,-3.52 0.99,-0.34 3.82,-1.25 4.87,-1.67 19.99,-8 31.97,-14.3 33.45,-35.11 4.13,-58.51 -39.96,-5.1 -7.3,-76.32 38.43,-1.88 36.03,4.86 65.92,42.3 20.36,25.5 28.64,37.32 61.65,37.67 -21.82,-62.33 -74.66,-75.29 -106.82,-153.31 39.95,11.98 79.94,54.39 109.95,75.62 37.52,26.55 75.35,61.02 114.84,41.9 1.41,-41.1 -6.36,-31.96 -36.42,-49.83 -26.65,-15.85 -49.71,-52.76 -73.6,-70.84l-81.7 -30.97c-4.42,-44.21 2.6,-22.07 2.94,-47.76 0.38,-29.29 -6.76,-13.39 -0.67,-37.21l29.8 -69.09c-0.35,-3.43 0.48,-4.93 1.38,-7.19 39.84,-1.37 47.46,-7.81 61.51,-40.89 34.54,8.89 66.46,16.21 96.41,-3.38l9.15 -7.09c11.41,39.86 4.81,5.61 -3.32,48.59 44.13,21.89 48.07,4.96 74.82,66.45 33.69,77.42 19.22,73.99 66.98,71.04 3.1,-58.22 -73.78,-120.06 -68.25,-172.32 40.25,8.44 62.7,68.29 81.25,107.21 12.52,26.26 21.98,72.4 44.67,76.08 48.16,7.81 18.26,-3.3 25.71,-9.59 -4.66,-39.59 -54.57,-106.68 -75.28,-144.35 -41.5,-75.47 12.89,-49.67 41.29,-77.2l13.77 -15.98c87.9,-86.08 26.9,-63.16 78.49,-98.87 37.8,36.15 53.79,42.56 101.22,72.57 88.8,56.19 215.87,197.3 324.34,188.14 -157.23,-156.7 -472.16,-224.85 -410.95,-337.12 24.22,-44.41 43.93,-85.17 43.45,-139.7l26.31 69.05 64.57 -29.48c-0.26,-43.51 -7.3,-30.54 -14.67,-64.26 -0.44,-2.01 -1.44,-4.77 -1.65,-6.75 -0.3,-2.83 0.1,-11.39 0.45,-13.88 9.09,-66.34 108.01,11.99 105.85,-76.99 -50.18,-13.43 -61.15,25.34 -84.36,-11.03 -21.1,-33.07 16.66,-12.97 -29.59,-72.53 24.99,-27.01 62.26,-57.4 68.1,-89.86 -2.48,-1 -6.08,-1.33 -7.84,-1.62 -1.73,-0.28 -5.67,-1.13 -7.76,-1.44 -2.05,-0.31 -5.5,-0.83 -7.66,-1.11 -2.1,-0.28 -5.54,-0.55 -7.48,-0.78 -69.15,-7.88 21.05,9.42 -21.05,-1.42 18.04,-26.23 15.57,-7.54 7.34,-43.93l40.08 -59.73c-17.3,7.09 -37.49,19.13 -58.48,27.8l-14.83 -17.64c-15.27,12.71 -5.84,14.86 -12.91,29.77 -60.87,-25.41 -8.19,-24.51 -45.35,-46.22 -22.45,-13.11 -53.35,5.03 -96.91,6.87l29.2 -34.09c-13.08,-7.58 15.66,-20.73 -34.93,-4.79 32.26,-28.21 32.31,-39.2 74.85,-63.66 -19.7,-6.39 -75.8,18.59 -120.55,35.28 -47.88,17.86 -74.35,45.6 -125.29,53.19 5.03,-64.34 33.35,18.83 1.61,-68.04l66.54 -35.3 -64.51 3.81 17.42 -37.47c38.1,-3.85 32.31,5.25 58.99,5.11 104.37,-0.52 19.11,-68.5 3.54,-92.82 94.29,-101.36 84.26,21.01 116.04,79.35 29.92,54.92 75.96,31.69 108.48,63.9l14.32 28.47c28.67,-37.28 0.53,-18.76 33.09,-37.86 47.05,-27.61 99.07,-32.57 132.6,-82.48 29.74,-44.27 49.52,-116.96 41.48,-188.32 -13.42,-119.14 -50.46,-135.83 -133.17,-132.32 -60.87,2.59 -39.92,-24.4 -98.32,-13.22 -32.71,6.26 -75.61,30.94 -101.03,47.63 -1.29,17.31 8.9,3.23 -0.9,19.66 -3.09,5.16 -16.44,20.04 -20.37,24 -20.27,20.43 -39.52,35.58 -69.43,30.95 5.31,-63.09 40.32,-54.02 87.31,-93.23 30.8,-25.7 9.41,-26.69 49.17,-46.02 32,-15.56 43.29,-5.89 73.61,-28.08 -14.14,-8.68 1.15,-2.16 -21.22,-7.07 -21.71,-4.76 -41.13,-3.36 -55.92,-16.96 30.16,-10.06 77.85,-13.5 101.56,-2.86 52.11,23.39 -4.79,43.48 61.76,42.07 35.24,-74.77 -75.72,-65 -110.73,-101.48 6.07,-10.42 0.42,-7.47 17.88,-24.32 48.66,-46.97 333.29,-71.06 396.87,-78.45 89.89,-10.45 374.1,-22.21 424.57,-82.64 -61.41,-35.92 -330.9,-7.83 -426.52,-11.3 -71.01,-2.57 -101.31,-33.63 -191.28,-35.11 -153.75,-2.52 -103.51,-34.69 -187.06,-45.85 -10.63,-19.09 -3.28,12.05 3.91,-11.87 9.84,-32.76 26.25,13.15 1.17,-8.19l-132.89 41.08c-13.64,-49.64 35.15,-75.58 78.82,-106.17 85.4,-59.85 119.18,-76.14 99.44,-178.22 -3.16,-16.31 -9.88,-32.66 -11.05,-38.17 -10.75,-50.43 45.2,-95.84 60.62,-147.43l-54.68 65.98c10.98,-58.82 31.64,-115.04 41.8,-163.08 -37.5,-44.83 -84.14,-36.75 -41.6,-137.88 29.1,-69.18 82.35,-77.12 7.9,-139.28 -37.59,14.8 -15.95,15.7 -46.81,34.2 -44.66,26.76 -15.61,1.6 -55.85,17.82 -97.28,39.21 -115.23,92.27 -196.16,-17.64l-9.54 -12.28c-50.58,-68.81 28.44,-182.88 -84.55,-216.93 -70.75,-21.32 -124.5,42.58 -133.58,85.35 -19.16,90.26 29.93,106.57 79.56,133.22l-42.8 34.86c13.61,9.87 1.26,2.03 20.24,14.01 16.46,10.38 -3.34,-1.52 13.34,6.74 -55.77,79.47 -88.89,125.68 -47.92,265.08 -156.42,93.39 -133.39,-19.73 -223.46,-15.16 -69.94,3.55 -75.14,29.57 -103.35,68.97 -34.31,47.93 -45.3,14.48 -39.89,97.5l-90.67 65.91c-5.96,-24.34 -13.06,-40.55 -5.82,-63.55l16.56 -49.59c0.98,-26.93 2.01,-92.63 -3.33,-108.48 -83.28,14.79 -35.68,144.21 -125.83,158.85 -16.45,-71.57 12.15,-138.5 0.59,-210.31 -26.47,114.6 -23.57,58.37 -51.99,99.14l-35.86 57.35c-6.17,11.09 -1.52,5.32 -9.79,19.01 -14.26,23.59 -15.34,7.08 -26.44,37.68l-28 -124.09c-9.53,57.26 19.47,69.5 -2.91,133.18 -49.27,-31.67 -24.15,-54.03 -55.43,-99.2 22.41,95.41 49.85,124.38 32.12,211.61 -22.78,-6.35 -2.15,2.63 -20.74,-9.44 -94.68,-61.45 8.28,-203.77 -239.39,-183.06l-17.23 -104.14c4.4,27.53 1.09,68.5 -11.14,95.56 -43.05,2.21 -178.71,-0.21 -219.82,-9.5 -29.97,-6.77 -68.72,-29.72 -98.64,-24.37 -45.63,8.16 -40.18,38.16 -110.26,44.1 -16.09,-4.76 -35.57,-37.22 -50.26,-52.56 -44.13,-46.08 -71.29,23.7 -131.93,46.64 -61.42,23.23 -70.65,-4.74 -139.84,15.98 -5.92,94.83 55.13,92.9 105.4,140.52 2.05,42.09 -5.67,23.55 -5.76,55.93 -0.14,49.95 48.09,116.43 5.44,153.34 -40.51,23.52 -67.58,-3.43 -95.1,-23.44 -42.87,-31.17 -58.15,-25.24 -119.65,-5.25 25.86,85.94 49.69,94.78 79.39,152.82 -8.98,26.63 -14.33,25.47 -26.94,48.36l35.62 67.63c-130.4,6.99 -146.57,-112.11 -216.84,-109.9 -6.05,96.83 66.56,126 89.81,196.87 -81.94,-0.3 -84.74,-51.17 -179.91,5.44l21.68 82.57c-43.37,-7.58 -71.48,-44.59 -100.13,-65.26 -43.36,-31.28 -43.18,-43 -60.79,-102.59 -14.38,-48.66 -41.39,-88.06 -49.74,-131.5 -10.96,-57.1 11.25,-63.03 -12.52,-130.33 -5.53,36.94 -26.43,89.49 -24.57,122.15 3.06,54.01 38.85,85.1 49.29,134.57 -59.13,-15.78 -78.04,-45.62 -133.72,-94.98l-0.53 13.03c0.08,1.52 0.19,4.84 0.33,6.54 0.14,1.74 0.62,4.84 0.83,6.65l5.48 34.24c-51,29 -84.33,27.65 -101.62,77.41 58.74,84.87 206.41,55.51 263.43,104.45 54.68,46.92 144.12,181.48 191.5,206.03 5.42,-20.17 4.66,-54.63 2.78,-80.12 58.78,13.34 66.92,31.13 61.67,85.78 -3.85,40.11 8.78,87.47 -0.5,123.03 -35.87,20.72 -48.78,13.71 -77.93,4.71l-19.78 36.57c-23.55,41.4 12.59,50.24 19.51,109.17 -91.65,23.11 -154.54,10.77 -150.87,123.22 6.53,199.58 152.36,91.6 243.5,112.03 28.7,6.44 60.85,32.5 88.73,29.97 77.97,-7.06 24.13,-97.98 91.94,-139.05 43.86,22.18 40.22,45 20.64,88.57 -22.78,50.69 -28.25,33.97 -74.92,46.27 28.06,40.58 -2.6,44.16 -46.44,98.87l76.05 -12.48c-89.63,94.07 -232.12,200.11 -350.17,279.85 -132.73,89.66 -118.72,38.24 -236.32,71.88 -173.97,49.76 97.79,357.05 205.68,139.31 31.24,-63.03 37.73,-130.35 77.63,-199.66 50.03,-86.9 109.97,-76.43 189.47,-133.75 103.66,-74.74 57.57,-31.96 78.37,-26.65 30.96,7.91 31.66,-38.56 75.41,-57.87 34.37,15.94 21.91,22.32 45.59,45.12 34.5,33.23 6.34,8.94 52.87,16.41l-111.5 108.34c60.39,-21.59 96.78,-70.35 146.44,-103.36l17.29 44.7c-60.93,45.84 -157.31,88.06 -67.62,187.91 74.7,83.17 113.19,28.47 208.76,6.19 -1.39,36.95 0.96,25.7 -20.46,50.24 12.9,-13.52 31.49,-34.15 44.98,-41.77 32.96,-18.62 45.76,-4.65 54.28,-1.36l-40.49 124.44 -105.23 4.11c-1.66,-2.87 1.56,-12.52 -13.01,-24.06 -26.18,30.34 -18.29,8.51 -43.2,21.2l-13.76 8.47c-1.83,-1.91 -4.84,2.61 -6.36,4.78 27.38,7.41 49.29,5.99 77.34,7.5l65.24 21.03 -29.58 41.93c0.43,-2.42 5.1,-0.19 3.39,-1.5l-38.18 82.88c31.45,-28.72 33.34,-37.55 53.61,-75.01 38.62,-71.4 43.31,-17.76 47.42,-10.28 10.64,-61.67 70.56,-39.74 105.68,-22.3l-13.73 21.05c2.16,1.61 9.94,7.2 12.26,9.12 20.05,16.65 -2.11,-12.64 23.02,23.3 -46.08,26.09 -253.95,157.25 -290.61,208.53 53.83,-24.77 111.32,-72.36 160.51,-104.58 47.35,-31.01 49.19,-17.51 72.83,-24.76 13.37,-4.09 55.2,-35.76 74.56,-45.6 -0.33,36.5 -21.68,48.02 -35.15,84.56 71.04,-3.71 29.01,-18.17 85.62,-32.23 -115.29,158.55 -137.97,105.74 -226.68,173.64 -27.46,21.02 -48.85,36.09 -76.96,52.51 33.56,-6.59 143.34,-65.21 168.56,-81.38l7.07 27.44c32.59,-38.52 59.62,-56.72 120.21,-76.88 50.95,-16.96 88.51,-42.96 128.14,-35.94 -14.35,31.37 -54.08,50.55 -85.31,66.59 -1.22,-1.28 -2.43,-4 -2.86,-4.46 -0.38,-0.41 -2.38,-3.37 -2.85,-3.76 -17.8,-15.04 29.59,1.66 -5.4,-3.82l-33.35 15.58c-3.62,1.32 -11.62,2.78 -21.24,6.4 -31.25,11.77 -70.88,38.21 -91.18,58.05 29.58,-10.74 20.7,-8.68 46.94,-10.47 26.84,-1.82 -5.31,10.83 41.88,-1.65 84.86,-22.45 93.23,-82.75 191.71,-62.71 -43.66,20.73 -96.03,87.16 -148.11,123.58l51.15 -2.54c72.93,10.48 -71.74,9.77 18.62,3.65 33.71,-15.93 71.91,-59.27 87.28,-90.79l3.09 -6.07c25.25,-23.48 0.89,-3.33 9.79,1.7 0.32,0.18 3.17,4.14 3.06,2.94 -0.11,-1.28 1.8,2.49 3.02,3.39 31.75,-7.93 48.87,-28.89 91.8,-56.32 35.92,53.27 -9.06,5.14 4.64,33.44 13.53,27.95 -21.52,-1.22 7.61,4.37l10.46 -0.86c0.08,-1.97 4.01,-1.12 7.04,-0.56l-18.04 66.02 39.52 -37.93c11.46,50.22 -29,73.45 -42.68,131.68l47.33 -52.16 18.08 191.86c15.01,-42.51 1.09,-117.05 15.17,-148.12 10.62,-23.46 69.02,-79.43 95.45,-87.55 25.02,86.43 23.18,54.3 14.35,132.26 14.86,-15.34 14.3,-15.96 28.4,-28.89 30.6,-28.05 25.29,-41.95 50.92,-64.11 44.23,38.8 17.33,65.15 6.75,124.05 -82.2,12.61 -42.46,33.1 -59.46,111.62 -6.3,29.08 -5.56,22.13 -6.65,47.46 27.58,-27.78 18.99,-33.26 24.77,-69.58 8.07,-50.68 -21.44,-11.09 35.09,-50.43l-13.4 112.93c22.41,-22.66 31.95,-84.67 39.74,-118.03 6.12,43 -16,69.42 8.74,94.96 28.24,-27.5 11.73,2.25 16.19,-44.61 3.75,-39.49 7.71,-109.5 23.45,-143.51 6.88,58.25 -9.45,67.37 3.39,127.76 15.61,73.43 44.65,349.3 21.41,395.34 -10.8,21.38 -23.46,24.87 -35.57,44.06 -39.24,62.22 -19.93,118.11 -19.99,167.85l-25.83 244.84c40.84,-31.05 40.93,-154.22 41.63,-210.24 1.44,-114.96 0.73,-71.46 19.72,-103.45 16.2,-27.29 21.24,-65.06 32.69,-94.62l15.98 -106.43c-7.25,-101.27 30.23,-136.38 26.83,-214.25z"/>
   <path class="fil4" d="M1645.93 671.47c-41.24,-37.45 -79.98,-253.13 -130.14,-305.08 9.49,96.91 142.56,610.24 338.65,437.79 102.32,-89.99 23.96,-124.97 10.48,-184.78 -29.54,-131.11 76.38,-342.68 -144.42,-332.51 -195.47,8.99 -38.62,297.52 -74.57,384.58z"/>
   <path class="fil4" d="M1681.79 1044.8c-13.44,-49.85 -32.64,-34.7 -41.58,-88.38 -8.72,-52.34 7.39,-50.87 -31.5,-104.46 -29.99,-41.33 -122.17,-128.63 -160.1,-50.76 -42.8,87.86 106.24,189.14 151.58,231.55 34.26,32.03 36.01,37.73 81.6,12.05z"/>
   <path class="fil4" d="M4059.59 1053.82c94.33,1.49 297.39,-100.92 242.63,-191.63 -97.17,-13 -172.64,79.51 -214.36,114.31 -35.13,29.31 -42.76,27.22 -28.27,77.32z"/>
   <path class="fil4" d="M718.24 2854.51c11.38,50.48 18.04,63.72 66.88,57.1 21.84,-2.95 81.2,-19.6 99.94,-29.04 30.71,-15.48 130.06,-73.67 146.05,-104.49 -40.66,-12.45 -55.57,1.19 -99.2,19.46 -100.81,42.2 -128.06,-54.75 -213.67,56.97z"/>
   <path class="fil4" d="M437.47 2395.92c40.75,96.72 177.15,38.87 143.51,-66.7 -38.39,-120.48 -186.84,-36.13 -143.51,66.7z"/>
   <path class="fil4" d="M3934.92 2390.65c41.64,84.13 151.06,76.17 244.15,32.14 -35.16,-54.75 -173.55,-110.57 -244.15,-32.14z"/>
   <path class="fil4" d="M4600.56 1490.48c-19.96,-60.78 -241.42,-22.52 -301.18,11.14 13.63,16.22 -7.02,29.86 65.65,31.87 97.1,2.67 187.4,-15.91 221.46,-32.93l14.07 -10.08z"/>
   <path class="fil4" d="M1760 4062.86c-63.08,86.68 1.08,165.46 75.95,118.55 74.02,-46.37 26.82,-151.62 -75.95,-118.55z"/>
   <path class="fil4" d="M2995.26 431.89c-8.53,-113.86 -107.87,-100.69 -130.73,-37.75 -29.13,80.16 67.2,108.38 130.73,37.75z"/>
   <path class="fil4" d="M713.51 2166.04c-59.63,47.25 -3.13,165.21 74.7,104.34 52.03,-40.7 -7.94,-157.22 -74.7,-104.34z"/>
   <path class="fil4" d="M1173.04 1276.33l-107.92 -168.56c-42.88,-60.95 -80.61,-135.94 -152.05,-132.47 51.47,108.68 186.98,213.02 259.97,301.03z"/>
   <path class="fil4" d="M2999.73 3345.59c29.67,124.43 134.81,63.69 123.72,-15.83 -48.23,-69.45 -92.27,-27.25 -123.72,15.83z"/>
   <path class="fil4" d="M1508.35 4156.54c85.32,32.38 127.04,-47.81 61.89,-104.78 -72.64,5.65 -95.84,38.03 -61.89,104.78z"/>
   <path class="fil4" d="M3662 1523.84c40.76,20.49 55.52,-6.6 101.57,-35.11 71.46,-44.24 83.33,-37.53 94.91,-81.67 -43.06,4.62 -83.05,18.87 -124.55,39.93 -45.11,22.88 -69.42,34.19 -71.93,76.85z"/>
   <path class="fil4" d="M431.63 1778.35l-4.88 -48.34c-80.25,-12.34 -77.26,4.58 -152.52,-31.32 -5.96,16.81 -17.03,39.73 -25.46,56.36l182.86 23.3z"/>
   <path class="fil4" d="M1108.75 1368.7c5.25,-25.25 10.85,-19.96 18.1,-25.16 -19.45,-27.81 -38.1,-56 -63.03,-81.5 -30.58,-31.29 -44.54,-43.62 -90.18,-42.09 37.94,84.69 87.7,102.36 135.11,148.75z"/>
   <path class="fil4" d="M2180.38 3983.44c18.45,-22.49 11.06,-29.23 35.58,-44.19 80.61,-49.19 40.14,28.49 62.61,-139.24 -32.61,16.4 -76.37,62.42 -81.77,78.07 -17,49.25 23.82,23.48 -16.42,105.36z"/>
   <path class="fil4" d="M3766.72 883.33c32.11,-7.85 60.58,-25.68 82.36,-47.8 13.51,-13.73 52.34,-60.9 24.76,-78.39 -64.48,-40.87 -88.55,109.16 -107.12,126.19z"/>
   <path class="fil4" d="M163.99 2429.13c26.54,3.68 69.29,1.97 97.91,-11.55 45.58,-21.52 21.89,-15.75 27.94,-24.78 -35.65,-23.52 -167.13,-62.79 -125.85,36.33z"/>
   <path class="fil4" d="M3636.01 3073.75c39.5,29.68 74.33,38.8 130.21,56.52 42.1,13.35 90.97,34.69 131.37,38.09 -30.38,-56.94 -189.95,-87.16 -261.58,-94.61z"/>
   <path class="fil4" d="M1837.8 3917.03c-42.48,27.72 -26.63,38.54 -69.39,48.7 -127.79,30.37 -30.31,157.96 24.36,33.89 7.82,-17.75 10.63,-29.45 21.21,-44.58 21.46,-30.7 11.6,-0.25 23.82,-38.01z"/>
   <path class="fil4" d="M2701.89 717.53c53.91,-39.11 66.54,-124.08 61.59,-147.31 -13.67,-64.14 1.99,-9.05 -17.79,-30.45 -27.37,18.82 -18.86,-0.09 -26.83,38.17 -5.63,26.98 -3.03,96.54 -16.97,139.59z"/>
   <path class="fil4" d="M2790.78 817.31c-117.51,-12.37 -69.53,141.44 1.62,66.12 26.28,-27.81 10.05,-51.27 -1.62,-66.12z"/>
   <path class="fil4" d="M3759.44 1149.01c-9.31,10.94 -33.37,30.21 -4.17,57.07 14.62,13.45 41.17,10.5 57.45,-6.89 32.19,-34.39 -10.07,-100.95 -53.28,-50.18z"/>
   <path class="fil4" d="M3048.17 3722.38c-77.73,19.09 -24.12,91.81 19.75,104.61 34.76,-25.48 29.76,-1.14 -19.75,-104.61z"/>
   <path class="fil4" d="M3529.1 3339.11c42.02,33.98 116.04,93.24 173.32,93.46 -29.91,-33.4 -129.81,-95.32 -173.32,-93.46z"/>
   <path class="fil4" d="M431.63 1778.35l0 26.19 -69.61 7.43c47.14,2.32 109.89,27.92 145.13,-10.3 -15.01,-39.9 -24.19,-21.02 -75.52,-23.32z"/>
   <path class="fil4" d="M3036.08 3947.87c56.39,-38.26 10.98,-78.36 6.61,-79.35 -52.52,-11.91 -23.28,58.78 -6.61,79.35z"/>
   <path class="fil4" d="M2953.93 3815.12c21.23,-15.85 28.52,-33.76 29.96,-55.36 -24.76,-9.01 -7.88,-5.7 -42.3,-2.2l12.34 57.56z"/>
   <path class="fil4" d="M1454.92 3523.23c33.54,-25.11 53.48,-69.06 62.67,-107.52 -27.05,30.22 -51.28,66.57 -62.67,107.52z"/>
   <path class="fil4" d="M3461.55 3298.71c29.07,29.89 -5.08,29.44 61.74,34.36 -22.03,-35.84 -15.21,-31.06 -61.74,-34.36z"/>
   <path class="fil4" d="M1941.64 3678.91c5.2,-4.21 6.77,-18.53 8.09,-25.98 -28.16,-9.88 -47.9,-6.91 -33.39,26.45 12.97,4.66 -12.26,29.9 25.3,-0.47z"/>
   <path class="fil4" d="M3406.92 3265.82c-13.29,-35.58 -17.23,-33.35 -53.69,-36.55 10.13,17.17 13.92,23.37 25.3,30.55 16.37,10.32 6.48,5.18 28.39,6z"/>
   <path class="fil4" d="M2441.48 4031.74c-0.19,-2.7 4.82,-4.41 5.58,-5.91 25.2,-49.97 -5,-38.68 -8.9,-41.35 -18.42,25.21 -23.18,17.6 3.32,47.26z"/>
   <path class="fil4" d="M2905.93 3677.58c22.27,-23.2 15.78,10.2 13.69,-42.5 -41.81,19.99 -20.1,-3.68 -27.25,23.22 -9.06,34.06 11.13,16.75 13.56,19.28z"/>
  </g>
 </g>
</svg>
