<?xml version="1.0" encoding="UTF-8"?>
<!DOCTYPE svg PUBLIC "-//W3C//DTD SVG 1.1//EN" "http://www.w3.org/Graphics/SVG/1.1/DTD/svg11.dtd">
<!-- Creator: CorelDRAW -->
<svg xmlns="http://www.w3.org/2000/svg" xml:space="preserve" width="4724px" height="4724px" version="1.1" style="shape-rendering:geometricPrecision; text-rendering:geometricPrecision; image-rendering:optimizeQuality; fill-rule:evenodd; clip-rule:evenodd"
viewBox="0 0 4724 4724"
 xmlns:xlink="http://www.w3.org/1999/xlink"
 xmlns:xodm="http://www.corel.com/coreldraw/odm/2003">
 <defs>
  <style type="text/css">
   <![CDATA[
    .fil1 {fill:black;fill-opacity:0.400000}
    .fil0 {fill:black;fill-opacity:0.600000}
    .fil3 {fill:black;fill-opacity:0.701961}
    .fil2 {fill:black;fill-opacity:0.901961}
   ]]>
  </style>
 </defs>
 <g id="Layer_x0020_1">
  <metadata id="CorelCorpID_0Corel-Layer"/>
  <g id="_2045166352320">
   <path class="fil0" d="M900.22 657.37c-2.28,-1.29 -3.44,-4.63 -6.9,-3.75 -3.41,0.85 -5.47,-2.68 -7.07,-3.11l-39.53 -8.36c-2.11,-0.53 -5.79,-1.82 -8.64,-2.87l242.12 -63.78c-56.35,52.59 -117.11,60.95 -179.98,81.87zm201.81 -425.76c35.39,-11.41 42.63,-15.89 76.26,-1.46 4.48,21.45 5.95,7.57 -0.94,31.5 -33,1.88 -46.29,-3.35 -75.32,-30.04zm402 -500.76c-26.1,-35.22 -59.27,-89.87 -41.07,-137.2 39.89,-1.65 75.57,86.03 41.07,137.2zm-3.2 -127.96c42.45,0.08 53.2,4.44 91.5,12.69l15.07 75.16c-49.72,-3.8 -75.46,-39.57 -106.57,-87.85zm-600.61 1054.48l-97.28 98.79c65.15,47.78 14.22,20.5 93.42,6.61 14.94,-2.62 42.41,-3.06 56,-6.02l-61.83 -11.24c32.97,-25.28 56.79,-16.31 97.81,-28.84 61.54,-18.81 112.32,-8.99 168.1,-8.53 55.81,0.47 30.23,-17.59 78.81,17.75 19.23,-39.49 22.53,-64.51 73.16,-41 -121.83,103.06 -106.62,58.47 -227.47,95 20.66,7.8 37.49,18.14 53.12,31.98 -32.53,13.03 -72.04,14.78 -87.02,34.2 26.47,22.97 13.48,18.37 62.56,2.85l200.44 -44.7c7.22,20.9 -5.3,22.22 -4.11,36.19 45.66,16.01 47.4,-19.09 33.35,20.4 -6.03,16.93 -28.3,32.33 -44.68,45.76 1.9,8.29 6.06,11.97 6.92,13.34 0.58,0.9 2.17,3.53 2.84,4.48 12.83,18.12 22.02,28.63 43.23,25.11 59.66,-9.89 -4.47,-41.28 74.77,-25.62 11.1,38.07 3.78,37.29 -26.59,76.23 -20.69,26.54 -30.55,37.67 -22.99,70.85 57.27,-36.83 57.58,-92.91 128.09,-143.88 -2.42,42.93 -35.35,93.2 -49.44,128.39 -17.61,43.97 -43.1,90.18 -14.45,125.19 41.55,-8.46 30.51,-14.05 41.22,-48.48 9.5,-30.51 40.97,-62.49 53.37,-90.78l11.45 -89.35c43.26,-15.04 22.75,-2.68 48.59,-8.51 29.45,-6.64 11.8,-9.99 37.14,-9.6l76.43 13.3c3.35,-1.17 5.05,-0.7 7.54,-0.34 10.93,39.62 19.22,45.71 55.75,51.86 -0.63,36.76 -0.31,70.52 26.52,95.86l9.31 7.47c-37.23,21 -4.48,6.16 -49.53,8.33 -11.35,49.49 6.57,49.39 -48.66,90.96 -69.54,52.35 -69.57,37.02 -55.16,84.19 59.11,-10.86 102.67,-102.78 156.39,-109.77 1.2,42.39 -53.42,79.25 -87.99,107.19 -23.32,18.85 -67.32,39.41 -65.56,63.04 3.73,50.16 7.69,17.51 15.78,23.47 38.58,-14.17 93.87,-80.3 126.67,-110.11 65.71,-59.71 52.89,1.01 87.31,22.88l19.32 9.98c107.39,67.47 69.78,11.81 117.96,54.97 -27.17,46.57 -29.77,64.14 -48.48,118.89 -35.03,102.52 -146.02,263.78 -110.81,370.34 119.39,-195.24 112.16,-527.35 239.4,-492.91 50.34,13.62 95.94,23.61 150.5,10.04l-62.92 42.95 45.04 57.66c43.57,-10.7 28.88,-14.64 60.92,-30.13 1.91,-0.92 4.44,-2.58 6.37,-3.27 2.77,-0.97 11.44,-2.63 14.03,-2.88 68.69,-6.8 13.88,111.17 102.59,87.66 1.42,-53.54 -40.09,-55.23 -9.19,-87.22 28.1,-29.1 17,13.58 65.62,-47.08 33.08,18.58 72.49,48.66 106.44,46.72 0.41,-2.72 -0.13,-6.41 -0.26,-8.24 -0.13,-1.81 -0.22,-5.96 -0.41,-8.14 -0.19,-2.12 -0.5,-5.7 -0.73,-7.93 -0.23,-2.18 -0.78,-5.69 -1.02,-7.7 -8.69,-71.22 -4.39,23.37 -3.63,-21.44 30.63,11.79 11.3,13.8 45.81,-3.18l69.51 25.86c-11.27,-15.65 -28.18,-33 -41.91,-51.97l14.13 -19.1c-16.4,-12.26 -16.3,-2.29 -32.94,-5.81 10.87,-67.12 22.6,-14.09 35.45,-56.55 7.77,-25.65 -17.83,-52.28 -30.13,-95.51l41.18 21.09c4.46,-14.93 24.55,10.73 -3.57,-36.17 36.02,25.58 47.05,22.99 81.78,59.77 1.68,-21.28 -36.82,-71.54 -64.29,-112.4 -29.4,-43.72 -63.56,-63.6 -83.39,-112.85 65.71,-10.4 -10.88,37.95 68.6,-14.72l51.36 58.25 -19.3 -63.77 41.75 8.49c13,37.26 2.49,33.64 9.02,60.36 25.57,104.52 73.27,2.73 93.92,-18.72 124.25,70.22 -0.85,89.52 -51.71,135.38 -47.89,43.18 -13.55,83.76 -38.05,124.1l-25.11 21.18c44.26,19.81 18.94,-3.96 45.9,24.1 38.97,40.55 56.43,91.52 114.51,113.16 51.52,19.2 129.14,21.59 198.77,-3.59 116.24,-42.04 124.08,-83.18 100.71,-165.27 -17.2,-60.41 14.89,-45.88 -10.33,-101.75 -14.13,-31.3 -49.16,-68.38 -72,-89.87 -17.66,2.86 -1.1,9.7 -19.92,3.81 -5.91,-1.85 -24.04,-11.67 -28.95,-14.66 -25.35,-15.42 -45.16,-31.08 -47.69,-62.18 64.53,-9.82 63.83,27.46 114.42,65.17 33.15,24.71 29.02,3.02 57.94,38.25 23.28,28.36 16.29,42 45.82,67.07 5.3,-16.26 2.44,0.64 1.99,-22.97 -0.44,-22.91 -6.5,-42.04 3.59,-60.14 17.32,27.83 32.22,74.82 27.23,101.14 -10.94,57.87 -44.74,5.64 -27.36,72.02 83.42,17.39 47,-91.52 75.18,-135.36 11.9,3.57 7.59,-1.38 28.67,12.08 58.77,37.52 151.21,317.11 173.88,379.09 32.04,87.62 112.02,369.75 184.71,405.86 21.28,-70.18 -71.54,-333.65 -91,-430.35 -14.45,-71.82 9.42,-109.64 -10.69,-200.21 -34.36,-154.75 9.95,-112.1 1.09,-198.55 16.6,-15.23 -12.86,-0.39 12.85,1.08 35.2,2 -6.89,29.47 8.48,-0.8l-73.06 -123.38c46.49,-25.58 84.2,17.11 125.36,53.55 80.49,71.27 104.93,101.24 202.54,56.95 15.59,-7.08 30.38,-17.74 35.62,-20.24 47.98,-22.87 106.94,22.32 162.36,25.41l-79.27 -39c61.6,-3.1 122.93,4.12 173.53,2.79 35.95,-48.35 16.67,-93.18 128.27,-74.79 76.34,12.58 97.08,64.06 141.53,-25.49 -23.85,-34.14 -19.57,-12.23 -45.51,-38.73 -37.55,-38.36 -5.35,-15.27 -31.28,-51.73 -62.64,-88.12 -120.15,-93.39 -29.37,-200.9l10.03 -12.52c56.85,-67.21 190.18,-15.36 197.21,-136.81 4.4,-76.05 -72.57,-114.61 -117.63,-113.45 -95.09,2.44 -99.66,55.57 -114.47,111.73l-45.23 -34.55c-6.63,16.01 -1.73,1.74 -9.19,23.65 -6.46,19 0.73,-3.71 -3.55,15 -93.06,-36.85 -147.34,-58.97 -277.27,15.55 -131.17,-134.43 -12.22,-138.47 -38.42,-227.68 -20.34,-69.27 -47.67,-68.25 -93.94,-87.08 -56.3,-22.9 -25.39,-41.94 -107.33,-16.6l-87.84 -75.1c22.98,-11.81 37.53,-22.82 62.32,-21.07l53.69 4.69c27.25,-5.47 93.36,-20.21 107.97,-29.36 -34.81,-79.95 -153.15,-1.17 -189.46,-88.05 67.82,-33.66 141.78,-21.05 211.01,-49.86 -121.25,0.95 -64.18,-9.63 -111.88,-28.34l-66.09 -22.2c-12.61,-3.53 -5.71,-0.25 -21.42,-5.26 -27.07,-8.63 -10.77,-13.67 -44.12,-17.46l117.69 -57.85c-59.69,4.19 -65,36.2 -134.22,29.04 19.93,-57 48.38,-37.18 86.16,-79.38 -90.28,45.36 -112.75,79.82 -204.45,82.98 0.9,-24.36 -3.16,-1.53 4.48,-23.07 38.89,-109.67 206.29,-40.58 126.11,-283.93l100.28 -42.26c-26.55,11.01 -68.42,17.52 -98.49,11.75 -12.54,-42.62 -42.66,-179.23 -43.22,-222.67 -0.4,-31.68 13.31,-76.03 0.78,-104.75 -19.13,-43.78 -47.91,-31.12 -70.67,-99.97 0.91,-17.27 28.78,-44.59 40.64,-63 35.61,-55.3 -40.87,-65.79 -78.41,-121.08 -38.04,-56.01 -12.21,-71.97 -49.58,-136.37 -96.5,16.81 -79.91,77.56 -115.6,139.38 -41.71,12.16 -24.98,-0.03 -57.46,7.65 -50.12,11.85 -105.2,76.15 -152.44,42.24 -33.3,-34.97 -12.77,-68.58 0.68,-100.97 20.97,-50.47 11.36,-64.36 -23.43,-121.23 -79.97,46.55 -83.11,72.57 -134.18,116.27 -28.85,-2.61 -28.98,-8.26 -54.95,-15.41l-59.26 51.94c-38.29,-129.07 77.24,-173.85 58.16,-243.78 -98.53,17.17 -110.35,96.97 -175.83,137.28 -19.37,-82.23 30.97,-97.23 -48.63,-179.07l-77.58 41.54c-2.81,-45.3 27.56,-82.36 41.41,-116.05 20.96,-50.98 32.75,-53.6 88.28,-85.56 45.32,-26.1 78.36,-62.63 119.91,-81.42 54.62,-24.69 65.88,-3.84 127.67,-43.82 -38.37,3.32 -96.07,-5.03 -128.37,4.66 -53.42,16.04 -76,59.38 -123.1,81.72 1.64,-63.08 27.01,-89.19 63.14,-156.86l-13.19 2.6c-1.5,0.44 -4.8,1.34 -6.47,1.89 -1.71,0.56 -4.71,1.78 -6.47,2.43l-33.02 13.71c-41.31,-44.18 -47.95,-77.92 -101.99,-83.31 -71,79.26 -6.13,220.27 -41.52,289.18 -33.93,66.07 -147.37,188.03 -160.63,241.43 21.52,0.6 55.89,-8.44 81,-16.44 0.73,62.13 -15.16,74.57 -71.21,82.42 -41.14,5.76 -85.59,29.78 -123.47,29.01 -29.38,-31 -25.45,-45.62 -23.42,-77l-41.42 -11.06c-47.15,-13.68 -47.34,24.67 -104.77,45.75 -45.16,-86.34 -47.87,-152.36 -159.74,-121.7 -198.54,54.43 -55.28,174.73 -53.91,271.01 0.44,30.33 -17.98,68.81 -8.75,96.16 25.79,76.48 104.02,0.69 161.47,58.82 -11.72,49.29 -35.47,51.12 -83.85,41.94 -56.29,-10.68 -40.84,-20.17 -64.37,-64.01 -33.95,37.87 -44.9,7.99 -110.26,-22.84l30.76 73.26c-115.83,-67.3 -256.34,-184.73 -364.6,-283.95 -121.74,-111.57 -66.83,-109.86 -128.77,-219.7 -91.63,-162.48 -334.52,183.71 -90.33,239.65 70.69,16.19 139.75,6.55 218.81,29.93 99.13,29.31 103.02,91.92 179.56,157.87 99.8,86 45.85,50.06 45.52,72.18 -0.5,32.94 46.26,22.5 76.11,61.73 -7.73,38.29 -17.12,27.32 -34.3,56.53 -25.04,42.57 -7.44,8.51 -3.77,56.95l-135.37 -85.8c36.14,55.37 93.76,80.16 138.76,122.03l-40.67 28.05c-60.57,-50.08 -126.02,-136.59 -204.62,-22.7 -65.47,94.85 -1.39,120.31 43.88,210.78 -37.38,7.48 -25.54,7.13 -55.28,-8.46 16.65,9.69 41.8,23.38 52.68,35.09 26.57,28.57 15.63,44.75 14.38,54.09l-134.48 -10.74 -29.37 -104.52c2.48,-2.36 12.92,-1.45 21,-18.82 -36.7,-18.97 -12.92,-16.3 -31.62,-38.23l-11.8 -11.76c1.48,-2.29 -3.77,-4.23 -6.31,-5.23 -0.86,29.23 5.82,50.86 11.03,79.34l-5.43 70.46 -49.14 -19.6c2.53,-0.15 1.42,5.07 2.32,3.04l-92.26 -18.4c36.34,24.64 45.65,24.43 88.08,35.76 80.84,21.58 28.19,39.16 21.67,45.07 64.39,-4.12 56.78,61.21 47.72,100.62l-24.4 -8.73c-1.09,2.55 -4.83,11.7 -6.21,14.49 -11.87,24.09 12.17,-5.15 -17.83,28.66 -37.21,-39.93 -218.59,-216.88 -278.8,-241.34 37.75,48.04 99.26,94.26 143.36,135.85 42.46,40.04 29.36,45.11 42.3,67.08 7.32,12.42 49.1,46.76 63.61,63.81 -36.68,8.43 -53.35,-10.21 -93.22,-14.95 20.77,70.33 25.18,24.72 52.87,78.11 -186.64,-77.55 -139.13,-112.96 -228.49,-185.61 -27.66,-22.49 -47.91,-40.33 -71.11,-64.57 14.66,32.06 99.77,128.07 122.03,149.48l-25.81 13.68c46.44,23.43 71.17,46.16 105.92,102.07 29.23,47.01 64.31,78.43 66.78,119.85 -34.9,-6.86 -63.66,-42.09 -87.23,-69.55 0.98,-1.53 3.42,-3.4 3.78,-3.94 0.32,-0.48 2.8,-3.2 3.09,-3.76 10.81,-21.46 5.43,30.07 2.53,-6.33l-23.62 -29.7c-2.19,-3.31 -5.58,-10.99 -11.52,-19.76 -19.29,-28.5 -55.31,-61.9 -80.07,-77.49 17.86,27.08 13.67,18.67 21.76,44.55 8.26,26.48 -12.14,-2.72 11.7,41.59 42.87,79.7 105.33,73.63 108.87,177.17 -31.26,-38.81 -110.43,-75.37 -159.44,-118.85l14.82 50.67c6.99,75.64 -27.01,-69.57 0.81,19.55 24.05,29.98 76.68,57.88 111.97,65.73l6.82 1.64c29.6,19.69 3.56,0.1 0.65,10.22 -0.11,0.37 -3.39,4.17 -2.21,3.78 1.25,-0.42 -2.07,2.4 -2.68,3.84 15.57,29.93 40.69,42.06 78.49,78.52 -44.79,48.8 -7.32,-7.85 -32.41,12.68 -24.77,20.27 -3.94,-21.87 -2.56,8.69l3.37 10.27c2,-0.39 2.09,3.76 2.26,6.93l-70.53 -2.25 47.52 30.52c-47.61,23.54 -80.6,-11.46 -142.27,-11.2l63.65 34.95 -188.03 64.15c46.23,4.85 117.63,-26.99 152.16,-20.33 26.06,5.02 96.2,50.15 110.68,74.7 -80.66,45.82 -48.89,36.26 -129.17,46.12 18.95,11.22 19.44,10.5 35.78,21.54 35.46,23.95 48.12,15.29 76.49,35.67 -28.28,53.66 -61.16,33.01 -122.75,36.53 -32.37,-79.38 -43.37,-34.63 -126.18,-32.84 -30.67,0.67 -23.53,-0.26 -49.18,4.73 34.47,20.99 37.9,11.05 75.7,8.14 52.76,-4.07 5.98,-24.16 58.98,23.08l-116.43 13.66c28.1,17.03 92.56,11.71 127.87,11.53 -41.65,16.45 -73.44,0.61 -93.11,31.54 34.34,21.72 0.56,12.3 48.61,5.53 40.5,-5.71 111.64,-18.54 149.51,-10.92 -56.76,20.88 -69.81,6.69 -127.28,34.05 -69.87,33.27 -339.51,128.57 -391.24,116.31 -24.03,-5.69 -30.56,-17.54 -52.71,-25.08 -71.8,-24.42 -123.2,8.35 -173.08,20.23l-251.69 32.84c40.94,33.5 164.45,4.04 220.79,-8.7 115.6,-26.14 71.82,-16.42 108.45,-5.05 31.24,9.7 70.32,5.69 102.71,10.08l110.54 -9.52c99.8,-31.56 143.99,-2.41 221.25,-24.5z"/>
   <path class="fil0" d="M3981.58 -1035.6c27.66,-50.34 234.6,-140.93 274.66,-203.68 -94.89,32.76 -577.64,289.34 -357.69,444.57 114.77,81.01 131.05,-5.95 187.77,-33.82 124.37,-61.08 361.9,-5.63 298.74,-224.57 -55.92,-193.83 -307.57,32.65 -403.48,17.5z"/>
   <path class="fil0" d="M3615.87 -910.08c46.75,-25.43 26.96,-41.05 78.64,-62.89 50.38,-21.3 52.77,-4.8 97.18,-56.65 34.24,-39.98 99.65,-153.35 12.48,-172.7 -98.36,-21.83 -164.15,151.9 -195.79,207.54 -23.9,42.03 -29.19,45.15 7.49,84.7z"/>
   <path class="fil0" d="M4177.31 1476.12c21.14,94.93 172.54,273.96 250.34,197.29 -10.27,-100.54 -121.13,-154.01 -166.03,-187.49 -37.81,-28.2 -37.55,-36.34 -84.31,-9.8z"/>
   <path class="fil0" d="M1570.24 -1441.96c-47.88,23.51 -59.56,33.36 -41.21,80.75 8.21,21.19 39.14,76.71 53.1,93.23 22.89,27.07 105.07,112.73 139.8,121.36 2.74,-43.75 -14.52,-55.42 -43.3,-94.78 -66.5,-90.95 24.16,-141.54 -108.39,-200.56z"/>
   <path class="fil0" d="M1962.67 -1833.5c-87.2,64.06 3.53,186.94 101.3,127.89 111.59,-67.4 -8.59,-196.01 -101.3,-127.89z"/>
   <path class="fil0" d="M2807.07 1671.86c-74.36,61.94 -40.13,169.73 26.35,252.51 46.46,-48.4 69.22,-200.54 -26.35,-252.51z"/>
   <path class="fil0" d="M3869.29 2123.28c56.16,-34.6 -35.34,-247.46 -83.43,-299.3 -12.99,17.56 -31.62,0.13 -16.19,73.47 20.61,97.99 60.91,184.07 86.14,214.14l13.48 11.69z"/>
   <path class="fil0" d="M608.66 -107.57c-102.04,-42.44 -165.63,40.79 -100.64,104.6 64.26,63.09 158.45,-9.49 100.64,-104.6z"/>
   <path class="fil0" d="M4545.52 259.78c112.11,-35.86 75.07,-132.3 6.49,-140.13 -87.36,-9.97 -92.55,93.38 -6.49,140.13z"/>
   <path class="fil0" d="M2259.38 -1611.89c-61.68,-48.45 -166.39,36.5 -86.7,99.93 53.29,42.41 155.74,-45.69 86.7,-99.93z"/>
   <path class="fil0" d="M3261.67 -1364.61l143.12 -148.65c50.81,-57.61 116.95,-113.44 96.34,-184.23 -96.62,77.68 -168.73,238.58 -239.46,332.88z"/>
   <path class="fil0" d="M1625.25 963.33c-117.64,59.6 -31.52,150.44 45.55,120.25 58.07,-65.02 5.19,-99.05 -45.55,-120.25z"/>
   <path class="fil0" d="M454.36 -337.41c-12,93.32 78.41,115.91 119.9,36.92 -23.09,-71.47 -61.12,-86.97 -119.9,-36.92z"/>
   <path class="fil0" d="M3610.67 1190.26c-10.76,45.78 19.94,54.08 59.57,93.41 61.5,61.04 57.63,74.55 104.65,75.57 -14.96,-42.07 -38.84,-78.75 -69.91,-115.31 -33.77,-39.73 -50.94,-61.4 -94.31,-53.67z"/>
   <path class="fil0" d="M2580.45 -1987.52l47.31 -16.5c-6.89,-83.41 -23.13,-76.36 -5.2,-160.43 -18.28,-1.94 -43.92,-7.54 -62.61,-12l20.5 188.93z"/>
   <path class="fil0" d="M3153.63 -1406.91c26.58,-0.79 22.62,6.09 29.57,12.11 23.22,-26.17 47.01,-51.64 66.6,-82.75 24.03,-38.17 33.05,-55.12 20.56,-100.52 -75.81,58.36 -81.59,112.49 -116.73,171.16z"/>
   <path class="fil0" d="M789.14 294.86c26.99,13.11 31.97,4.07 52.85,25.07 68.65,69.02 -18.94,47.08 154.63,29.37 -24.27,-28.76 -80.91,-61.6 -97.9,-63.26 -53.46,-5.22 -17.82,29.52 -109.58,8.82z"/>
   <path class="fil0" d="M4277.99 1141.58c15.57,30.31 40.28,54.58 67.68,71.1 17.01,10.26 73.62,37.88 84.53,6.02 25.51,-74.45 -130.69,-62.59 -152.21,-77.12z"/>
   <path class="fil0" d="M1863.76 -2099.73c2.68,27.49 14.65,69.95 35.07,95.4 32.52,40.53 21.04,18.17 31.55,22.07 15.03,-41.39 22.86,-182.64 -66.62,-117.47z"/>
   <path class="fil0" d="M2050.46 1536.06c-20.28,46.72 -21.07,83.83 -25.43,144.11 -3.28,45.41 -12.96,99.53 -6.68,140.86 49.81,-44.13 41.83,-211.37 32.11,-284.97z"/>
   <path class="fil0" d="M773.53 -64.55c-37.97,-35.94 -45.02,-17.46 -65.46,-57.89 -61.11,-120.84 -165.66,7.51 -28.14,32.55 19.67,3.59 32.08,3.6 49.79,10.58 35.93,14.15 3.02,11.57 43.81,14.76z"/>
   <path class="fil0" d="M4188.74 34.18c52.15,44.67 140.38,36.94 162.48,26.4 61.02,-29.09 9.55,-0.17 26.26,-25.13 -25.43,-22.93 -4.44,-18.93 -44.71,-17.75 -28.4,0.83 -97.52,20.12 -144.03,16.48z"/>
   <path class="fil0" d="M4110.02 147.24c-15.78,-120.79 -158.48,-35.78 -65.9,17.49 34.19,19.67 53.82,-2.22 65.9,-17.49z"/>
   <path class="fil0" d="M4009.86 1198.02c-13.2,-6.7 -38.3,-26.21 -58.22,9.51 -9.98,17.89 -0.65,43.81 20.69,55.95 42.2,24.02 98.8,-34.32 37.53,-65.46z"/>
   <path class="fil0" d="M1259.1 1102.3c-37.8,-73.36 -97.85,-2.16 -100.15,44.9 33.88,28.73 8.27,29.56 100.15,-44.9z"/>
   <path class="fil0" d="M1758.75 1492.53c-23.99,50.29 -65.64,138.72 -52.12,196.2 26.31,-38 64.42,-153.02 52.12,-196.2z"/>
   <path class="fil0" d="M2580.45 -1987.52l-26.25 6.28 -24.16 -68.01c9,47.82 -1.62,116.88 45.16,143.04 36.4,-24.62 15.26,-29.29 5.25,-81.31z"/>
   <path class="fil0" d="M1030.12 1144.27c51.87,47.36 81.19,-7.79 81.13,-12.41 -0.66,-55.52 -64.51,-9.24 -81.13,12.41z"/>
   <path class="fil0" d="M1143.5 1030.06c20.98,17.48 40.69,20.49 62.69,16.76 3.09,-27 3.82,-9.27 -7.94,-42.95l-54.75 26.19z"/>
   <path class="fil0" d="M1076.51 -542.92c33.23,27.6 82.07,37.06 122.84,37.04 -36.79,-19.87 -79.05,-35.44 -122.84,-37.04z"/>
   <path class="fil0" d="M1783.05 1415.11c-22.99,36.32 -30.73,1.97 -19.64,70.15 30.65,-30.69 27.5,-22.7 19.64,-70.15z"/>
   <path class="fil0" d="M1037.2 -17.57c5.46,4.21 20.2,2.35 27.99,1.88 3.15,-30.6 -4.57,-49.68 -34.53,-27.14 -1.56,14.13 -32.93,-5.11 6.54,25.26z"/>
   <path class="fil0" d="M1802.92 1352.45c32.49,-21.87 29.3,-25.28 23.77,-62.61 -14.79,14.28 -20.09,19.57 -24.56,32.7 -6.43,18.89 -3.65,7.75 0.79,29.91z"/>
   <path class="fil0" d="M803.36 568.23c2.67,-0.83 5.58,3.78 7.27,4.18 56.14,13.28 37.58,-14.29 39.32,-18.84 -29.7,-12.43 -23.21,-19.03 -46.59,14.66z"/>
   <path class="fil0" d="M1269.88 948.93c28.61,16.77 -6.44,18.27 45.9,3.53 -30.07,-37.12 -1.13,-21.03 -29.83,-21.75 -36.31,-0.91 -14.11,15.18 -16.07,18.22z"/>
  </g>
  <g id="_2045166351984">
   <path class="fil1" d="M2638.55 1773.73c-1.74,1.87 -5.15,2.2 -5.1,5.67 0.04,3.41 -3.76,4.56 -4.53,5.96l-16.81 35.41c-0.98,1.87 -3.03,5.06 -4.65,7.51l-5.52 -242.81c36.89,65.03 31.06,124.24 36.61,188.26zm-356.09 -286.48c-2.78,-35.96 -5.37,-43.8 15.83,-72.27 21.25,0.61 8.48,-3.91 29.5,7.99 -5.67,31.56 -13.61,42.92 -45.33,64.28zm-381.66 -492.28c-39.12,16.67 -98.16,35.63 -138.7,7.77 7.46,-38 98.22,-51.86 138.7,-7.77zm-121.43 -25.87c9.66,-40.02 16.19,-49.18 32.63,-83.45l74.3 2.75c-14.81,46.05 -54.37,62.25 -106.93,80.7zm859.18 804.63l71.23 114.08c59.78,-50.67 22.54,-8.79 27.33,-86.64 0.9,-14.68 6.68,-40.69 6.96,-54.18l-24.56 55.78c-16.41,-36.8 -2.56,-57.25 -5.13,-98.78 -3.85,-62.3 16.87,-107.98 29.9,-160.5 13.04,-52.54 -9.77,-32.49 34.53,-70.34 -32.91,-27.06 -55.76,-35.82 -22.16,-78.27 69.72,138.19 31.1,113.78 38.27,236.03 12.03,-17.73 25.57,-31.27 42.16,-42.89 4.95,33.62 -2.31,71.3 12.63,89.81 27.64,-19.78 20.37,-8.57 16.8,-58.37l3.08 -199.18c21.35,-2.09 19.77,10.01 33.22,12.05 25.4,-39.47 -7.31,-49.03 26.77,-26.86 14.61,9.51 24.11,33.99 33.08,52.48 8.25,0.08 12.66,-3.01 14.14,-3.52 0.99,-0.34 3.82,-1.25 4.88,-1.67 19.98,-8.01 31.97,-14.31 33.44,-35.11 4.14,-58.51 -39.95,-5.1 -7.29,-76.32 38.42,-1.88 36.03,4.85 65.92,42.3 20.35,25.5 28.63,37.32 61.64,37.67 -21.81,-62.34 -74.65,-75.29 -106.82,-153.31 39.95,11.97 79.94,54.39 109.96,75.62 37.51,26.54 75.35,61.02 114.84,41.89 1.4,-41.1 -6.37,-31.95 -36.43,-49.83 -26.64,-15.84 -49.71,-52.75 -73.6,-70.83l-81.69 -30.97c-4.43,-44.21 2.6,-22.07 2.93,-47.76 0.38,-29.29 -6.75,-13.4 -0.67,-37.21l29.8 -69.1c-0.35,-3.42 0.48,-4.92 1.39,-7.19 39.84,-1.36 47.45,-7.81 61.5,-40.88 34.54,8.89 66.46,16.21 96.41,-3.38l9.16 -7.1c11.4,39.87 4.8,5.62 -3.33,48.6 44.13,21.89 48.08,4.96 74.83,66.45 33.68,77.41 19.22,73.99 66.97,71.04 3.1,-58.22 -73.78,-120.06 -68.25,-172.32 40.26,8.44 62.7,68.29 81.26,107.21 12.52,26.25 21.98,72.4 44.67,76.08 48.16,7.8 18.25,-3.3 25.7,-9.6 -4.66,-39.58 -54.57,-106.68 -75.28,-144.35 -41.49,-75.46 12.89,-49.66 41.29,-77.2l13.77 -15.97c87.9,-86.08 26.9,-63.16 78.49,-98.87 37.8,36.15 53.79,42.56 101.22,72.57 88.81,56.19 215.87,197.3 324.35,188.14 -157.23,-156.71 -472.17,-224.85 -410.96,-337.12 24.22,-44.41 43.94,-85.17 43.45,-139.7l26.31 69.05 64.57 -29.48c-0.25,-43.51 -7.3,-30.55 -14.67,-64.27 -0.44,-2.01 -1.44,-4.76 -1.64,-6.74 -0.3,-2.83 0.09,-11.39 0.44,-13.89 9.09,-66.34 108.01,12 105.86,-76.99 -50.19,-13.42 -61.15,25.35 -84.36,-11.02 -21.11,-33.08 16.65,-12.98 -29.6,-72.53 25,-27.01 62.26,-57.41 68.1,-89.87 -2.47,-0.99 -6.07,-1.33 -7.83,-1.61 -1.74,-0.28 -5.67,-1.13 -7.77,-1.45 -2.05,-0.3 -5.49,-0.82 -7.65,-1.1 -2.1,-0.28 -5.54,-0.56 -7.49,-0.78 -69.15,-7.88 21.05,9.42 -21.05,-1.42 18.04,-26.23 15.58,-7.54 7.34,-43.93l40.09 -59.73c-17.31,7.09 -37.49,19.13 -58.48,27.8l-14.84 -17.65c-15.27,12.72 -5.83,14.87 -12.91,29.78 -60.86,-25.41 -8.19,-24.51 -45.34,-46.22 -22.45,-13.12 -53.35,5.03 -96.91,6.87l29.2 -34.09c-13.09,-7.58 15.66,-20.73 -34.93,-4.8 32.26,-28.2 32.3,-39.19 74.84,-63.65 -19.7,-6.39 -75.8,18.58 -120.55,35.27 -47.88,17.86 -74.35,45.6 -125.28,53.2 5.02,-64.34 33.35,18.82 1.6,-68.04l66.54 -35.31 -64.51 3.81 17.43 -37.46c38.09,-3.85 32.3,5.25 58.99,5.11 104.36,-0.53 19.11,-68.5 3.54,-92.82 94.28,-101.36 84.25,21.01 116.03,79.34 29.92,54.92 75.96,31.69 108.48,63.91l14.32 28.47c28.67,-37.28 0.54,-18.76 33.09,-37.87 47.06,-27.6 99.08,-32.57 132.6,-82.47 29.75,-44.27 49.52,-116.96 41.49,-188.32 -13.42,-119.15 -50.46,-135.84 -133.18,-132.32 -60.87,2.58 -39.92,-24.41 -98.31,-13.23 -32.72,6.27 -75.61,30.95 -101.04,47.64 -1.28,17.3 8.91,3.23 -0.9,19.66 -3.08,5.15 -16.44,20.04 -20.36,24 -20.28,20.43 -39.52,35.58 -69.44,30.95 5.31,-63.1 40.33,-54.02 87.32,-93.23 30.79,-25.7 9.4,-26.7 49.16,-46.03 32.01,-15.56 43.3,-5.88 73.62,-28.08 -14.15,-8.67 1.14,-2.15 -21.22,-7.06 -21.72,-4.76 -41.14,-3.36 -55.93,-16.96 30.17,-10.06 77.85,-13.51 101.56,-2.86 52.12,23.38 -4.78,43.48 61.77,42.07 35.23,-74.78 -75.73,-65 -110.73,-101.48 6.06,-10.42 0.42,-7.47 17.87,-24.32 48.66,-46.98 333.29,-71.06 396.87,-78.46 89.9,-10.44 374.1,-22.2 424.58,-82.63 -61.41,-35.92 -330.91,-7.83 -426.53,-11.3 -71.01,-2.58 -101.31,-33.63 -191.28,-35.11 -153.74,-2.52 -103.51,-34.69 -187.06,-45.85 -10.62,-19.09 -3.27,12.05 3.92,-11.87 9.83,-32.76 26.24,13.15 1.16,-8.19l-132.88 41.08c-13.64,-49.64 35.15,-75.58 78.81,-106.18 85.41,-59.84 119.19,-76.13 99.44,-178.21 -3.16,-16.31 -9.87,-32.66 -11.05,-38.18 -10.74,-50.42 45.2,-95.84 60.62,-147.42l-54.68 65.97c10.98,-58.81 31.64,-115.03 41.8,-163.07 -37.5,-44.83 -84.13,-36.76 -41.6,-137.88 29.11,-69.19 82.36,-77.12 7.91,-139.28 -37.59,14.8 -15.96,15.7 -46.81,34.19 -44.67,26.76 -15.61,1.61 -55.86,17.83 -97.27,39.21 -115.23,92.27 -196.16,-17.64l-9.54 -12.29c-50.57,-68.8 28.44,-182.87 -84.54,-216.92 -70.75,-21.32 -124.51,42.58 -133.59,85.35 -19.15,90.26 29.93,106.57 79.57,133.21l-42.8 34.87c13.61,9.87 1.25,2.03 20.23,14.01 16.46,10.38 -3.34,-1.53 13.35,6.74 -55.77,79.46 -88.89,125.68 -47.92,265.08 -156.43,93.39 -133.39,-19.74 -223.46,-15.16 -69.94,3.55 -75.15,29.56 -103.35,68.96 -34.32,47.94 -45.3,14.49 -39.9,97.5l-90.67 65.92c-5.96,-24.34 -13.06,-40.56 -5.81,-63.55l16.55 -49.59c0.99,-26.94 2.01,-92.64 -3.33,-108.48 -83.28,14.79 -35.67,144.21 -125.83,158.85 -16.45,-71.58 12.15,-138.5 0.59,-210.32 -26.46,114.61 -23.57,58.38 -51.99,99.15l-35.86 57.34c-6.17,11.1 -1.51,5.33 -9.79,19.02 -14.26,23.59 -15.33,7.07 -26.43,37.67l-28.01 -124.08c-9.52,57.25 19.47,69.5 -2.9,133.18 -49.28,-31.67 -24.15,-54.04 -55.44,-99.2 22.41,95.41 49.85,124.38 32.13,211.6 -22.78,-6.35 -2.15,2.63 -20.75,-9.43 -94.68,-61.45 8.28,-203.78 -239.38,-183.06l-17.23 -104.14c4.39,27.53 1.08,68.5 -11.15,95.56 -43.04,2.2 -178.71,-0.21 -219.81,-9.5 -29.98,-6.77 -68.73,-29.72 -98.65,-24.37 -45.62,8.15 -40.17,38.16 -110.26,44.1 -16.09,-4.76 -35.57,-37.23 -50.26,-52.57 -44.13,-46.07 -71.28,23.71 -131.92,46.64 -61.43,23.24 -70.65,-4.73 -139.84,15.99 -5.92,94.82 55.13,92.89 105.39,140.52 2.06,42.09 -5.67,23.55 -5.75,55.93 -0.14,49.95 48.09,116.43 5.43,153.34 -40.51,23.51 -67.58,-3.43 -95.1,-23.44 -42.87,-31.17 -58.15,-25.24 -119.65,-5.26 25.87,85.95 49.69,94.79 79.39,152.83 -8.97,26.63 -14.33,25.47 -26.94,48.36l35.62 67.63c-130.4,6.99 -146.56,-112.12 -216.84,-109.9 -6.04,96.83 66.57,125.99 89.82,196.87 -81.95,-0.3 -84.74,-51.17 -179.91,5.44l21.67 82.56c-43.37,-7.57 -71.47,-44.58 -100.13,-65.26 -43.35,-31.28 -43.17,-42.99 -60.79,-102.59 -14.38,-48.65 -41.39,-88.06 -49.73,-131.5 -10.97,-57.1 11.24,-63.02 -12.53,-130.33 -5.52,36.95 -26.42,89.49 -24.57,122.15 3.07,54.02 38.86,85.11 49.3,134.58 -59.14,-15.78 -78.05,-45.62 -133.72,-94.98l-0.53 13.03c0.07,1.52 0.18,4.83 0.32,6.53 0.15,1.75 0.62,4.85 0.83,6.66l5.48 34.24c-51,29 -84.32,27.65 -101.61,77.4 58.74,84.88 206.41,55.52 263.43,104.45 54.67,46.93 144.12,181.48 191.5,206.04 5.42,-20.17 4.65,-54.63 2.77,-80.12 58.78,13.33 66.92,31.13 61.68,85.78 -3.85,40.11 8.77,87.46 -0.51,123.02 -35.87,20.73 -48.78,13.71 -77.93,4.72l-19.78 36.57c-23.54,41.4 12.59,50.24 19.51,109.17 -91.64,23.11 -154.54,10.76 -150.86,123.22 6.52,199.58 152.35,91.59 243.49,112.03 28.71,6.44 60.85,32.49 88.73,29.97 77.97,-7.07 24.13,-97.98 91.95,-139.05 43.85,22.18 40.21,45 20.63,88.57 -22.78,50.69 -28.25,33.97 -74.92,46.27 28.06,40.58 -2.6,44.16 -46.43,98.86l76.05 -12.48c-89.63,94.08 -232.13,200.12 -350.17,279.86 -132.73,89.66 -118.73,38.24 -236.33,71.88 -173.96,49.76 97.79,357.04 205.69,139.3 31.23,-63.02 37.73,-130.35 77.63,-199.66 50.03,-86.9 109.97,-76.43 189.46,-133.74 103.66,-74.74 57.58,-31.96 78.37,-26.65 30.96,7.91 31.66,-38.57 75.41,-57.87 34.38,15.94 21.91,22.32 45.59,45.12 34.5,33.23 6.35,8.94 52.87,16.41l-111.5 108.33c60.39,-21.58 96.79,-70.34 146.45,-103.35l17.28 44.7c-60.92,45.83 -157.3,88.05 -67.61,187.91 74.7,83.17 113.18,28.47 208.75,6.18 -1.39,36.96 0.96,25.71 -20.46,50.25 12.9,-13.52 31.49,-34.15 44.99,-41.78 32.95,-18.61 45.75,-4.64 54.27,-1.35l-40.48 124.43 -105.24 4.12c-1.66,-2.87 1.56,-12.52 -13,-24.06 -26.19,30.34 -18.3,8.51 -43.21,21.19l-13.76 8.48c-1.82,-1.91 -4.84,2.6 -6.36,4.77 27.38,7.41 49.3,6 77.34,7.51l65.25 21.02 -29.58 41.94c0.42,-2.42 5.1,-0.19 3.39,-1.5l-38.19 82.88c31.45,-28.72 33.35,-37.55 53.61,-75.02 38.62,-71.39 43.32,-17.75 47.42,-10.27 10.65,-61.67 70.56,-39.74 105.69,-22.3l-13.74 21.05c2.16,1.6 9.95,7.2 12.26,9.12 20.05,16.65 -2.11,-12.64 23.02,23.3 -46.07,26.09 -253.95,157.24 -290.61,208.53 53.84,-24.77 111.32,-72.37 160.51,-104.58 47.36,-31.01 49.19,-17.52 72.84,-24.76 13.36,-4.1 55.19,-35.77 74.55,-45.61 -0.32,36.51 -21.67,48.03 -35.15,84.57 71.04,-3.71 29.01,-18.17 85.63,-32.24 -115.29,158.56 -137.97,105.75 -226.68,173.65 -27.47,21.02 -48.86,36.09 -76.97,52.51 33.56,-6.59 143.34,-65.21 168.57,-81.38l7.07 27.44c32.59,-38.52 59.61,-56.72 120.2,-76.88 50.95,-16.96 88.51,-42.97 128.14,-35.94 -14.35,31.37 -54.08,50.55 -85.31,66.59 -1.22,-1.28 -2.43,-4 -2.86,-4.46 -0.37,-0.41 -2.38,-3.37 -2.85,-3.76 -17.8,-15.05 29.6,1.66 -5.39,-3.82l-33.35 15.57c-3.62,1.33 -11.63,2.79 -21.24,6.41 -31.25,11.77 -70.89,38.21 -91.19,58.05 29.58,-10.74 20.7,-8.69 46.94,-10.47 26.85,-1.82 -5.3,10.83 41.88,-1.65 84.86,-22.46 93.24,-82.75 191.72,-62.71 -43.67,20.72 -96.03,87.16 -148.12,123.58l51.15 -2.55c72.93,10.49 -71.73,9.78 18.62,3.66 33.72,-15.93 71.92,-59.28 87.28,-90.79l3.09 -6.07c25.26,-23.48 0.9,-3.33 9.79,1.69 0.33,0.19 3.17,4.14 3.06,2.95 -0.1,-1.28 1.81,2.49 3.03,3.39 31.75,-7.94 48.86,-28.89 91.79,-56.32 35.92,53.27 -9.06,5.13 4.65,33.44 13.53,27.94 -21.53,-1.22 7.61,4.37l10.46 -0.86c0.08,-1.98 4.01,-1.12 7.04,-0.57l-18.04 66.03 39.51 -37.93c11.47,50.22 -29,73.44 -42.67,131.68l47.33 -52.16 18.08 191.86c15,-42.51 1.08,-117.06 15.16,-148.13 10.62,-23.45 69.03,-79.43 95.46,-87.54 25.02,86.42 23.17,54.3 14.34,132.26 14.87,-15.34 14.3,-15.97 28.4,-28.89 30.6,-28.05 25.29,-41.95 50.92,-64.11 44.23,38.79 17.33,65.15 6.75,124.05 -82.19,12.61 -42.46,33.09 -59.46,111.62 -6.3,29.08 -5.56,22.13 -6.64,47.46 27.58,-27.78 18.98,-33.26 24.77,-69.58 8.06,-50.68 -21.44,-11.09 35.09,-50.43l-13.41 112.92c22.41,-22.66 31.95,-84.67 39.74,-118.02 6.12,43 -15.99,69.42 8.75,94.96 28.23,-27.5 11.72,2.25 16.18,-44.61 3.76,-39.49 7.72,-109.5 23.45,-143.51 6.88,58.25 -9.45,67.36 3.39,127.76 15.62,73.42 44.65,349.3 21.41,395.33 -10.8,21.39 -23.45,24.88 -35.56,44.07 -39.25,62.22 -19.94,118.1 -19.99,167.84l-25.83 244.85c40.83,-31.05 40.93,-154.22 41.63,-210.25 1.43,-114.95 0.72,-71.45 19.71,-103.45 16.2,-27.28 21.25,-65.05 32.7,-94.62l15.97 -106.42c-7.24,-101.27 30.23,-136.38 26.84,-214.26z"/>
   <path class="fil1" d="M1737.04 -1515.28c-41.24,-37.46 -79.98,-253.13 -130.14,-305.09 9.49,96.92 142.56,610.24 338.65,437.8 102.33,-89.99 23.97,-124.98 10.49,-184.78 -29.55,-131.12 76.37,-342.68 -144.42,-332.52 -195.48,9 -38.63,297.53 -74.58,384.59z"/>
   <path class="fil1" d="M1772.91 -1141.95c-13.45,-49.85 -32.64,-34.7 -41.59,-88.38 -8.72,-52.34 7.39,-50.87 -31.5,-104.46 -29.98,-41.33 -122.17,-128.63 -160.1,-50.77 -42.8,87.86 106.24,189.15 151.59,231.55 34.25,32.04 36,37.73 81.6,12.06z"/>
   <path class="fil1" d="M4150.7 -1132.93c94.33,1.49 297.4,-100.92 242.63,-191.63 -97.16,-13 -172.63,79.51 -214.35,114.31 -35.14,29.3 -42.76,27.22 -28.28,77.32z"/>
   <path class="fil1" d="M809.36 667.76c11.37,50.48 18.03,63.72 66.88,57.1 21.84,-2.96 81.19,-19.6 99.93,-29.05 30.71,-15.48 130.07,-73.67 146.05,-104.48 -40.66,-12.46 -55.56,1.19 -99.19,19.45 -100.82,42.2 -128.07,-54.75 -213.67,56.98z"/>
   <path class="fil1" d="M528.58 209.17c40.75,96.72 177.15,38.86 143.52,-66.7 -38.4,-120.48 -186.85,-36.14 -143.52,66.7z"/>
   <path class="fil1" d="M4026.04 203.89c41.64,84.13 151.06,76.18 244.15,32.15 -35.16,-54.76 -173.56,-110.57 -244.15,-32.15z"/>
   <path class="fil1" d="M4691.68 -696.27c-19.96,-60.78 -241.42,-22.52 -301.19,11.14 13.63,16.22 -7.01,29.86 65.65,31.86 97.1,2.68 187.41,-15.9 221.46,-32.92l14.08 -10.08z"/>
   <path class="fil1" d="M1851.11 1876.1c-63.07,86.69 1.09,165.47 75.95,118.56 74.03,-46.38 26.82,-151.62 -75.95,-118.56z"/>
   <path class="fil1" d="M3086.37 -1754.86c-8.52,-113.86 -107.86,-100.69 -130.73,-37.76 -29.12,80.17 67.2,108.39 130.73,37.76z"/>
   <path class="fil1" d="M804.63 -20.71c-59.64,47.25 -3.13,165.21 74.69,104.34 52.04,-40.7 -7.94,-157.23 -74.69,-104.34z"/>
   <path class="fil1" d="M1264.16 -910.42l-107.92 -168.57c-42.89,-60.94 -80.62,-135.93 -152.05,-132.47 51.46,108.68 186.98,213.03 259.97,301.04z"/>
   <path class="fil1" d="M3090.84 1158.84c29.67,124.43 134.81,63.69 123.73,-15.83 -48.23,-69.46 -92.27,-27.25 -123.73,15.83z"/>
   <path class="fil1" d="M1599.46 1969.78c85.33,32.39 127.05,-47.8 61.89,-104.77 -72.63,5.65 -95.84,38.03 -61.89,104.77z"/>
   <path class="fil1" d="M3753.12 -662.91c40.76,20.48 55.51,-6.61 101.56,-35.12 71.47,-44.23 83.34,-37.53 94.92,-81.66 -43.07,4.62 -83.06,18.86 -124.56,39.92 -45.11,22.89 -69.42,34.19 -71.92,76.86z"/>
   <path class="fil1" d="M522.74 -408.4l-4.88 -48.35c-80.24,-12.33 -77.26,4.59 -152.52,-31.31 -5.96,16.8 -17.03,39.73 -25.46,56.36l182.86 23.3z"/>
   <path class="fil1" d="M1199.86 -818.05c5.25,-25.25 10.86,-19.96 18.1,-25.16 -19.44,-27.81 -38.1,-56 -63.02,-81.5 -30.59,-31.29 -44.54,-43.62 -90.19,-42.1 37.94,84.7 87.7,102.37 135.11,148.76z"/>
   <path class="fil1" d="M2271.49 1796.69c18.46,-22.5 11.06,-29.23 35.59,-44.2 80.6,-49.18 40.14,28.5 62.6,-139.24 -32.6,16.41 -76.37,62.43 -81.77,78.08 -17,49.25 23.82,23.47 -16.42,105.36z"/>
   <path class="fil1" d="M3857.83 -1303.43c32.11,-7.84 60.59,-25.68 82.36,-47.79 13.51,-13.74 52.35,-60.9 24.76,-78.39 -64.47,-40.87 -88.55,109.16 -107.12,126.18z"/>
   <path class="fil1" d="M255.1 242.37c26.54,3.68 69.3,1.98 97.92,-11.54 45.58,-21.53 21.88,-15.75 27.94,-24.78 -35.66,-23.53 -167.14,-62.8 -125.86,36.32z"/>
   <path class="fil1" d="M3727.13 887c39.49,29.68 74.33,38.8 130.21,56.52 42.09,13.34 90.97,34.69 131.37,38.09 -30.38,-56.94 -189.95,-87.17 -261.58,-94.61z"/>
   <path class="fil1" d="M1928.91 1730.28c-42.47,27.72 -26.63,38.53 -69.39,48.69 -127.79,30.37 -30.31,157.97 24.36,33.9 7.82,-17.75 10.64,-29.45 21.22,-44.59 21.46,-30.69 11.59,-0.24 23.81,-38z"/>
   <path class="fil1" d="M2793.01 -1469.22c53.91,-39.11 66.53,-124.08 61.58,-147.32 -13.67,-64.13 2,-9.05 -17.78,-30.45 -27.37,18.82 -18.86,-0.08 -26.84,38.17 -5.63,26.99 -3.03,96.55 -16.96,139.6z"/>
   <path class="fil1" d="M2881.89 -1369.44c-117.51,-12.37 -69.53,141.44 1.63,66.12 26.27,-27.81 10.04,-51.27 -1.63,-66.12z"/>
   <path class="fil1" d="M3850.55 -1037.74c-9.3,10.94 -33.37,30.21 -4.17,57.06 14.62,13.46 41.18,10.51 57.45,-6.88 32.19,-34.39 -10.07,-100.95 -53.28,-50.18z"/>
   <path class="fil1" d="M3139.29 1535.62c-77.74,19.1 -24.13,91.82 19.75,104.61 34.75,-25.47 29.75,-1.13 -19.75,-104.61z"/>
   <path class="fil1" d="M3620.21 1152.36c42.03,33.98 116.05,93.24 173.32,93.46 -29.91,-33.4 -129.81,-95.32 -173.32,-93.46z"/>
   <path class="fil1" d="M522.74 -408.4l0.01 26.19 -69.62 7.43c47.14,2.31 109.89,27.92 145.13,-10.3 -15,-39.9 -24.18,-21.02 -75.52,-23.32z"/>
   <path class="fil1" d="M3127.19 1761.11c56.39,-38.25 10.98,-78.35 6.61,-79.34 -52.52,-11.91 -23.28,58.78 -6.61,79.34z"/>
   <path class="fil1" d="M3045.05 1628.37c21.22,-15.85 28.52,-33.77 29.96,-55.36 -24.77,-9.01 -7.88,-5.7 -42.31,-2.2l12.35 57.56z"/>
   <path class="fil1" d="M1546.03 1336.47c33.54,-25.11 53.48,-69.05 62.67,-107.52 -27.05,30.23 -51.27,66.58 -62.67,107.52z"/>
   <path class="fil1" d="M3552.66 1111.96c29.07,29.88 -5.08,29.44 61.75,34.36 -22.03,-35.84 -15.21,-31.07 -61.75,-34.36z"/>
   <path class="fil1" d="M2032.75 1492.16c5.21,-4.21 6.78,-18.53 8.1,-25.98 -28.16,-9.89 -47.9,-6.91 -33.4,26.45 12.98,4.65 -12.26,29.9 25.3,-0.47z"/>
   <path class="fil1" d="M3498.04 1079.07c-13.3,-35.59 -17.24,-33.35 -53.7,-36.55 10.13,17.17 13.93,23.37 25.3,30.54 16.37,10.33 6.49,5.19 28.4,6.01z"/>
   <path class="fil1" d="M2532.59 1844.99c-0.19,-2.71 4.83,-4.41 5.59,-5.92 25.2,-49.96 -5,-38.67 -8.9,-41.34 -18.43,25.21 -23.19,17.6 3.31,47.26z"/>
   <path class="fil1" d="M2997.04 1490.83c22.28,-23.2 15.78,10.2 13.69,-42.51 -41.8,19.99 -20.09,-3.67 -27.25,23.23 -9.05,34.05 11.13,16.75 13.56,19.28z"/>
  </g>
  <g id="_2044533940992">
   <path class="fil2" d="M1549.72 356.51c-1.28,-0.73 -1.93,-2.6 -3.87,-2.1 -1.9,0.47 -3.06,-1.5 -3.95,-1.74l-22.15 -4.69c-1.18,-0.29 -3.24,-1.02 -4.84,-1.6l135.62 -35.73c-31.57,29.46 -65.6,34.14 -100.81,45.86zm113.04 -238.48c19.82,-6.39 23.87,-8.9 42.71,-0.82 2.51,12.02 3.33,4.24 -0.53,17.65 -18.48,1.05 -25.93,-1.88 -42.18,-16.83zm225.16 -280.48c-14.62,-19.73 -33.2,-50.34 -23,-76.85 22.34,-0.92 42.32,48.19 23,76.85zm-1.79 -71.67c23.78,0.04 29.8,2.48 51.25,7.11l8.44 42.09c-27.85,-2.13 -42.27,-22.16 -59.69,-49.2zm-336.41 590.63l-54.49 55.33c36.49,26.76 7.97,11.48 52.33,3.71 8.36,-1.47 23.75,-1.72 31.36,-3.38l-34.63 -6.29c18.47,-14.17 31.81,-9.14 54.79,-16.16 34.47,-10.53 62.91,-5.03 94.15,-4.77 31.26,0.26 16.93,-9.86 44.14,9.94 10.78,-22.12 12.62,-36.13 40.98,-22.97 -68.24,57.73 -59.72,32.75 -127.41,53.21 11.58,4.37 21,10.16 29.76,17.92 -18.22,7.29 -40.36,8.28 -48.75,19.15 14.83,12.87 7.56,10.29 35.05,1.6l112.26 -25.04c4.05,11.71 -2.96,12.45 -2.3,20.27 25.58,8.97 26.55,-10.69 18.68,11.43 -3.37,9.48 -15.85,18.11 -25.02,25.63 1.06,4.64 3.39,6.7 3.87,7.47 0.33,0.51 1.22,1.98 1.59,2.51 7.19,10.15 12.34,16.03 24.22,14.06 33.41,-5.54 -2.51,-23.12 41.88,-14.35 6.22,21.33 2.11,20.89 -14.9,42.7 -11.58,14.86 -17.11,21.1 -12.87,39.69 32.08,-20.63 32.25,-52.05 71.74,-80.6 -1.35,24.05 -19.8,52.21 -27.69,71.92 -9.86,24.63 -24.14,50.51 -8.09,70.12 23.27,-4.74 17.09,-7.87 23.09,-27.15 5.31,-17.1 22.94,-35.01 29.89,-50.85l6.41 -50.04c24.23,-8.43 12.74,-1.51 27.22,-4.77 16.49,-3.73 6.61,-5.6 20.8,-5.38l42.81 7.45c1.87,-0.66 2.83,-0.39 4.22,-0.19 6.12,22.19 10.76,25.6 31.23,29.05 -0.36,20.59 -0.18,39.5 14.85,53.69l5.22 4.18c-20.86,11.76 -2.51,3.45 -27.74,4.67 -6.36,27.72 3.67,27.66 -27.26,50.95 -38.95,29.32 -38.97,20.73 -30.9,47.15 33.11,-6.08 57.51,-57.56 87.6,-61.48 0.67,23.74 -29.92,44.39 -49.28,60.04 -13.07,10.56 -37.71,22.07 -36.73,35.31 2.09,28.09 4.31,9.81 8.85,13.14 21.6,-7.93 52.57,-44.98 70.94,-61.67 36.81,-33.44 29.63,0.56 48.91,12.81l10.82 5.59c60.15,37.79 39.08,6.62 66.07,30.79 -15.22,26.09 -16.67,35.93 -27.15,66.6 -19.62,57.42 -81.79,147.74 -62.07,207.43 66.87,-109.36 62.82,-295.38 134.09,-276.09 28.2,7.63 53.74,13.23 84.3,5.62l-35.25 24.06 25.24 32.3c24.4,-5.99 16.17,-8.2 34.12,-16.88 1.07,-0.51 2.48,-1.44 3.56,-1.83 1.55,-0.54 6.41,-1.47 7.86,-1.61 38.48,-3.81 7.78,62.27 57.46,49.1 0.8,-29.99 -22.45,-30.94 -5.14,-48.86 15.74,-16.3 9.52,7.61 36.75,-26.37 18.53,10.41 40.61,27.26 59.62,26.17 0.23,-1.52 -0.07,-3.59 -0.15,-4.61 -0.07,-1.02 -0.12,-3.34 -0.23,-4.56 -0.1,-1.19 -0.27,-3.2 -0.4,-4.45 -0.13,-1.21 -0.44,-3.18 -0.57,-4.3 -4.87,-39.9 -2.46,13.08 -2.04,-12.02 17.16,6.61 6.33,7.74 25.66,-1.78l38.93 14.49c-6.31,-8.77 -15.78,-18.49 -23.47,-29.11l7.92 -10.7c-9.19,-6.87 -9.13,-1.28 -18.46,-3.25 6.09,-37.6 12.66,-7.89 19.86,-31.68 4.35,-14.37 -9.99,-29.28 -16.88,-53.5l23.07 11.82c2.5,-8.37 13.75,6.01 -2,-20.26 20.17,14.33 26.35,12.88 45.8,33.48 0.95,-11.92 -20.62,-40.07 -36.01,-62.96 -16.46,-24.49 -35.59,-35.63 -46.7,-63.21 36.8,-5.83 -6.1,21.26 38.42,-8.24l28.77 32.62 -10.81 -35.72 23.38 4.76c7.29,20.87 1.4,18.84 5.06,33.81 14.32,58.54 41.04,1.53 52.6,-10.49 69.6,39.33 -0.47,50.14 -28.96,75.83 -26.83,24.19 -7.59,46.92 -21.32,69.51l-14.06 11.87c24.79,11.09 10.61,-2.22 25.71,13.49 21.83,22.72 31.61,51.26 64.14,63.39 28.86,10.75 72.33,12.09 111.33,-2.02 65.11,-23.54 69.5,-46.59 56.41,-92.57 -9.63,-33.83 8.34,-25.7 -5.78,-56.98 -7.92,-17.54 -27.54,-38.31 -40.33,-50.34 -9.89,1.6 -0.62,5.43 -11.16,2.13 -3.31,-1.04 -13.47,-6.54 -16.22,-8.21 -14.2,-8.64 -25.29,-17.41 -26.71,-34.83 36.15,-5.5 35.76,15.38 64.09,36.5 18.57,13.84 16.26,1.7 32.46,21.43 13.03,15.88 9.12,23.52 25.66,37.57 2.97,-9.11 1.36,0.35 1.11,-12.87 -0.24,-12.84 -3.64,-23.55 2.01,-33.69 9.71,15.59 18.05,41.91 15.26,56.65 -6.13,32.42 -25.06,3.16 -15.33,40.34 46.73,9.74 26.33,-51.26 42.11,-75.82 6.67,2.01 4.25,-0.77 16.06,6.77 32.92,21.02 84.7,177.62 97.39,212.34 17.95,49.07 62.75,207.1 103.46,227.33 11.92,-39.32 -40.07,-186.89 -50.97,-241.05 -8.09,-40.23 5.28,-61.41 -5.99,-112.14 -19.24,-86.68 5.57,-62.79 0.62,-111.21 9.29,-8.53 -7.21,-0.22 7.19,0.6 19.72,1.12 -3.86,16.51 4.75,-0.44l-40.92 -69.11c26.04,-14.33 47.16,9.58 70.21,29.99 45.09,39.92 58.78,56.7 113.45,31.9 8.73,-3.97 17.01,-9.94 19.95,-11.34 26.88,-12.81 59.9,12.51 90.94,14.23l-44.4 -21.84c34.51,-1.74 68.86,2.31 97.2,1.56 20.14,-27.08 9.33,-52.19 71.84,-41.89 42.76,7.05 54.38,35.89 79.28,-14.28 -13.36,-19.12 -10.96,-6.85 -25.49,-21.69 -21.03,-21.49 -3,-8.55 -17.52,-28.97 -35.09,-49.36 -67.3,-52.31 -16.45,-112.53l5.61 -7.01c31.85,-37.65 106.53,-8.61 110.46,-76.63 2.47,-42.6 -40.64,-64.2 -65.88,-63.55 -53.26,1.37 -55.82,31.13 -64.12,62.58l-25.33 -19.35c-3.72,8.97 -0.97,0.98 -5.15,13.25 -3.62,10.64 0.41,-2.08 -1.99,8.4 -52.12,-20.64 -82.53,-33.03 -155.3,8.71 -73.47,-75.3 -6.85,-77.56 -21.52,-127.53 -11.39,-38.8 -26.7,-38.23 -52.62,-48.77 -31.53,-12.83 -14.22,-23.49 -60.11,-9.3l-49.21 -42.06c12.87,-6.62 21.02,-12.79 34.91,-11.81l30.08 2.63c15.25,-3.06 52.29,-11.32 60.47,-16.44 -19.5,-44.79 -85.78,-0.66 -106.12,-49.32 37.99,-18.86 79.41,-11.79 118.19,-27.93 -67.92,0.54 -35.95,-5.39 -62.67,-15.87l-37.02 -12.44c-7.06,-1.97 -3.19,-0.13 -11.99,-2.94 -15.16,-4.84 -6.04,-7.66 -24.71,-9.78l65.92 -32.4c-33.44,2.34 -36.41,20.27 -75.18,16.26 11.16,-31.93 27.1,-20.82 48.25,-44.46 -50.56,25.41 -63.14,44.71 -114.51,46.48 0.5,-13.65 -1.77,-0.86 2.51,-12.92 21.79,-61.43 115.55,-22.74 70.64,-159.04l56.16 -23.67c-14.87,6.17 -38.32,9.81 -55.16,6.58 -7.02,-23.87 -23.9,-100.39 -24.21,-124.71 -0.22,-17.75 7.46,-42.6 0.44,-58.68 -10.72,-24.52 -26.84,-17.43 -39.59,-55.99 0.51,-9.68 16.13,-24.98 22.77,-35.29 19.94,-30.98 -22.89,-36.85 -43.92,-67.82 -21.31,-31.38 -6.84,-40.31 -27.77,-76.39 -54.05,9.42 -44.76,43.45 -64.75,78.08 -23.36,6.81 -13.99,-0.02 -32.19,4.28 -28.07,6.63 -58.92,42.65 -85.38,23.66 -18.65,-19.59 -7.15,-38.42 0.38,-56.56 11.75,-28.26 6.36,-36.05 -13.12,-67.9 -44.79,26.08 -46.55,40.65 -75.16,65.12 -16.16,-1.46 -16.23,-4.62 -30.77,-8.63l-33.2 29.1c-21.45,-72.3 43.27,-97.38 32.58,-136.55 -55.19,9.62 -61.81,54.32 -98.49,76.9 -10.85,-46.06 17.35,-54.47 -27.23,-100.31l-43.46 23.27c-1.57,-25.37 15.44,-46.13 23.19,-65 11.75,-28.55 18.35,-30.02 49.45,-47.93 25.39,-14.61 43.89,-35.07 67.16,-45.6 30.6,-13.83 36.91,-2.15 71.51,-24.54 -21.49,1.86 -53.8,-2.82 -71.9,2.61 -29.92,8.98 -42.57,33.26 -68.95,45.77 0.92,-35.33 15.13,-49.96 35.37,-87.86l-7.39 1.46c-0.84,0.24 -2.69,0.75 -3.62,1.06 -0.96,0.31 -2.64,1 -3.63,1.36l-18.49 7.67c-23.14,-24.74 -26.86,-43.63 -57.13,-46.66 -39.77,44.4 -3.43,123.38 -23.25,161.98 -19.01,37.01 -82.55,105.32 -89.97,135.23 12.05,0.33 31.3,-4.73 45.36,-9.21 0.41,34.8 -8.49,41.76 -39.88,46.16 -23.04,3.23 -47.94,16.68 -69.16,16.25 -16.46,-17.36 -14.25,-25.55 -13.12,-43.13l-23.2 -6.19c-26.41,-7.66 -26.51,13.82 -58.68,25.62 -25.29,-48.36 -26.81,-85.34 -89.48,-68.16 -111.2,30.48 -30.96,97.87 -30.19,151.8 0.25,16.98 -10.07,38.53 -4.9,53.85 14.44,42.84 58.26,0.39 90.44,32.95 -6.56,27.61 -19.86,28.64 -46.97,23.49 -31.52,-5.98 -22.87,-11.3 -36.05,-35.85 -19.02,21.21 -25.15,4.47 -61.76,-12.79l17.23 41.03c-64.88,-37.69 -143.58,-103.47 -204.22,-159.04 -68.19,-62.5 -37.43,-61.54 -72.12,-123.06 -51.32,-91.01 -187.37,102.9 -50.59,134.23 39.59,9.07 78.27,3.67 122.55,16.76 55.53,16.42 57.7,51.49 100.57,88.43 55.91,48.17 25.69,28.04 25.5,40.43 -0.28,18.45 25.91,12.6 42.63,34.57 -4.33,21.45 -9.59,15.31 -19.21,31.67 -14.02,23.84 -4.17,4.76 -2.11,31.9l-75.82 -48.06c20.24,31.01 52.51,44.9 77.72,68.35l-22.78 15.71c-33.93,-28.05 -70.59,-76.51 -114.61,-12.72 -36.67,53.13 -0.78,67.39 24.58,118.07 -20.94,4.18 -14.31,3.99 -30.97,-4.74 9.33,5.43 23.41,13.1 29.51,19.65 14.88,16.01 8.75,25.07 8.05,30.3l-75.32 -6.02 -16.45 -58.54c1.39,-1.32 7.24,-0.81 11.76,-10.54 -20.56,-10.63 -7.24,-9.13 -17.71,-21.41l-6.61 -6.59c0.83,-1.29 -2.11,-2.37 -3.53,-2.93 -0.48,16.37 3.26,28.49 6.17,44.44l-3.03 39.47 -27.53 -10.98c1.42,-0.09 0.79,2.84 1.3,1.7l-51.68 -10.31c20.36,13.81 25.57,13.68 49.34,20.03 45.28,12.09 15.79,21.94 12.14,25.25 36.06,-2.31 31.8,34.28 26.72,56.36l-13.66 -4.89c-0.61,1.43 -2.71,6.55 -3.48,8.11 -6.65,13.5 6.82,-2.88 -9.99,16.06 -20.84,-22.37 -122.43,-121.49 -156.16,-135.18 21.14,26.91 55.6,52.79 80.3,76.09 23.78,22.42 16.45,25.27 23.69,37.57 4.1,6.96 27.51,26.19 35.63,35.74 -20.54,4.72 -29.88,-5.72 -52.21,-8.37 11.63,39.39 14.1,13.85 29.61,43.75 -104.54,-43.44 -77.93,-63.27 -127.98,-103.97 -15.49,-12.59 -26.83,-22.58 -39.83,-36.16 8.21,17.96 55.88,71.73 68.35,83.73l-14.46 7.66c26.02,13.12 39.87,25.85 59.33,57.17 16.37,26.33 36.02,43.93 37.41,67.13 -19.55,-3.84 -35.66,-23.58 -48.86,-38.96 0.55,-0.86 1.91,-1.9 2.11,-2.2 0.18,-0.27 1.58,-1.79 1.74,-2.11 6.05,-12.02 3.04,16.84 1.41,-3.55l-13.22 -16.63c-1.24,-1.85 -3.13,-6.15 -6.46,-11.07 -10.81,-15.97 -30.98,-34.67 -44.85,-43.4 10.01,15.16 7.66,10.45 12.19,24.95 4.63,14.83 -6.8,-1.52 6.55,23.3 24.02,44.64 59,41.24 60.98,99.23 -17.5,-21.74 -61.85,-42.21 -89.3,-66.57l8.3 28.38c3.91,42.37 -15.13,-38.97 0.45,10.95 13.48,16.8 42.95,32.42 62.72,36.82l3.82 0.92c16.58,11.02 1.99,0.05 0.36,5.72 -0.06,0.21 -1.89,2.34 -1.24,2.12 0.7,-0.23 -1.15,1.34 -1.5,2.15 8.73,16.76 22.79,23.56 43.97,43.98 -25.09,27.33 -4.1,-4.39 -18.16,7.11 -13.87,11.35 -2.2,-12.26 -1.43,4.86l1.89 5.75c1.12,-0.22 1.17,2.11 1.26,3.88l-39.5 -1.26 26.61 17.1c-26.66,13.18 -45.14,-6.42 -79.68,-6.27l35.65 19.57 -105.32 35.93c25.89,2.72 65.89,-15.11 85.23,-11.39 14.59,2.82 53.88,28.09 61.99,41.85 -45.18,25.66 -27.38,20.31 -72.35,25.83 10.61,6.28 10.89,5.88 20.04,12.06 19.86,13.42 26.96,8.57 42.85,19.98 -15.85,30.06 -34.26,18.49 -68.76,20.47 -18.13,-44.47 -24.29,-19.4 -70.68,-18.4 -17.17,0.37 -13.17,-0.14 -27.54,2.65 19.31,11.75 21.23,6.19 42.4,4.56 29.55,-2.28 3.35,-13.53 33.04,12.93l-65.22 7.64c15.74,9.55 51.84,6.57 71.62,6.46 -23.32,9.22 -41.13,0.35 -52.15,17.67 19.24,12.16 0.31,6.89 27.23,3.1 22.68,-3.2 62.53,-10.38 83.74,-6.12 -31.79,11.69 -39.1,3.75 -71.29,19.07 -39.14,18.64 -190.16,72.02 -219.14,65.15 -13.46,-3.19 -17.12,-9.83 -29.52,-14.05 -40.22,-13.67 -69.01,4.68 -96.95,11.33l-140.97 18.4c22.93,18.76 92.11,2.26 123.66,-4.88 64.75,-14.64 40.23,-9.19 60.75,-2.82 17.5,5.43 39.39,3.18 57.53,5.64l61.91 -5.33c55.9,-17.68 80.65,-1.35 123.93,-13.72z"/>
   <path class="fil2" d="M3275.63 -591.75c15.49,-28.2 131.41,-78.94 153.85,-114.08 -53.16,18.35 -323.55,162.06 -200.35,249.01 64.28,45.37 73.4,-3.34 105.17,-18.94 69.67,-34.22 202.71,-3.16 167.33,-125.79 -31.32,-108.57 -172.28,18.29 -226,9.8z"/>
   <path class="fil2" d="M3070.8 -521.44c26.18,-14.25 15.1,-23 44.04,-35.23 28.22,-11.93 29.56,-2.69 54.43,-31.73 19.18,-22.39 55.82,-85.89 6.99,-96.73 -55.09,-12.23 -91.94,85.08 -109.66,116.24 -13.39,23.54 -16.35,25.29 4.2,47.45z"/>
   <path class="fil2" d="M3385.27 815.1c11.84,53.18 96.64,153.45 140.22,110.51 -5.76,-56.31 -67.85,-86.27 -93,-105.02 -21.18,-15.79 -21.03,-20.35 -47.22,-5.49z"/>
   <path class="fil2" d="M1925.01 -819.36c-26.82,13.17 -33.36,18.69 -23.08,45.23 4.59,11.87 21.92,42.97 29.74,52.22 12.82,15.16 58.85,63.14 78.3,67.98 1.53,-24.51 -8.13,-31.05 -24.25,-53.09 -37.25,-50.95 13.53,-79.28 -60.71,-112.34z"/>
   <path class="fil2" d="M2144.81 -1038.67c-48.84,35.89 1.98,104.71 56.74,71.64 62.5,-37.76 -4.81,-109.79 -56.74,-71.64z"/>
   <path class="fil2" d="M2617.77 924.74c-41.65,34.69 -22.47,95.07 14.76,141.43 26.03,-27.1 38.77,-112.32 -14.76,-141.43z"/>
   <path class="fil2" d="M3212.74 1177.59c31.46,-19.38 -19.79,-138.61 -46.73,-167.65 -7.28,9.84 -17.71,0.07 -9.07,41.15 11.55,54.89 34.12,103.11 48.25,119.95l7.55 6.55z"/>
   <path class="fil2" d="M1386.41 -71.95c-57.15,-23.77 -92.77,22.85 -56.37,58.59 35.99,35.34 88.75,-5.32 56.37,-58.59z"/>
   <path class="fil2" d="M3591.5 133.81c62.8,-20.08 42.05,-74.1 3.64,-78.49 -48.93,-5.58 -51.84,52.31 -3.64,78.49z"/>
   <path class="fil2" d="M2311 -914.54c-34.54,-27.14 -93.19,20.45 -48.55,55.97 29.84,23.76 87.23,-25.59 48.55,-55.97z"/>
   <path class="fil2" d="M2872.4 -776.03l80.17 -83.26c28.46,-32.28 65.5,-63.54 53.96,-103.19 -54.12,43.5 -94.51,133.63 -134.13,186.45z"/>
   <path class="fil2" d="M1955.82 527.88c-65.89,33.38 -17.65,84.26 25.52,67.35 32.52,-36.42 2.9,-55.48 -25.52,-67.35z"/>
   <path class="fil2" d="M1299.99 -200.68c-6.73,52.27 43.92,64.92 67.15,20.68 -12.93,-40.04 -34.23,-48.72 -67.15,-20.68z"/>
   <path class="fil2" d="M3067.88 654.99c-6.03,25.64 11.17,30.29 33.37,52.32 34.45,34.18 32.28,41.75 58.62,42.33 -8.38,-23.57 -21.76,-44.11 -39.16,-64.59 -18.92,-22.26 -28.53,-34.39 -52.83,-30.06z"/>
   <path class="fil2" d="M2490.84 -1124.94l26.5 -9.24c-3.86,-46.72 -12.96,-42.77 -2.91,-89.85 -10.24,-1.09 -24.6,-4.23 -35.07,-6.73l11.48 105.82z"/>
   <path class="fil2" d="M2811.89 -799.73c14.89,-0.44 12.67,3.42 16.56,6.79 13.01,-14.66 26.33,-28.93 37.3,-46.35 13.47,-21.38 18.51,-30.88 11.52,-56.3 -42.46,32.68 -45.7,63 -65.38,95.86z"/>
   <path class="fil2" d="M1487.5 153.46c15.12,7.34 17.91,2.28 29.61,14.04 38.45,38.66 -10.61,26.38 86.6,16.45 -13.59,-16.1 -45.32,-34.5 -54.83,-35.43 -29.94,-2.92 -9.98,16.53 -61.38,4.94z"/>
   <path class="fil2" d="M3441.66 627.72c8.72,16.98 22.56,30.57 37.91,39.83 9.53,5.74 41.23,21.21 47.34,3.37 14.29,-41.7 -73.2,-35.06 -85.25,-43.2z"/>
   <path class="fil2" d="M2089.41 -1187.79c1.5,15.4 8.21,39.18 19.64,53.44 18.22,22.7 11.79,10.17 17.68,12.36 8.42,-23.18 12.8,-102.3 -37.32,-65.8z"/>
   <path class="fil2" d="M2193.98 848.67c-11.36,26.17 -11.8,46.96 -14.24,80.72 -1.84,25.44 -7.26,55.75 -3.74,78.9 27.9,-24.72 23.43,-118.39 17.98,-159.62z"/>
   <path class="fil2" d="M1478.76 -47.85c-21.27,-20.13 -25.22,-9.78 -36.67,-32.42 -34.23,-67.69 -92.78,4.2 -15.76,18.23 11.02,2.01 17.97,2.01 27.89,5.92 20.12,7.93 1.69,6.48 24.54,8.27z"/>
   <path class="fil2" d="M3391.67 7.45c29.21,25.02 78.63,20.69 91.01,14.79 34.18,-16.3 5.35,-0.1 14.71,-14.08 -14.25,-12.84 -2.49,-10.6 -25.05,-9.94 -15.91,0.46 -54.62,11.27 -80.67,9.23z"/>
   <path class="fil2" d="M3347.58 70.78c-8.84,-67.66 -88.77,-20.04 -36.91,9.79 19.14,11.02 30.14,-1.24 36.91,-9.79z"/>
   <path class="fil2" d="M3291.47 659.34c-7.39,-3.76 -21.45,-14.69 -32.6,5.32 -5.59,10.02 -0.37,24.54 11.58,31.34 23.64,13.46 55.35,-19.22 21.02,-36.66z"/>
   <path class="fil2" d="M1750.73 605.72c-21.17,-41.09 -54.8,-1.21 -56.09,25.15 18.98,16.09 4.63,16.55 56.09,-25.15z"/>
   <path class="fil2" d="M2030.59 824.29c-13.43,28.17 -36.76,77.7 -29.19,109.9 14.74,-21.29 36.08,-85.71 29.19,-109.9z"/>
   <path class="fil2" d="M2490.84 -1124.94l-14.7 3.52 -13.53 -38.09c5.04,26.78 -0.91,65.46 25.29,80.12 20.39,-13.79 8.55,-16.41 2.94,-45.55z"/>
   <path class="fil2" d="M1622.48 629.23c29.05,26.52 45.47,-4.37 45.44,-6.95 -0.37,-31.1 -36.14,-5.18 -45.44,6.95z"/>
   <path class="fil2" d="M1685.98 565.26c11.75,9.79 22.8,11.48 35.12,9.38 1.73,-15.12 2.14,-5.19 -4.45,-24.05l-30.67 14.67z"/>
   <path class="fil2" d="M1648.46 -315.79c18.61,15.46 45.97,20.75 68.81,20.74 -20.61,-11.12 -44.28,-19.84 -68.81,-20.74z"/>
   <path class="fil2" d="M2044.2 780.93c-12.87,20.34 -17.21,1.1 -10.99,39.29 17.16,-17.19 15.4,-12.71 10.99,-39.29z"/>
   <path class="fil2" d="M1626.44 -21.53c3.06,2.35 11.32,1.31 15.68,1.05 1.77,-17.14 -2.56,-27.83 -19.34,-15.2 -0.87,7.91 -18.44,-2.87 3.66,14.15z"/>
   <path class="fil2" d="M2055.33 745.83c18.2,-12.24 16.42,-14.16 13.32,-35.06 -8.28,7.99 -11.25,10.96 -13.76,18.31 -3.6,10.58 -2.04,4.34 0.44,16.75z"/>
   <path class="fil2" d="M1495.47 306.58c1.49,-0.47 3.12,2.12 4.07,2.34 31.45,7.44 21.05,-8 22.02,-10.55 -16.63,-6.96 -13,-10.66 -26.09,8.21z"/>
   <path class="fil2" d="M1756.77 519.82c16.02,9.39 -3.61,10.23 25.71,1.97 -16.84,-20.79 -0.63,-11.78 -16.71,-12.18 -20.33,-0.51 -7.9,8.5 -9,10.21z"/>
  </g>
  <g id="_2045158247008">
   <path class="fil3" d="M1572.78 304.96c-1.2,-0.02 -2.39,-1.12 -3.6,-0.02 -1.19,1.09 -2.78,0.11 -3.52,0.28l-17.76 5.18c-0.97,0.24 -2.73,0.52 -4.11,0.71l83.89 -78.12c-11.36,33.42 -34.07,49.93 -54.9,71.97zm-10.7 -215.43c11.81,-12.26 13.76,-15.63 30.45,-17.09 6.45,7.69 4.04,1.77 6.43,12.91 -12.9,7.9 -19.4,8.66 -36.88,4.18zm53.84 -289.01c-18.15,-8.56 -43.36,-23.43 -46.25,-46.47 15.74,-9.29 49.1,18.36 46.25,46.47zm-28.97 -50.93c17.14,-9.15 22.42,-9.72 39.66,-14.68l22.34 27.06c-20.89,9.23 -39.01,0.36 -62,-12.38zm-14.17 555.37l-17.88 60.91c36.63,5.18 10.18,5.19 39.12,-17.54 5.46,-4.29 16.45,-10.42 21.29,-14.55l-27.37 8.84c7.83,-17.33 19.38,-18.86 33.22,-32.8 20.76,-20.9 43.37,-27.92 65.97,-39.81 22.62,-11.88 8.39,-13.63 35.64,-9.89 -0.79,-20.09 -4.87,-30.9 20.64,-32.37 -26.85,67.94 -30.36,46.66 -71.22,87.54 10.03,-1.32 19.05,-0.79 28.36,1.41 -10.31,12.3 -25.87,21.56 -27.71,32.63 15.65,3.54 9.41,4.5 25.85,-12.39l71.2 -61.39c7.43,6.86 2.67,10.1 6.17,15.49 21.89,-3.43 14.99,-17.96 17.87,1.01 1.23,8.13 -4.42,19.16 -8.13,28.12 2.57,2.94 5.04,3.52 5.68,3.89 0.43,0.24 1.64,0.95 2.12,1.19 9.09,4.54 15.08,6.79 22.87,0.78 21.93,-16.9 -10.73,-15.69 24.62,-26.51 12.72,12.95 9.6,14.22 5.77,36.51 -2.6,15.18 -4.17,21.8 6.06,33.55 15.13,-27.24 3.13,-49.94 20.54,-85.76 8.32,17.85 5.91,45.25 7.84,62.5 2.4,21.55 2.12,45.71 21.25,53.63 14.93,-12.4 9.27,-12.27 6.14,-28.47 -2.77,-14.37 3.01,-34.08 1.89,-48.18l-14.71 -38.52c14.2,-15.43 8.6,-6.01 17.76,-13.95 10.45,-9.05 2.6,-6.58 12.91,-11.91l33.71 -11.17c1.1,-1.2 1.89,-1.37 2.97,-1.77 12.98,13.62 17.64,14.29 33.71,8.86 7.7,14.97 15.14,28.52 31.44,32.94l5.38 1c-10.48,16.53 -0.48,3.45 -18.18,14.07 6.12,22.43 13.33,18.51 0.04,47.23 -16.73,36.17 -20.06,29.99 -4.04,45.9 21.51,-17.17 19.19,-63.68 39.35,-78.12 9.66,16.84 -4.4,43.53 -12.31,62.28 -5.33,12.65 -18.63,30.47 -12.81,39.62 12.36,19.43 6.89,5.4 11.45,6.06 12.5,-14.07 20.49,-52.71 27.28,-71.83 13.59,-38.31 21.56,-11.04 40.17,-9.66l9.96 -0.16c57.92,3.99 30.71,-10.33 59.48,-3.34 -0.89,24.67 1.87,32.32 6.17,58.45 8.05,48.94 -1.84,138.02 35.42,173.39 5.92,-104.6 -68.85,-237.03 -10.06,-250.66 23.25,-5.4 43.81,-11.23 62.89,-28.51l-16.1 30.94 30.65 13.52c15.27,-13.74 8.49,-12.16 18.06,-25.34 0.57,-0.78 1.23,-2 1.87,-2.69 0.9,-1 4.04,-3.54 5.03,-4.2 26.24,-17.61 29.66,41.85 60.36,13.17 -11.01,-21.91 -28.12,-13.61 -22.58,-33.2 5.04,-17.82 9.8,1.8 16.29,-33.19 17.36,0.33 39.77,3.94 53.05,-4.19 -0.43,-1.18 -1.44,-2.56 -1.89,-3.26 -0.44,-0.71 -1.38,-2.36 -1.93,-3.2 -0.53,-0.82 -1.43,-2.19 -2.01,-3.04 -0.56,-0.83 -1.54,-2.13 -2.07,-2.89 -18.92,-26.85 3.28,10.38 -6.11,-7.86 14.91,-1.87 7.55,3.12 17.79,-11.2l33.64 -4.6c-7.93,-3.88 -18.5,-7.22 -28.15,-11.9l1.57 -10.77c-9.27,-1.39 -7.07,2.61 -14.55,4.79 -10.13,-29.43 6.08,-10.58 2.07,-30.49 -2.41,-12.03 -18.5,-17.23 -32.82,-32.01l21.18 -0.4c-1.43,-6.99 12.22,-0.98 -9.27,-13.82 20.07,2.53 23.96,-0.91 45.93,6.42 -3.93,-8.95 -30.34,-20.9 -50.26,-31.44 -21.32,-11.28 -39.4,-11.91 -58.06,-27.49 24.26,-18.41 3.82,17.67 24.49,-20.78l33.33 12.39 -21.59 -21.55 18.68 -5.61c13.31,12.22 8.29,13.03 16.7,22.4 32.93,36.64 30.16,-14.75 33.85,-27.87 65.31,1.44 19.02,36.3 8.42,65.8 -9.98,27.79 12.66,36.73 11.5,58.3l-5.55 13.99c22.15,-1.59 6.79,-5.7 23.74,-0.22 24.49,7.93 42.56,24.72 70.68,20.88 24.94,-3.4 56.77,-19.23 79.42,-44.45 37.8,-42.11 32.06,-60.41 4.87,-88.47 -20.01,-20.65 -3.92,-21.73 -26.18,-38.81 -12.48,-9.57 -34.63,-16.96 -48.49,-20.68 -6.51,4.97 1.65,4.15 -7.22,5.84 -2.78,0.54 -12.22,0.5 -14.85,0.35 -13.56,-0.73 -24.94,-2.77 -32.7,-14.77 23.92,-17.92 31.7,-2.73 60.27,1.54 18.72,2.8 12.36,-5.06 31.65,2.9 15.53,6.4 15.66,13.42 33,17.14 -1.38,-7.7 1.12,-0.27 -4.17,-9.69 -5.13,-9.15 -11.72,-15.56 -11.56,-25.04 13.01,7.48 29.18,23.21 32.87,34.91 8.1,25.71 -16.83,11.95 4.54,34.98 37.42,-11.04 -0.84,-47.1 1.04,-70.88 5.58,-1.14 2.77,-2.2 14.19,-1.33 31.83,2.42 129.61,95.22 152.17,115.32 31.88,28.42 125.19,124.94 162.33,123.78 -6.6,-32.92 -101.05,-119.13 -129.82,-153.94 -21.37,-25.84 -19.93,-46.27 -47.63,-78.46 -47.35,-55 -20.25,-47.38 -42.52,-80.34 3.4,-9.73 -5.28,2.63 5.41,-2.34 14.64,-6.81 3.6,13.38 3.25,-2.16l-56.17 -33.97c13.22,-20.38 37.68,-11.31 62.16,-5.52 47.9,11.34 64.24,18.14 94.04,-20.84 4.76,-6.24 8.42,-13.73 9.99,-15.88 14.41,-19.61 47.98,-14.13 71,-24.87l-40.41 1.41c24.18,-14.58 50.48,-24.93 70.61,-36.42 4.04,-27.28 -13.44,-41.2 35.57,-57.92 33.52,-11.45 53.02,4.84 51.58,-40.91 -17.01,-8.61 -10.54,-0.7 -26.74,-5.78 -23.45,-7.35 -5.46,-5 -23.81,-14.1 -44.34,-22 -68.68,-11.68 -55.32,-74.7l1.34 -7.22c8.4,-39.42 73.41,-47.34 49.97,-97.86 -14.68,-31.64 -54.08,-30.54 -72.01,-20.33 -37.83,21.56 -28.18,43.99 -22.01,69.85l-25.72 -4.15c0.79,7.89 -0.32,1.07 1.41,11.53 1.5,9.06 -0.51,-1.66 1.81,6.82 -45.51,5.26 -72.2,8.08 -108.5,66.26 -82,-25.86 -34.89,-53.22 -64.76,-83.55 -23.19,-23.54 -34,-17.22 -56.74,-14.8 -27.67,2.94 -19.32,-11.43 -46.89,16.52l-51.69 -11.29c6.71,-9.74 10.2,-17.33 20.58,-21.99l22.68 -9.72c9.81,-8.1 33.29,-28.35 37.21,-35.21 -31.34,-24.72 -62.04,32.67 -95.49,5.47 20.08,-28.25 52.64,-39.16 74.34,-65.77 -48.71,26.62 -27.98,10 -51.27,12.77l-31.47 5.35c-5.84,1.3 -2.35,1.13 -9.77,2.51 -12.79,2.37 -7.31,-3.19 -21.58,2.5l34.97 -48.8c-23.18,14.6 -18.4,28.67 -47.87,40.75 -4.3,-27.31 11.47,-25.46 17.58,-50.66 -26.61,37.83 -28.21,56.6 -64.53,77.71 -4.91,-10.02 -1.6,0.07 -3.18,-10.28 -8.04,-52.66 74.44,-61 -10.56,-141.83l31.32 -38.75c-8.33,10.19 -23.82,21.87 -37.19,26.05 -14.28,-14.48 -56,-63.08 -65.62,-80.48 -7.01,-12.7 -11.08,-33.56 -22.35,-42.43 -17.19,-13.53 -26.06,-2.2 -50.14,-25.05 -3.37,-7.16 1.97,-24.21 2.77,-34.21 2.4,-30.01 -30.73,-17.7 -57.84,-31.88 -27.46,-14.37 -20.49,-26.4 -49.5,-44.29 -35.3,27.66 -15.46,48.58 -16.49,81.24 -14.19,13.93 -10.08,5.39 -21.52,15.52 -17.66,15.62 -25.97,53.48 -52.37,50.02 -21,-6.9 -19.99,-24.9 -21.57,-40.88 -2.46,-24.9 -9.34,-28.43 -35.68,-43.84 -22.19,36.08 -17.83,47.26 -28.98,75.94 -12.21,5.19 -13.48,2.94 -25.5,5.67l-12.67 33.78c-43.38,-43.79 -6.45,-86.85 -29.28,-110.94 -36.04,28.25 -23.54,63 -41.24,93.43 -25.6,-28.98 -8.54,-45.93 -58.36,-61.73l-22.31 33.55c-10.94,-17.67 -6.71,-39.19 -8.41,-55.78 -2.57,-25.1 1.62,-28.71 17.11,-53.62 12.64,-20.33 18.06,-42.22 30.76,-58.79 16.69,-21.78 25.75,-15.81 42.02,-45.3 -14.76,9.64 -39.84,18.75 -50.78,29.65 -18.08,18.03 -17.81,40.4 -31.98,59.6 -12.99,-25.8 -8.4,-41.83 -8.46,-76.94l-4.76 3.9c-0.51,0.5 -1.65,1.58 -2.2,2.16 -0.57,0.6 -1.52,1.74 -2.09,2.38l-10.35 12.68c-26.23,-8.89 -36.21,-21.06 -59.18,-11.55 -11.49,47.34 45.19,90.2 45.82,125.66 0.61,34 -18.78,107.75 -12.57,132.16 8.81,-4.42 20.72,-15.5 29.12,-24.16 13.74,24.91 10.02,33.36 -10.9,48.66 -15.35,11.22 -28.08,30.53 -43.53,38.42 -18.56,-6.15 -20.14,-12.9 -26.11,-26l-19.1 4.5c-21.99,4.68 -13.77,20.19 -32.37,41.12 -36.91,-25.06 -52.28,-51.11 -90.78,-14.53 -68.33,64.91 15.5,82.45 36.88,121 6.74,12.14 7.64,31.65 17.28,40.69 26.95,25.27 42.11,-22.23 77.87,-11.21 5.94,22.42 -3.25,28.3 -24.76,35.06 -25.02,7.87 -20.84,0.7 -39.82,-11.89 -5.5,22.62 -16.38,12.93 -49.42,14.64l28.26 22.9c-61.29,-2.09 -143.39,-19.07 -208.53,-35.67 -73.26,-18.68 -50.74,-29.87 -99.49,-60.78 -72.12,-45.73 -95.22,146.49 15.41,116.23 32.02,-8.76 57.8,-27.59 94.75,-35.27 46.34,-9.62 61.45,14.8 106.6,24.85 58.87,13.1 29.33,10.27 33.98,19.27 6.93,13.4 23.53,-0.94 44.07,8.43 5.16,17.13 -1,14.73 -1.61,30.23 -0.89,22.59 -1.16,5.04 10.8,23.79l-73.18 -5.32c26.56,14.52 55.17,12.05 82.39,19.21l-10.34 20.11c-35.28,-7.1 -80.4,-27.84 -87.47,35.12 -5.89,52.43 25.47,48.84 63.31,75.54 -13.46,11.11 -8.76,8.41 -24.13,8.55 8.81,0.31 21.92,0.39 28.84,2.76 16.9,5.78 15.99,14.67 17.5,18.71l-56.57 24.76 -34.47 -35.81c0.49,-1.49 4.9,-3.38 4.4,-12.13 -18.91,0.28 -8.74,-3.79 -21.02,-8.59l-7.31 -2.19c0.1,-1.25 -2.43,-0.89 -3.68,-0.75 5.98,11.98 13.35,19.27 21.62,29.63l13.05 29.6 -24.06 2.72c0.98,-0.6 1.67,1.74 1.59,0.73l-41.2 12.54c19.99,2.08 23.7,-0.03 43.27,-4.63 37.29,-8.79 19.85,9.7 18.5,13.49 25.08,-15.59 36.14,12.41 41.02,30.27l-11.74 1.76c0.12,1.27 0.59,5.77 0.63,7.19 0.43,12.29 3.8,-4.71 -0.99,15.42 -23.65,-8.06 -135.11,-40.21 -164.7,-37.05 25.63,11.22 60.44,16.55 87.23,23.79 25.8,6.97 21.61,11.85 31.59,17.92 5.63,3.42 29.92,8.24 39.46,11.97 -12.97,11.34 -23.73,7.43 -40.84,14.14 23.59,23.88 15.51,4.53 38.23,20.08 -92.08,9.09 -80.57,-15.47 -132.34,-25.45 -16.03,-3.09 -28.06,-5.91 -42.66,-10.66 12.85,9.76 67.96,30.08 81.57,33.9l-7.46 11.1c23.81,-0.59 38.71,3.23 64.83,18.27 21.96,12.64 42.91,17.73 52.87,33.9 -15.57,4.79 -34.79,-3.21 -50.24,-9.19 0.06,-0.83 0.64,-2.11 0.67,-2.4 0.03,-0.26 0.44,-1.9 0.43,-2.19 -0.28,-10.99 8.7,10.96 -0.35,-3.1l-15.95 -6.87c-1.6,-0.86 -4.63,-3.23 -8.92,-5.48 -13.95,-7.33 -35.71,-13.01 -49.08,-13.94 13.07,7.06 9.56,4.57 18.42,13.27 9.07,8.89 -5.48,1.52 13.72,14.24 34.54,22.88 58.43,6.92 82.26,47.93 -21.01,-8.9 -60.86,-6.52 -90.04,-13.46l16.94 17.24c19.18,29.01 -25.95,-22.23 4.56,7.71 16.19,6.89 43.46,6.76 59.39,2.29l3.11 -0.81c16.2,1.54 1.45,-0.73 2.47,3.98 0.04,0.18 -0.46,2.42 -0.07,2.01 0.41,-0.44 -0.32,1.41 -0.25,2.13 12.76,8.7 25.51,8.16 48.65,14.69 -7.51,29.38 -4.65,-1.58 -10.33,12.13 -5.61,13.54 -6.32,-7.97 0.85,4.06l3.58 3.42c0.73,-0.6 1.65,1.06 2.41,2.3l-28.94 14.35 25.77 2.04c-14.11,19.8 -34.99,12.81 -59.82,26.26l33.24 0.33 -61.97 66.56c19.69,-8.04 41.61,-36.34 56.98,-41.12 11.6,-3.61 49.66,-0.58 60.82,6.19 -22.63,35.93 -11.88,25.21 -42.14,46.55 10.08,0.43 10.12,0.03 19.1,0.95 19.49,1.99 22.72,-4.24 38.58,-2.16 0.2,27.77 -17.54,26.55 -41.62,41.3 -30.24,-25.02 -24.99,-4.59 -58.02,14.05 -12.22,6.91 -9.54,4.99 -18.81,12.55 18.45,1.01 17.68,-3.74 32.3,-13.1 20.4,-13.05 -2.82,-11.03 28.79,-3.44l-44.02 30.7c15.02,0.79 39.88,-15.3 54.08,-23.02 -13.24,15.65 -29.49,16.14 -30.74,32.88 18.56,1.32 2.89,4.84 20.81,-8.29 15.1,-11.07 41.03,-31.64 57.96,-36.76 -18.38,20.71 -26.72,17.81 -43.99,41.28 -20.99,28.54 -109.15,125.33 -132.67,131.58 -10.93,2.9 -16.13,-0.47 -26.7,1.28 -34.25,5.68 -47.9,30.02 -65.45,45.61l-94.44 67.71c23.76,4.65 67.22,-33.96 87.19,-51.29 40.99,-35.55 25.43,-22.16 42.67,-25.5 14.7,-2.85 29.6,-12.92 43.62,-18.15l42.53 -27.76c33.44,-34.33 57.57,-32.13 83.97,-57.76z"/>
   <path class="fil3" d="M2449.66 -1044.75c0.26,-26.29 64.16,-107.61 66.74,-141.6 -31.2,33.75 -170.45,241.71 -48.12,256.75 63.83,7.85 51.58,-30.75 68.44,-54.27 36.96,-51.55 144.79,-80.57 71.93,-155.24 -64.49,-66.1 -117.02,79.72 -158.99,94.36z"/>
   <path class="fil3" d="M2329.27 -914.98c13.36,-20.38 2,-22.4 18.12,-42.39 15.72,-19.5 20.25,-13.35 26.95,-43.88 5.16,-23.54 7.02,-83.43 -32.33,-72.38 -44.41,12.48 -33.36,96.8 -34.09,126.1 -0.55,22.12 -2.01,24.53 21.35,32.55z"/>
   <path class="fil3" d="M3072.06 -73.75c29.07,33.73 128.89,73.2 143.69,25.44 -25.9,-38.34 -82.2,-35.93 -107.55,-39.73 -21.36,-3.19 -23.02,-6.53 -36.14,14.29z"/>
   <path class="fil3" d="M1388.88 -686.98c-14.23,19.85 -16.81,26.35 0.85,41.5 7.89,6.77 32.38,22.48 41.59,26.12 15.09,5.98 66.78,22.75 82.66,18.72 -8.36,-18.24 -17.85,-19.22 -37.98,-28.87 -46.5,-22.31 -20.87,-62.33 -87.12,-57.47z"/>
   <path class="fil3" d="M1462.49 -929.85c-21.32,44.71 41.87,74.66 68.54,29.68 30.44,-51.33 -45.87,-77.22 -68.54,-29.68z"/>
   <path class="fil3" d="M2561.59 301.69c-16.6,41.08 20.53,77.16 65.26,96.17 8.28,-29.57 -15.46,-95.88 -65.26,-96.17z"/>
   <path class="fil3" d="M3087.81 253.99c15.17,-26.1 -67.8,-92.19 -98.41,-102.7 -1.45,9.9 -12.73,6.89 9.36,33.15 29.52,35.07 64.4,61.08 81.08,67.75l7.97 1.8z"/>
   <path class="fil3" d="M1289.65 59.43c-50.36,4.96 -58.01,52.29 -17.98,63.98 39.58,11.55 61.88,-38.11 17.98,-63.98z"/>
   <path class="fil3" d="M2957.45 -644.14c37.47,-38.73 1.66,-69.62 -27.7,-57.94 -37.41,14.88 -17.14,57.7 27.7,57.94z"/>
   <path class="fil3" d="M1630.15 -904.63c-35.37,-6.21 -59.23,50.72 -13.36,59.07 30.68,5.58 52.95,-52.13 13.36,-59.07z"/>
   <path class="fil3" d="M2088.02 -1021.73l25.58 -90.93c8.04,-34.24 22.64,-71.07 -0.99,-95.17 -22.17,52.24 -16.45,132.76 -24.59,186.1z"/>
   <path class="fil3" d="M1931.49 271.54c-34.57,49.49 19.83,67.51 44.39,38.65 9.36,-38.79 -19.34,-41.08 -44.39,-38.65z"/>
   <path class="fil3" d="M1177.66 0.09c15.35,40.25 56.72,29.8 56.36,-11.05 -24.78,-23.84 -43.47,-21.86 -56.36,11.05z"/>
   <path class="fil3" d="M2781.6 -66.48c5.57,20.8 19.75,17.51 44.25,24.8 38.01,11.32 39.38,17.61 58.57,7.85 -15.14,-13.74 -32.71,-23.37 -53.15,-31.4 -22.23,-8.72 -33.84,-13.75 -49.67,-1.25z"/>
   <path class="fil3" d="M1678.41 -1125.65l15.52 -16.89c-20.83,-32.16 -25.85,-25.8 -36.81,-63.6 -7.79,3.17 -19.35,6.46 -27.86,8.7l49.15 71.79z"/>
   <path class="fil3" d="M2035.28 -1015.42c10.55,-6.07 10.45,-2.43 14.55,-1.51 3.71,-15.58 7.8,-31 8.97,-47.79 1.44,-20.6 1.41,-29.39 -13.45,-45.01 -17.96,39.95 -8.58,63.04 -10.07,94.31z"/>
   <path class="fil3" d="M1449.53 182.74c13.72,-0.55 13.78,-5.27 26.75,-1.32 42.63,13 2.54,23.1 68.73,-21.6 -16.01,-6.35 -45.97,-7.35 -53.18,-4.34 -22.7,9.46 -0.8,15.76 -42.3,27.26z"/>
   <path class="fil3" d="M3040.3 -230.5c12.84,8.86 28.06,13.31 42.69,14.04 9.08,0.46 37.89,-0.64 35.41,-15.86 -5.82,-35.55 -66.27,3.03 -78.1,1.82z"/>
   <path class="fil3" d="M1364.99 -1015.86c7.02,10.51 21.04,25.05 34.79,30.9 21.89,9.32 12.42,2.78 17.5,2.08 -2.89,-19.95 -30.29,-78.63 -52.29,-32.98z"/>
   <path class="fil3" d="M2226.95 410.6c1.93,23.24 9.64,38.39 20.93,63.65 8.49,19.03 16.3,42.96 27.78,58.27 10.54,-28.58 -28.86,-94.32 -48.71,-121.92z"/>
   <path class="fil3" d="M1365.47 41.12c-23.1,-6.29 -21.94,2.7 -38.94,-9.19 -50.8,-35.53 -65.21,38.87 -4.31,19.22 8.72,-2.81 13.72,-5.49 22.38,-6.51 17.55,-2.06 3.72,4.01 20.87,-3.52z"/>
   <path class="fil3" d="M2764.69 -657.97c30.71,6.74 64.63,-15.47 71.27,-24.5 18.32,-24.94 3.82,-2.14 5.16,-15.82 -15.23,-3.75 -5.89,-6.68 -21.88,2.51 -11.28,6.48 -34.99,29.22 -54.55,37.81z"/>
   <path class="fil3" d="M2757.4 -595.32c-32.5,-45.32 -71.69,19.85 -22.81,21.31 18.05,0.54 21.23,-12.54 22.81,-21.31z"/>
   <path class="fil3" d="M2944.33 -149.71c-6.77,0.15 -21.12,-2.29 -21.43,16.43 -0.15,9.37 9.22,17.81 20.46,18.09 22.22,0.57 32.43,-35.22 0.97,-34.52z"/>
   <path class="fil3" d="M1813.83 406.82c-31.12,-21.41 -39.94,20.3 -30.69,39.79 19.89,4.26 9.73,10.13 30.69,-39.79z"/>
   <path class="fil3" d="M2099.85 456.16c1.2,25.48 3.53,70.17 21.42,90.43 2.39,-21.02 -7.12,-75.68 -21.42,-90.43z"/>
   <path class="fil3" d="M1678.41 -1125.65l-9.23 8.21 -24.46 -22.21c13.97,17.35 24.63,47.51 49.16,47.94 9.37,-17.81 -0.17,-15.12 -15.47,-33.94z"/>
   <path class="fil3" d="M1730.53 473.3c31.18,7.88 31.07,-20.71 30.05,-22.56 -12.28,-22.26 -28.03,10.23 -30.05,22.56z"/>
   <path class="fil3" d="M1751.56 402.69c12.25,2.51 20.86,-0.54 28.92,-6.8 -4.59,-11.56 -0.46,-4.57 -12.49,-15.61l-16.43 22.41z"/>
   <path class="fil3" d="M1384.21 -217.44c19.37,3.96 41.12,-2.8 57.57,-11.63 -19.15,-0.05 -39.56,2.81 -57.57,11.63z"/>
   <path class="fil3" d="M2092.9 419.66c-1.42,19.63 -11.97,7.45 7.25,32.55 5.73,-19.01 6.19,-15.1 -7.25,-32.55z"/>
   <path class="fil3" d="M1482.01 3.03c3.12,0.51 8.66,-3.43 11.7,-5.3 -5.35,-13.03 -12.59,-19.06 -19.8,-3.48 2.42,6.04 -14.39,5.06 8.1,8.78z"/>
   <path class="fil3" d="M2087.36 390.09c8.38,-15.86 6.35,-16.54 -3.96,-30.4 -2.88,8.95 -3.87,12.24 -2.83,18.5 1.49,9.01 0.2,3.91 6.79,11.9z"/>
   <path class="fil3" d="M1514.41 289.96c0.9,-0.91 3.07,0.32 3.84,0.11 25.52,-6.79 12.07,-13.89 11.79,-16.11 -14.67,1.42 -13.48,-2.65 -15.63,16z"/>
   <path class="fil3" d="M1785 342.62c15.17,0.57 1.35,8.76 19.28,-8.51 -20.16,-8.47 -5.01,-8.24 -16.74,-2.32 -14.85,7.49 -2.41,9.17 -2.54,10.83z"/>
  </g>
 </g>
</svg>
